<svg width="600" height="1100" viewBox="0 0 751 1284" fill="none" xmlns="http://www.w3.org/2000/svg">
<g filter="url(#filter0_f_436_123)">
<circle cx="783" cy="630" r="311" fill="#FECD35" fill-opacity="0.43"/>
</g>
<g filter="url(#filter1_f_436_123)">
<circle cx="780.967" cy="697.078" r="130.092" fill="#FECD35" fill-opacity="0.43"/>
</g>
<path d="M458.283 541.913L612.485 439.426L677.168 482.339L676.304 482.889L765.037 541.835C834.357 587.891 925.762 583.175 989.973 530.281L786.021 406.181L611.699 300L513.613 359.653L233.268 530.281C297.558 583.254 388.884 587.969 458.283 541.913Z" fill="#98AFFF" fill-opacity="0.11"/>
<path d="M450.816 1123.12L611.699 1284L772.503 1123.12L611.699 981.647L450.816 1123.12Z" fill="#98AFFF" fill-opacity="0.11"/>
<path d="M325.616 728.262L324.516 729.048L288.834 697.688C208.432 626.953 91.4052 616.736 0 672.381L166.934 839.315L369.472 1041.85L530.904 908.793L325.616 728.262Z" fill="#98AFFF" fill-opacity="0.11"/>
<path d="M1223.4 672.301C1131.91 616.656 1014.97 626.874 934.563 697.608L898.882 729.046L897.781 728.26L692.493 908.713L853.926 1041.77L1056.54 839.235L1223.4 672.301Z" fill="#98AFFF" fill-opacity="0.11"/>
<path d="M419.536 672.302L611.699 829.805L803.862 672.302L611.699 537.198L419.536 672.302Z" fill="#98AFFF" fill-opacity="0.11"/>
<defs>
<filter id="filter0_f_436_123" x="153" y="0" width="1260" height="1260" filterUnits="userSpaceOnUse" color-interpolation-filters="sRGB">
<feFlood flood-opacity="0" result="BackgroundImageFix"/>
<feBlend mode="normal" in="SourceGraphic" in2="BackgroundImageFix" result="shape"/>
<feGaussianBlur stdDeviation="159.5" result="effect1_foregroundBlur_436_123"/>
</filter>
<filter id="filter1_f_436_123" x="487.875" y="403.987" width="586.183" height="586.183" filterUnits="userSpaceOnUse" color-interpolation-filters="sRGB">
<feFlood flood-opacity="0" result="BackgroundImageFix"/>
<feBlend mode="normal" in="SourceGraphic" in2="BackgroundImageFix" result="shape"/>
<feGaussianBlur stdDeviation="81.5" result="effect1_foregroundBlur_436_123"/>
</filter>
</defs>
</svg>
