<svg width="176" height="172" viewBox="0 0 176 172" fill="none" xmlns="http://www.w3.org/2000/svg">
<path d="M77.2598 12.0791V24.1279L76.3818 24.3096C75.9277 24.4004 66.5732 30.4248 55.6445 37.6602L35.7549 50.8594L35.1797 52.1309C34.8467 52.8574 34.5742 53.8262 34.5742 54.3408C34.5742 54.8252 34.8467 55.8242 35.1797 56.5205L35.7549 57.8223L36.7539 58.4277L37.7529 59.0635L39.7207 58.9727L41.6885 58.8516L59.3379 47.1357C69.0557 40.6875 77.0479 35.4199 77.1387 35.4199C77.1992 35.4199 77.2598 38.3867 77.2598 42.0498V48.6494L76.3818 48.8311C75.2617 49.0732 55.6445 62.0303 54.3428 63.4229L53.374 64.4219L53.1621 65.5117C52.8896 67.1162 53.2529 68.5996 54.2822 69.7803C54.7666 70.3252 55.6748 70.9609 56.2803 71.1729L57.3398 71.5059L58.7021 71.3545L60.0342 71.2031L68.5107 65.5723C73.1426 62.4844 77.0176 59.9414 77.1084 59.9414C77.1992 59.9414 77.2598 70.3555 77.2598 83.1006V106.26H77.8652C78.1982 106.26 78.9248 106.078 79.4697 105.836C80.5898 105.382 140.198 65.8447 140.683 65.2393C140.834 65.0273 143.892 62.9385 147.434 60.5771L153.882 56.2783L154.457 55.3096L155.062 54.3408V52.9785V51.6162L154.457 50.6172L153.852 49.6182L135.748 37.6299C125.818 31.0303 108.986 19.8594 98.3604 12.8057L79.0156 0H78.1377H77.2598V12.0791ZM79.167 25.3389C79.7119 25.6113 88.8242 31.6055 99.4502 38.6289L118.765 51.4648L119.4 52.8574L120.006 54.2803L119.431 55.6729L118.886 57.0654L117.826 57.7617L116.767 58.4883L115.404 58.3369L114.042 58.2158L95.9688 46.2275L77.8652 34.209V29.5166C77.8652 26.9434 77.9258 24.8242 78.0166 24.8242C78.1377 24.8242 78.6221 25.0361 79.167 25.3389ZM79.0459 49.7998C80.832 50.708 98.9355 62.7871 99.874 63.665C100.419 64.1797 101.024 65.0576 101.206 65.6025L101.539 66.6016L101.176 67.6611C100.752 68.9629 99.0869 70.4463 97.7852 70.6885C97.2402 70.8096 96.4229 70.749 95.999 70.5977C95.5752 70.416 91.3066 67.6914 86.5537 64.5127L77.8652 58.7305V54.0381C77.8652 51.4648 77.9258 49.3457 78.0166 49.3457C78.1377 49.3457 78.5918 49.5576 79.0459 49.7998Z" fill="#39E7DF" fill-opacity="0.5"/>
<path d="M0.152376 53.1299V54.3408L0.27347 53.6445C0.334016 53.2812 0.334016 52.7363 0.27347 52.4336C0.182649 52.1611 0.122102 52.4639 0.152376 53.1299Z" fill="#26D1CA" fill-opacity="0.5"/>
<path d="M76.0166 0.242188C75.7441 0.363281 58.8213 11.5342 38.417 25.0967L1.30176 49.709L0.787109 50.4961C0.514648 50.9199 0.211914 51.8281 0.121094 52.5244L0 53.7959L0.514648 54.9463L1.05957 56.0664L8.05273 60.7285C11.8975 63.3018 14.9248 65.3906 14.7734 65.3906C14.5312 65.3906 35.874 79.6494 64.543 98.6006L75.5928 105.927L76.6523 106.108L77.7119 106.29V82.5859V58.8818L68.7812 64.8457L59.8809 70.8398L58.8516 71.0215L57.8223 71.2334L56.6719 70.8701L55.5215 70.5371L54.583 69.4775C54.0986 68.9023 53.584 67.9639 53.4932 67.3887L53.2812 66.3291L53.6143 65.2998C53.7959 64.7549 54.3408 63.9375 54.7949 63.5137C55.249 63.0898 60.1836 59.6992 65.7539 55.9756L75.8955 49.2549L76.8037 49.2246L77.7119 49.1943V41.7773V34.3604L59.5479 46.4395L41.3838 58.5488L39.7188 58.6396L38.0537 58.7607L37.0547 58.125L36.0557 57.5195L35.4805 56.2178C35.1475 55.5215 34.875 54.6738 34.875 54.3408C34.875 54.0078 35.1475 53.1602 35.4805 52.4336L36.0557 51.1621L55.9756 37.9326L75.8955 24.7334L76.8037 24.7031L77.7119 24.6729L77.6211 12.3213L77.5605 0L77.0156 0.0302734C76.7432 0.0302734 76.2891 0.121094 76.0166 0.242188Z" fill="#48FFF7" fill-opacity="0.5"/>
<path d="M78.5605 0.211914C78.6816 0.302734 78.8632 0.302734 78.9843 0.211914C79.0751 0.0908203 78.9843 0 78.7724 0C78.5605 0 78.4696 0.0908203 78.5605 0.211914Z" fill="#48FFF7" fill-opacity="0.5"/>
<path d="M99.8117 13.9258C99.9025 14.0771 100.054 14.2285 100.145 14.2285C100.236 14.2285 100.205 14.0771 100.114 13.9258C100.024 13.7441 99.8722 13.623 99.7814 13.623C99.6906 13.623 99.7209 13.7441 99.8117 13.9258Z" fill="#48FFF7" fill-opacity="0.5"/>
<path d="M100.72 14.5312C100.811 14.6826 100.962 14.834 101.053 14.834C101.144 14.834 101.113 14.6826 101.023 14.5312C100.932 14.3496 100.78 14.2285 100.69 14.2285C100.599 14.2285 100.629 14.3496 100.72 14.5312Z" fill="#48FFF7" fill-opacity="0.5"/>
<path d="M101.628 15.1367C101.719 15.2881 101.87 15.4395 101.961 15.4395C102.052 15.4395 102.022 15.2881 101.931 15.1367C101.84 14.9551 101.689 14.834 101.598 14.834C101.507 14.834 101.537 14.9551 101.628 15.1367Z" fill="#48FFF7" fill-opacity="0.5"/>
<path d="M102.536 15.7422C102.627 15.8936 102.778 16.0449 102.869 16.0449C102.96 16.0449 102.93 15.8936 102.839 15.7422C102.748 15.5605 102.597 15.4395 102.506 15.4395C102.415 15.4395 102.445 15.5605 102.536 15.7422Z" fill="#48FFF7" fill-opacity="0.5"/>
<path d="M103.444 16.3477C103.535 16.499 103.687 16.6504 103.777 16.6504C103.868 16.6504 103.838 16.499 103.747 16.3477C103.656 16.166 103.505 16.0449 103.414 16.0449C103.323 16.0449 103.354 16.166 103.444 16.3477Z" fill="#48FFF7" fill-opacity="0.5"/>
<path d="M104.353 16.9531C104.444 17.1045 104.595 17.2559 104.686 17.2559C104.777 17.2559 104.746 17.1045 104.655 16.9531C104.565 16.7715 104.413 16.6504 104.322 16.6504C104.232 16.6504 104.262 16.7715 104.353 16.9531Z" fill="#48FFF7" fill-opacity="0.5"/>
<path d="M105.261 17.5586C105.352 17.71 105.503 17.8613 105.594 17.8613C105.685 17.8613 105.654 17.71 105.564 17.5586C105.473 17.377 105.321 17.2559 105.231 17.2559C105.14 17.2559 105.17 17.377 105.261 17.5586Z" fill="#48FFF7" fill-opacity="0.5"/>
<path d="M135.837 37.8418C135.928 37.9932 136.079 38.1445 136.17 38.1445C136.261 38.1445 136.231 37.9932 136.14 37.8418C136.049 37.6602 135.898 37.5391 135.807 37.5391C135.716 37.5391 135.746 37.6602 135.837 37.8418Z" fill="#48FFF7" fill-opacity="0.5"/>
<path d="M136.745 38.4473C136.836 38.5986 136.987 38.75 137.078 38.75C137.169 38.75 137.139 38.5986 137.048 38.4473C136.957 38.2656 136.806 38.1445 136.715 38.1445C136.624 38.1445 136.654 38.2656 136.745 38.4473Z" fill="#48FFF7" fill-opacity="0.5"/>
<path d="M137.653 39.0527C137.744 39.2041 137.896 39.3555 137.986 39.3555C138.077 39.3555 138.047 39.2041 137.956 39.0527C137.865 38.8711 137.714 38.75 137.623 38.75C137.532 38.75 137.563 38.8711 137.653 39.0527Z" fill="#48FFF7" fill-opacity="0.5"/>
<path d="M138.562 39.6582C138.652 39.8096 138.804 39.9609 138.895 39.9609C138.986 39.9609 138.955 39.8096 138.864 39.6582C138.774 39.4766 138.622 39.3555 138.531 39.3555C138.441 39.3555 138.471 39.4766 138.562 39.6582Z" fill="#48FFF7" fill-opacity="0.5"/>
<path d="M139.47 40.2637C139.561 40.415 139.712 40.5664 139.803 40.5664C139.894 40.5664 139.863 40.415 139.773 40.2637C139.682 40.082 139.53 39.9609 139.44 39.9609C139.349 39.9609 139.379 40.082 139.47 40.2637Z" fill="#48FFF7" fill-opacity="0.5"/>
<path d="M140.378 40.8691C140.469 41.0205 140.62 41.1719 140.711 41.1719C140.802 41.1719 140.772 41.0205 140.681 40.8691C140.59 40.6875 140.439 40.5664 140.348 40.5664C140.257 40.5664 140.287 40.6875 140.378 40.8691Z" fill="#48FFF7" fill-opacity="0.5"/>
<path d="M141.286 41.4746C141.377 41.626 141.528 41.7773 141.619 41.7773C141.71 41.7773 141.68 41.626 141.589 41.4746C141.498 41.293 141.347 41.1719 141.256 41.1719C141.165 41.1719 141.195 41.293 141.286 41.4746Z" fill="#48FFF7" fill-opacity="0.5"/>
<path d="M153.093 49.3457C153.184 49.4971 153.335 49.6484 153.426 49.6484C153.517 49.6484 153.486 49.4971 153.396 49.3457C153.305 49.1641 153.153 49.043 153.063 49.043C152.972 49.043 153.002 49.1641 153.093 49.3457Z" fill="#48FFF7" fill-opacity="0.5"/>
<path d="M154.001 50.2539C154.092 50.4053 154.243 50.5566 154.334 50.5566C154.425 50.5566 154.395 50.4053 154.304 50.2539C154.213 50.0723 154.062 49.9512 153.971 49.9512C153.88 49.9512 153.91 50.0723 154.001 50.2539Z" fill="#48FFF7" fill-opacity="0.5"/>
<path d="M154.758 51.7675C154.758 51.9795 154.849 52.0703 154.97 51.9795C155.06 51.8584 155.06 51.6767 154.97 51.5556C154.849 51.4648 154.758 51.5556 154.758 51.7675Z" fill="#48FFF7" fill-opacity="0.5"/>
<path d="M154.758 54.1894C154.758 54.4013 154.849 54.4922 154.97 54.4013C155.06 54.2802 155.06 54.0986 154.97 53.9775C154.849 53.8867 154.758 53.9775 154.758 54.1894Z" fill="#48FFF7" fill-opacity="0.5"/>
<path d="M153.97 55.7637L153.758 56.0967L154.091 55.8848C154.303 55.7637 154.454 55.6123 154.454 55.5215C154.454 55.2793 154.182 55.4004 153.97 55.7637Z" fill="#48FFF7" fill-opacity="0.5"/>
<path d="M153.063 56.6719L152.852 57.0049L153.185 56.793C153.548 56.5811 153.669 56.3086 153.427 56.3086C153.336 56.3086 153.185 56.46 153.063 56.6719Z" fill="#48FFF7" fill-opacity="0.5"/>
<path d="M142.165 63.9375L141.953 64.2705L142.286 64.0586C142.498 63.9375 142.649 63.7861 142.649 63.6953C142.649 63.4531 142.377 63.5742 142.165 63.9375Z" fill="#48FFF7" fill-opacity="0.5"/>
<path d="M141.255 64.543L141.043 64.876L141.376 64.6641C141.739 64.4521 141.86 64.1797 141.618 64.1797C141.527 64.1797 141.376 64.3311 141.255 64.543Z" fill="#48FFF7" fill-opacity="0.5"/>
<path d="M140.349 65.1484L140.137 65.4814L140.47 65.2695C140.682 65.1484 140.833 64.9971 140.833 64.9062C140.833 64.6641 140.561 64.7852 140.349 65.1484Z" fill="#48FFF7" fill-opacity="0.5"/>
<path d="M123.576 100.417C114.676 106.351 100.932 115.463 93.0605 120.7L78.7109 130.176H77.9844H77.2578V142.588V155H78.0146C78.4688 155 79.1953 154.788 79.6797 154.546C80.4062 154.183 148.612 108.984 152.578 106.26C153.274 105.775 154.122 104.928 154.455 104.383L155.061 103.384V101.991V100.599L154.364 99.5693L153.698 98.54L147.038 94.0898C143.375 91.668 140.257 89.6699 140.075 89.6396C139.924 89.6396 132.477 94.5137 123.576 100.417Z" fill="#1DA29C" fill-opacity="0.5"/>
<path d="M0.152344 102.324C0.152344 103.081 0.212891 103.384 0.273438 102.99C0.333984 102.627 0.333984 102.021 0.273438 101.628C0.212891 101.265 0.152344 101.567 0.152344 102.324Z" fill="#1DA29C" fill-opacity="0.5"/>
<path d="M7.99219 94.1807L1.24121 98.7217L0.666016 99.6904L0.0605469 100.659V102.021V103.384L0.666016 104.383L1.27148 105.382L19.375 117.37C29.3047 123.97 46.1367 135.141 56.7627 142.194L76.1074 155H76.834H77.5605V142.648V130.327L76.5918 129.994C76.0469 129.843 62 120.67 45.4102 109.65C28.79 98.6309 15.1064 89.6094 14.9854 89.6396C14.834 89.6396 11.7158 91.6982 7.99219 94.1807Z" fill="#36AEAE" fill-opacity="0.5"/>
<path d="M110.074 85.25L79.8311 105.382L78.5596 105.715L77.2578 106.078V118.369V130.69L78.1963 130.539L79.1348 130.388L92.5156 121.548C99.8418 116.704 116.674 105.563 129.843 96.7842L153.85 80.8604L154.455 79.8613L155.061 78.8623V77.5V76.1377L154.455 75.1689L153.88 74.2002L147.099 69.6592L140.317 65.1484L110.074 85.25Z" fill="#26C2BB" fill-opacity="0.5"/>
<path d="M0.152344 77.8027C0.152344 78.5596 0.212891 78.8623 0.273438 78.4687C0.333984 78.1055 0.333984 77.5 0.273438 77.1064C0.212891 76.7431 0.152344 77.0459 0.152344 77.8027Z" fill="#26C2BB" fill-opacity="0.5"/>
<path d="M7.87109 69.7803L1.27148 74.1396L0.666016 75.1387L0.0605469 76.1377V77.5V78.8623L0.666016 79.8311L1.24121 80.7998L25.248 96.7842C38.4473 105.533 55.2793 116.734 62.666 121.608L76.1074 130.479H76.834H77.5605V118.218V105.987L76.5615 105.715C76.0469 105.563 62 96.4209 45.4102 85.4014C28.8203 74.4121 15.0459 65.3906 14.834 65.4209C14.6221 65.4209 11.4736 67.3887 7.87109 69.7803Z" fill="#37DCD4" fill-opacity="0.5"/>
<path d="M154.758 76.2891C154.758 76.501 154.849 76.5918 154.97 76.501C155.061 76.3799 155.061 76.1983 154.97 76.0772C154.849 75.9864 154.758 76.0772 154.758 76.2891Z" fill="#FE8859" fill-opacity="0.5"/>
<path d="M77.5605 29.5167V34.5118L95.6641 46.5303L113.737 58.5186L115.402 58.6397L117.067 58.7608L118.066 58.1251L119.065 57.5196L119.641 56.2178C119.974 55.5215 120.246 54.6739 120.246 54.3409C120.246 54.0079 119.974 53.1602 119.641 52.4337L119.065 51.1319L99.751 38.3262C89.125 31.2725 80.0127 25.3087 79.4678 25.0362C78.9229 24.7335 78.2871 24.5215 78.0146 24.5215H77.5605V29.5167Z" fill="#23C5BE" fill-opacity="0.5"/>
<path d="M77.5605 54.0381V59.0332L86.4307 64.9366C91.2744 68.1456 95.6338 70.9004 96.1182 70.9913C98.1768 71.5059 100.811 70.0225 101.477 67.9336L101.84 66.8741L101.658 65.8448C101.537 65.2696 101.083 64.3614 100.629 63.8467C100.175 63.3018 95.4219 59.9415 90.0029 56.3995C84.6143 52.8272 79.8311 49.7393 79.3467 49.4971C78.8926 49.2549 78.2871 49.043 78.0146 49.043H77.5605V54.0381Z" fill="#23C5BE" fill-opacity="0.5"/>
<path d="M15.3487 65.6934C15.4395 65.8447 15.5909 65.9961 15.6817 65.9961C15.7725 65.9961 15.7423 65.8447 15.6515 65.6934C15.5606 65.5117 15.4093 65.3906 15.3184 65.3906C15.2276 65.3906 15.2579 65.5117 15.3487 65.6934Z" fill="#ECBBA6" fill-opacity="0.5"/>
<path d="M8.95996 69.084L8.74805 69.417L9.08105 69.2051C9.44434 68.9932 9.56543 68.7207 9.32324 68.7207C9.23242 68.7207 9.08105 68.8721 8.95996 69.084Z" fill="#ECBBA6" fill-opacity="0.5"/>
<path d="M8.05176 69.6895L7.83984 70.0225L8.17285 69.8105C8.53613 69.5986 8.65723 69.3262 8.41504 69.3262C8.32422 69.3262 8.17285 69.4775 8.05176 69.6895Z" fill="#ECBBA6" fill-opacity="0.5"/>
<path d="M7.14355 70.2949L6.93164 70.6279L7.26465 70.416C7.62793 70.2041 7.74902 69.9316 7.50684 69.9316C7.41602 69.9316 7.26465 70.083 7.14355 70.2949Z" fill="#ECBBA6" fill-opacity="0.5"/>
<path d="M6.23535 70.9004L6.02344 71.2334L6.35645 71.0215C6.71973 70.8096 6.84082 70.5371 6.59863 70.5371C6.50781 70.5371 6.35645 70.6885 6.23535 70.9004Z" fill="#ECBBA6" fill-opacity="0.5"/>
<path d="M5.32715 71.5059L5.11523 71.8389L5.44824 71.627C5.81152 71.415 5.93262 71.1426 5.69043 71.1426C5.59961 71.1426 5.44824 71.2939 5.32715 71.5059Z" fill="#ECBBA6" fill-opacity="0.5"/>
<path d="M4.41895 72.1113L4.20703 72.4443L4.54004 72.2324C4.90332 72.0205 5.02441 71.748 4.78223 71.748C4.69141 71.748 4.54004 71.8994 4.41895 72.1113Z" fill="#ECBBA6" fill-opacity="0.5"/>
<path d="M3.51074 72.7168L3.29883 73.0498L3.63184 72.8379C3.99512 72.626 4.11621 72.3535 3.87402 72.3535C3.7832 72.3535 3.63184 72.5049 3.51074 72.7168Z" fill="#ECBBA6" fill-opacity="0.5"/>
<path d="M2.60254 73.3223L2.39062 73.6553L2.72363 73.4434C3.08691 73.2314 3.20801 72.959 2.96582 72.959C2.875 72.959 2.72363 73.1104 2.60254 73.3223Z" fill="#ECBBA6" fill-opacity="0.5"/>
<path d="M1.24219 74.3818L0.515625 75.2295L1.36328 74.5029C1.81738 74.0791 2.18066 73.7158 2.18066 73.6553C2.18066 73.4131 1.93848 73.625 1.24219 74.3818Z" fill="#ECBBA6" fill-opacity="0.5"/>
<path d="M0.0605469 76.2891C0.0605469 76.501 0.151367 76.5918 0.272461 76.501C0.363281 76.3799 0.363281 76.1983 0.272461 76.0772C0.151367 75.9864 0.0605469 76.0772 0.0605469 76.2891Z" fill="#ECBBA6" fill-opacity="0.5"/>
<path d="M154.758 76.2891C154.758 76.501 154.849 76.5918 154.97 76.501C155.061 76.3799 155.061 76.1983 154.97 76.0772C154.849 75.9864 154.758 76.0772 154.758 76.2891Z" fill="#ECBBA6" fill-opacity="0.5"/>
<path d="M0.0605469 78.711C0.0605469 78.9229 0.151367 79.0137 0.272461 78.9229C0.363281 78.8018 0.363281 78.6201 0.272461 78.4991C0.151367 78.4082 0.0605469 78.4991 0.0605469 78.711Z" fill="#ECBBA6" fill-opacity="0.5"/>
<path d="M1.27102 80.6787C1.66457 81.1025 2.05813 81.4355 2.11867 81.4355C2.2095 81.4355 1.96731 81.1025 1.57375 80.6787C1.1802 80.2549 0.786643 79.9219 0.726097 79.9219C0.635276 79.9219 0.877464 80.2549 1.27102 80.6787Z" fill="#ECBBA6" fill-opacity="0.5"/>
<path d="M153.062 81.1934L152.85 81.5264L153.183 81.3145C153.546 81.1025 153.667 80.8301 153.425 80.8301C153.334 80.8301 153.183 80.9814 153.062 81.1934Z" fill="#ECBBA6" fill-opacity="0.5"/>
<path d="M2.63388 81.7383C2.7247 81.8896 2.87606 82.041 2.96689 82.041C3.05771 82.041 3.02743 81.8896 2.93661 81.7383C2.84579 81.5566 2.69442 81.4355 2.6036 81.4355C2.51278 81.4355 2.54306 81.5566 2.63388 81.7383Z" fill="#ECBBA6" fill-opacity="0.5"/>
<path d="M3.54208 82.3438C3.6329 82.4951 3.78427 82.6465 3.87509 82.6465C3.96591 82.6465 3.93564 82.4951 3.84481 82.3438C3.75399 82.1621 3.60263 82.041 3.51181 82.041C3.42099 82.041 3.45126 82.1621 3.54208 82.3438Z" fill="#ECBBA6" fill-opacity="0.5"/>
<path d="M4.45028 82.9492C4.5411 83.1006 4.69247 83.252 4.78329 83.252C4.87411 83.252 4.84384 83.1006 4.75302 82.9492C4.6622 82.7676 4.51083 82.6465 4.42001 82.6465C4.32919 82.6465 4.35946 82.7676 4.45028 82.9492Z" fill="#ECBBA6" fill-opacity="0.5"/>
<path d="M5.35849 83.5547C5.44931 83.7061 5.60067 83.8574 5.69149 83.8574C5.78232 83.8574 5.75204 83.7061 5.66122 83.5547C5.5704 83.373 5.41903 83.252 5.32821 83.252C5.23739 83.252 5.26767 83.373 5.35849 83.5547Z" fill="#ECBBA6" fill-opacity="0.5"/>
<path d="M42.2921 83.5547C42.3829 83.7061 42.5343 83.8574 42.6251 83.8574C42.7159 83.8574 42.6856 83.7061 42.5948 83.5547C42.504 83.373 42.3526 83.252 42.2618 83.252C42.171 83.252 42.2013 83.373 42.2921 83.5547Z" fill="#ECBBA6" fill-opacity="0.5"/>
<path d="M6.26669 84.1602C6.35751 84.3115 6.50888 84.4629 6.5997 84.4629C6.69052 84.4629 6.66024 84.3115 6.56942 84.1602C6.4786 83.9785 6.32724 83.8574 6.23642 83.8574C6.1456 83.8574 6.17587 83.9785 6.26669 84.1602Z" fill="#ECBBA6" fill-opacity="0.5"/>
<path d="M43.2003 84.1602C43.2911 84.3115 43.4425 84.4629 43.5333 84.4629C43.6241 84.4629 43.5938 84.3115 43.503 84.1602C43.4122 83.9785 43.2608 83.8574 43.17 83.8574C43.0792 83.8574 43.1095 83.9785 43.2003 84.1602Z" fill="#ECBBA6" fill-opacity="0.5"/>
<path d="M7.17489 84.7656C7.26571 84.917 7.41708 85.0684 7.5079 85.0684C7.59872 85.0684 7.56845 84.917 7.47763 84.7656C7.38681 84.584 7.23544 84.4629 7.14462 84.4629C7.0538 84.4629 7.08407 84.584 7.17489 84.7656Z" fill="#ECBBA6" fill-opacity="0.5"/>
<path d="M44.1085 84.7656C44.1993 84.917 44.3507 85.0684 44.4415 85.0684C44.5323 85.0684 44.502 84.917 44.4112 84.7656C44.3204 84.584 44.169 84.4629 44.0782 84.4629C43.9874 84.4629 44.0177 84.584 44.1085 84.7656Z" fill="#ECBBA6" fill-opacity="0.5"/>
<path d="M8.0831 85.3711C8.17392 85.5225 8.32528 85.6738 8.4161 85.6738C8.50692 85.6738 8.47665 85.5225 8.38583 85.3711C8.29501 85.1895 8.14364 85.0684 8.05282 85.0684C7.962 85.0684 7.99228 85.1895 8.0831 85.3711Z" fill="#ECBBA6" fill-opacity="0.5"/>
<path d="M45.0167 85.3711C45.1075 85.5225 45.2589 85.6738 45.3497 85.6738C45.4405 85.6738 45.4102 85.5225 45.3194 85.3711C45.2286 85.1895 45.0772 85.0684 44.9864 85.0684C44.8956 85.0684 44.9259 85.1895 45.0167 85.3711Z" fill="#ECBBA6" fill-opacity="0.5"/>
<path d="M45.9249 85.9766C46.0157 86.1279 46.1671 86.2793 46.2579 86.2793C46.3487 86.2793 46.3184 86.1279 46.2276 85.9766C46.1368 85.7949 45.9854 85.6738 45.8946 85.6738C45.8038 85.6738 45.8341 85.7949 45.9249 85.9766Z" fill="#ECBBA6" fill-opacity="0.5"/>
<path d="M46.8331 86.582C46.9239 86.7334 47.0753 86.8848 47.1661 86.8848C47.2569 86.8848 47.2267 86.7334 47.1358 86.582C47.045 86.4004 46.8936 86.2793 46.8028 86.2793C46.712 86.2793 46.7423 86.4004 46.8331 86.582Z" fill="#ECBBA6" fill-opacity="0.5"/>
<path d="M47.7413 87.1875C47.8321 87.3389 47.9835 87.4902 48.0743 87.4902C48.1651 87.4902 48.1349 87.3389 48.044 87.1875C47.9532 87.0059 47.8018 86.8848 47.711 86.8848C47.6202 86.8848 47.6505 87.0059 47.7413 87.1875Z" fill="#ECBBA6" fill-opacity="0.5"/>
<path d="M48.6495 87.793C48.7403 87.9443 48.8917 88.0957 48.9825 88.0957C49.0733 88.0957 49.0431 87.9443 48.9522 87.793C48.8614 87.6113 48.71 87.4902 48.6192 87.4902C48.5284 87.4902 48.5587 87.6113 48.6495 87.793Z" fill="#ECBBA6" fill-opacity="0.5"/>
<path d="M49.5577 88.3984C49.6485 88.5498 49.7999 88.7012 49.8907 88.7012C49.9815 88.7012 49.9513 88.5498 49.8604 88.3984C49.7696 88.2168 49.6183 88.0957 49.5274 88.0957C49.4366 88.0957 49.4669 88.2168 49.5577 88.3984Z" fill="#ECBBA6" fill-opacity="0.5"/>
<path d="M50.4659 89.0039C50.5567 89.1553 50.7081 89.3066 50.7989 89.3066C50.8897 89.3066 50.8595 89.1553 50.7686 89.0039C50.6778 88.8223 50.5265 88.7012 50.4356 88.7012C50.3448 88.7012 50.3751 88.8223 50.4659 89.0039Z" fill="#ECBBA6" fill-opacity="0.5"/>
<path d="M14.4405 89.6094C14.5313 89.7607 14.6827 89.9121 14.7735 89.9121C14.8643 89.9121 14.8341 89.7607 14.7433 89.6094C14.6524 89.4277 14.5011 89.3066 14.4102 89.3066C14.3194 89.3066 14.3497 89.4277 14.4405 89.6094Z" fill="#ECBBA6" fill-opacity="0.5"/>
<path d="M51.3741 89.6094C51.4649 89.7607 51.6163 89.9121 51.7071 89.9121C51.7979 89.9121 51.7677 89.7607 51.6768 89.6094C51.586 89.4277 51.4347 89.3066 51.3438 89.3066C51.253 89.3066 51.2833 89.4277 51.3741 89.6094Z" fill="#ECBBA6" fill-opacity="0.5"/>
<path d="M52.2823 90.2148C52.3731 90.3662 52.5245 90.5176 52.6153 90.5176C52.7061 90.5176 52.6759 90.3662 52.585 90.2148C52.4942 90.0332 52.3429 89.9121 52.252 89.9121C52.1612 89.9121 52.1915 90.0332 52.2823 90.2148Z" fill="#ECBBA6" fill-opacity="0.5"/>
<path d="M76.1366 105.866C76.2577 105.957 76.4394 105.957 76.5605 105.866C76.6513 105.745 76.5605 105.654 76.3485 105.654C76.1366 105.654 76.0458 105.745 76.1366 105.866Z" fill="#ECBBA6" fill-opacity="0.5"/>
<path d="M25.9445 97.1777C26.0353 97.3291 26.1867 97.4805 26.2775 97.4805C26.3683 97.4805 26.338 97.3291 26.2472 97.1777C26.1564 96.9961 26.005 96.875 25.9142 96.875C25.8234 96.875 25.8537 96.9961 25.9445 97.1777Z" fill="#C97896" fill-opacity="0.5"/>
<path d="M62.8781 121.699C62.9689 121.851 63.1203 122.002 63.2111 122.002C63.3019 122.002 63.2716 121.851 63.1808 121.699C63.09 121.518 62.9386 121.396 62.8478 121.396C62.757 121.396 62.7873 121.518 62.8781 121.699Z" fill="#C97896" fill-opacity="0.5"/>
<path d="M76.4413 130.388C76.5624 130.479 76.7441 130.479 76.8651 130.388C76.956 130.267 76.8651 130.176 76.6532 130.176C76.4413 130.176 76.3505 130.267 76.4413 130.388Z" fill="#C97896" fill-opacity="0.5"/>
<path d="M139.44 90.2754L139.228 90.6084L139.561 90.3965C139.925 90.1846 140.046 89.9121 139.804 89.9121C139.713 89.9121 139.561 90.0635 139.44 90.2754Z" fill="#BA4F7A" fill-opacity="0.5"/>
<path d="M138.532 90.8809L138.32 91.2139L138.653 91.002C138.865 90.8809 139.017 90.7295 139.017 90.6387C139.017 90.3965 138.744 90.5176 138.532 90.8809Z" fill="#BA4F7A" fill-opacity="0.5"/>
<path d="M137.624 91.4863L137.412 91.8193L137.745 91.6074C137.957 91.4863 138.108 91.335 138.108 91.2441C138.108 91.002 137.836 91.123 137.624 91.4863Z" fill="#BA4F7A" fill-opacity="0.5"/>
<path d="M136.716 92.0918L136.504 92.4248L136.837 92.2129C137.2 92.001 137.321 91.7285 137.079 91.7285C136.988 91.7285 136.837 91.8799 136.716 92.0918Z" fill="#BA4F7A" fill-opacity="0.5"/>
<path d="M135.808 92.6973L135.596 93.0303L135.929 92.8184C136.141 92.6973 136.292 92.5459 136.292 92.4551C136.292 92.2129 136.019 92.334 135.808 92.6973Z" fill="#BA4F7A" fill-opacity="0.5"/>
<path d="M134.899 93.3027L134.687 93.6357L135.02 93.4238C135.232 93.3027 135.384 93.1514 135.384 93.0605C135.384 92.8184 135.111 92.9395 134.899 93.3027Z" fill="#BA4F7A" fill-opacity="0.5"/>
<path d="M106.14 112.375L105.928 112.708L106.261 112.496C106.473 112.375 106.624 112.224 106.624 112.133C106.624 111.891 106.352 112.012 106.14 112.375Z" fill="#BA4F7A" fill-opacity="0.5"/>
<path d="M105.231 112.98L105.019 113.313L105.352 113.102C105.564 112.98 105.716 112.829 105.716 112.738C105.716 112.496 105.443 112.617 105.231 112.98Z" fill="#BA4F7A" fill-opacity="0.5"/>
<path d="M104.323 113.586L104.111 113.919L104.444 113.707C104.656 113.586 104.808 113.435 104.808 113.344C104.808 113.102 104.535 113.223 104.323 113.586Z" fill="#BA4F7A" fill-opacity="0.5"/>
<path d="M103.415 114.191L103.203 114.524L103.536 114.312C103.748 114.191 103.899 114.04 103.899 113.949C103.899 113.707 103.627 113.828 103.415 114.191Z" fill="#BA4F7A" fill-opacity="0.5"/>
<path d="M102.507 114.797L102.295 115.13L102.628 114.918C102.84 114.797 102.991 114.646 102.991 114.555C102.991 114.312 102.719 114.434 102.507 114.797Z" fill="#BA4F7A" fill-opacity="0.5"/>
<path d="M101.599 115.402L101.387 115.735L101.72 115.523C102.083 115.312 102.204 115.039 101.962 115.039C101.871 115.039 101.72 115.19 101.599 115.402Z" fill="#BA4F7A" fill-opacity="0.5"/>
<path d="M100.69 116.008L100.478 116.341L100.811 116.129C101.023 116.008 101.175 115.856 101.175 115.766C101.175 115.523 100.902 115.645 100.69 116.008Z" fill="#BA4F7A" fill-opacity="0.5"/>
<path d="M99.7822 116.613L99.5703 116.946L99.9033 116.734C100.267 116.522 100.388 116.25 100.145 116.25C100.055 116.25 99.9033 116.401 99.7822 116.613Z" fill="#BA4F7A" fill-opacity="0.5"/>
<path d="M98.874 117.219L98.6621 117.552L98.9951 117.34C99.3584 117.128 99.4794 116.855 99.2373 116.855C99.1464 116.855 98.9951 117.007 98.874 117.219Z" fill="#BA4F7A" fill-opacity="0.5"/>
<path d="M78.5605 130.388C78.6816 130.479 78.8632 130.479 78.9843 130.388C79.0751 130.267 78.9843 130.176 78.7724 130.176C78.5605 130.176 78.4696 130.267 78.5605 130.388Z" fill="#BA4F7A" fill-opacity="0.5"/>
<path d="M97.2598 29.0791V41.1279L96.3818 41.3096C95.9277 41.4004 86.5732 47.4248 75.6445 54.6602L55.7549 67.8594L55.1797 69.1309C54.8467 69.8574 54.5742 70.8262 54.5742 71.3408C54.5742 71.8252 54.8467 72.8242 55.1797 73.5205L55.7549 74.8223L56.7539 75.4277L57.7529 76.0635L59.7207 75.9727L61.6885 75.8516L79.3379 64.1357C89.0557 57.6875 97.0479 52.4199 97.1387 52.4199C97.1992 52.4199 97.2598 55.3867 97.2598 59.0498V65.6494L96.3818 65.8311C95.2617 66.0732 75.6445 79.0303 74.3428 80.4229L73.374 81.4219L73.1621 82.5117C72.8896 84.1162 73.2529 85.5996 74.2822 86.7803C74.7666 87.3252 75.6748 87.9609 76.2803 88.1729L77.3398 88.5059L78.7021 88.3545L80.0342 88.2031L88.5107 82.5723C93.1426 79.4844 97.0176 76.9414 97.1084 76.9414C97.1992 76.9414 97.2598 87.3555 97.2598 100.101V123.26H97.8652C98.1982 123.26 98.9248 123.078 99.4697 122.836C100.59 122.382 160.198 82.8447 160.683 82.2393C160.834 82.0273 163.892 79.9385 167.434 77.5771L173.882 73.2783L174.457 72.3096L175.062 71.3408V69.9785V68.6162L174.457 67.6172L173.852 66.6182L155.748 54.6299C145.818 48.0303 128.986 36.8594 118.36 29.8057L99.0156 17H98.1377H97.2598V29.0791ZM99.167 42.3389C99.7119 42.6113 108.824 48.6055 119.45 55.6289L138.765 68.4648L139.4 69.8574L140.006 71.2803L139.431 72.6729L138.886 74.0654L137.826 74.7617L136.767 75.4883L135.404 75.3369L134.042 75.2158L115.969 63.2275L97.8652 51.209V46.5166C97.8652 43.9434 97.9258 41.8242 98.0166 41.8242C98.1377 41.8242 98.6221 42.0361 99.167 42.3389ZM99.0459 66.7998C100.832 67.708 118.936 79.7871 119.874 80.665C120.419 81.1797 121.024 82.0576 121.206 82.6025L121.539 83.6016L121.176 84.6611C120.752 85.9629 119.087 87.4463 117.785 87.6885C117.24 87.8096 116.423 87.749 115.999 87.5977C115.575 87.416 111.307 84.6914 106.554 81.5127L97.8652 75.7305V71.0381C97.8652 68.4648 97.9258 66.3457 98.0166 66.3457C98.1377 66.3457 98.5918 66.5576 99.0459 66.7998Z" fill="#39E7DF"/>
<path d="M20.1524 70.1299V71.3408L20.2735 70.6445C20.334 70.2812 20.334 69.7363 20.2735 69.4336C20.1826 69.1611 20.1221 69.4639 20.1524 70.1299Z" fill="#26D1CA"/>
<path d="M96.0166 17.2422C95.7441 17.3633 78.8213 28.5342 58.417 42.0967L21.3018 66.709L20.7871 67.4961C20.5146 67.9199 20.2119 68.8281 20.1211 69.5244L20 70.7959L20.5146 71.9463L21.0596 73.0664L28.0527 77.7285C31.8975 80.3018 34.9248 82.3906 34.7734 82.3906C34.5312 82.3906 55.874 96.6494 84.543 115.601L95.5928 122.927L96.6523 123.108L97.7119 123.29V99.5859V75.8818L88.7812 81.8457L79.8809 87.8398L78.8516 88.0215L77.8223 88.2334L76.6719 87.8701L75.5215 87.5371L74.583 86.4775C74.0986 85.9023 73.584 84.9639 73.4932 84.3887L73.2812 83.3291L73.6143 82.2998C73.7959 81.7549 74.3408 80.9375 74.7949 80.5137C75.249 80.0898 80.1836 76.6992 85.7539 72.9756L95.8955 66.2549L96.8037 66.2246L97.7119 66.1943V58.7773V51.3604L79.5479 63.4395L61.3838 75.5488L59.7188 75.6396L58.0537 75.7607L57.0547 75.125L56.0557 74.5195L55.4805 73.2178C55.1475 72.5215 54.875 71.6738 54.875 71.3408C54.875 71.0078 55.1475 70.1602 55.4805 69.4336L56.0557 68.1621L75.9756 54.9326L95.8955 41.7334L96.8037 41.7031L97.7119 41.6729L97.6211 29.3213L97.5605 17L97.0156 17.0303C96.7432 17.0303 96.2891 17.1211 96.0166 17.2422Z" fill="#48FFF7"/>
<path d="M98.5605 17.2119C98.6816 17.3027 98.8632 17.3027 98.9843 17.2119C99.0751 17.0908 98.9843 17 98.7724 17C98.5605 17 98.4696 17.0908 98.5605 17.2119Z" fill="#48FFF7"/>
<path d="M119.812 30.9258C119.902 31.0771 120.054 31.2285 120.145 31.2285C120.236 31.2285 120.205 31.0771 120.114 30.9258C120.024 30.7441 119.872 30.623 119.781 30.623C119.691 30.623 119.721 30.7441 119.812 30.9258Z" fill="#48FFF7"/>
<path d="M120.72 31.5312C120.811 31.6826 120.962 31.834 121.053 31.834C121.144 31.834 121.113 31.6826 121.023 31.5312C120.932 31.3496 120.78 31.2285 120.69 31.2285C120.599 31.2285 120.629 31.3496 120.72 31.5312Z" fill="#48FFF7"/>
<path d="M121.628 32.1367C121.719 32.2881 121.87 32.4395 121.961 32.4395C122.052 32.4395 122.022 32.2881 121.931 32.1367C121.84 31.9551 121.689 31.834 121.598 31.834C121.507 31.834 121.537 31.9551 121.628 32.1367Z" fill="#48FFF7"/>
<path d="M122.536 32.7422C122.627 32.8936 122.778 33.0449 122.869 33.0449C122.96 33.0449 122.93 32.8936 122.839 32.7422C122.748 32.5605 122.597 32.4395 122.506 32.4395C122.415 32.4395 122.445 32.5605 122.536 32.7422Z" fill="#48FFF7"/>
<path d="M123.444 33.3477C123.535 33.499 123.687 33.6504 123.777 33.6504C123.868 33.6504 123.838 33.499 123.747 33.3477C123.656 33.166 123.505 33.0449 123.414 33.0449C123.323 33.0449 123.354 33.166 123.444 33.3477Z" fill="#48FFF7"/>
<path d="M124.353 33.9531C124.444 34.1045 124.595 34.2559 124.686 34.2559C124.777 34.2559 124.746 34.1045 124.655 33.9531C124.565 33.7715 124.413 33.6504 124.322 33.6504C124.232 33.6504 124.262 33.7715 124.353 33.9531Z" fill="#48FFF7"/>
<path d="M125.261 34.5586C125.352 34.71 125.503 34.8613 125.594 34.8613C125.685 34.8613 125.654 34.71 125.564 34.5586C125.473 34.377 125.321 34.2559 125.231 34.2559C125.14 34.2559 125.17 34.377 125.261 34.5586Z" fill="#48FFF7"/>
<path d="M155.837 54.8418C155.928 54.9932 156.079 55.1445 156.17 55.1445C156.261 55.1445 156.231 54.9932 156.14 54.8418C156.049 54.6602 155.898 54.5391 155.807 54.5391C155.716 54.5391 155.746 54.6602 155.837 54.8418Z" fill="#48FFF7"/>
<path d="M156.745 55.4473C156.836 55.5986 156.987 55.75 157.078 55.75C157.169 55.75 157.139 55.5986 157.048 55.4473C156.957 55.2656 156.806 55.1445 156.715 55.1445C156.624 55.1445 156.654 55.2656 156.745 55.4473Z" fill="#48FFF7"/>
<path d="M157.653 56.0527C157.744 56.2041 157.896 56.3555 157.986 56.3555C158.077 56.3555 158.047 56.2041 157.956 56.0527C157.865 55.8711 157.714 55.75 157.623 55.75C157.532 55.75 157.563 55.8711 157.653 56.0527Z" fill="#48FFF7"/>
<path d="M158.562 56.6582C158.652 56.8096 158.804 56.9609 158.895 56.9609C158.986 56.9609 158.955 56.8096 158.864 56.6582C158.774 56.4766 158.622 56.3555 158.531 56.3555C158.441 56.3555 158.471 56.4766 158.562 56.6582Z" fill="#48FFF7"/>
<path d="M159.47 57.2637C159.561 57.415 159.712 57.5664 159.803 57.5664C159.894 57.5664 159.863 57.415 159.773 57.2637C159.682 57.082 159.53 56.9609 159.44 56.9609C159.349 56.9609 159.379 57.082 159.47 57.2637Z" fill="#48FFF7"/>
<path d="M160.378 57.8691C160.469 58.0205 160.62 58.1719 160.711 58.1719C160.802 58.1719 160.772 58.0205 160.681 57.8691C160.59 57.6875 160.439 57.5664 160.348 57.5664C160.257 57.5664 160.287 57.6875 160.378 57.8691Z" fill="#48FFF7"/>
<path d="M161.286 58.4746C161.377 58.626 161.528 58.7773 161.619 58.7773C161.71 58.7773 161.68 58.626 161.589 58.4746C161.498 58.293 161.347 58.1719 161.256 58.1719C161.165 58.1719 161.195 58.293 161.286 58.4746Z" fill="#48FFF7"/>
<path d="M173.093 66.3457C173.184 66.4971 173.335 66.6484 173.426 66.6484C173.517 66.6484 173.486 66.4971 173.396 66.3457C173.305 66.1641 173.153 66.043 173.063 66.043C172.972 66.043 173.002 66.1641 173.093 66.3457Z" fill="#48FFF7"/>
<path d="M174.001 67.2539C174.092 67.4053 174.243 67.5566 174.334 67.5566C174.425 67.5566 174.395 67.4053 174.304 67.2539C174.213 67.0723 174.062 66.9512 173.971 66.9512C173.88 66.9512 173.91 67.0723 174.001 67.2539Z" fill="#48FFF7"/>
<path d="M174.758 68.7675C174.758 68.9795 174.849 69.0703 174.97 68.9795C175.06 68.8584 175.06 68.6767 174.97 68.5556C174.849 68.4648 174.758 68.5556 174.758 68.7675Z" fill="#48FFF7"/>
<path d="M174.758 71.1894C174.758 71.4013 174.849 71.4922 174.97 71.4013C175.06 71.2802 175.06 71.0986 174.97 70.9775C174.849 70.8867 174.758 70.9775 174.758 71.1894Z" fill="#48FFF7"/>
<path d="M173.97 72.7637L173.758 73.0967L174.091 72.8848C174.303 72.7637 174.454 72.6123 174.454 72.5215C174.454 72.2793 174.182 72.4004 173.97 72.7637Z" fill="#48FFF7"/>
<path d="M173.063 73.6719L172.852 74.0049L173.185 73.793C173.548 73.5811 173.669 73.3086 173.427 73.3086C173.336 73.3086 173.185 73.46 173.063 73.6719Z" fill="#48FFF7"/>
<path d="M162.165 80.9375L161.953 81.2705L162.286 81.0586C162.498 80.9375 162.649 80.7861 162.649 80.6953C162.649 80.4531 162.377 80.5742 162.165 80.9375Z" fill="#48FFF7"/>
<path d="M161.255 81.543L161.043 81.876L161.376 81.6641C161.739 81.4521 161.86 81.1797 161.618 81.1797C161.527 81.1797 161.376 81.3311 161.255 81.543Z" fill="#48FFF7"/>
<path d="M160.349 82.1484L160.137 82.4814L160.47 82.2695C160.682 82.1484 160.833 81.9971 160.833 81.9062C160.833 81.6641 160.561 81.7852 160.349 82.1484Z" fill="#48FFF7"/>
<path d="M143.576 117.417C134.676 123.351 120.932 132.463 113.061 137.7L98.7109 147.176H97.9844H97.2578V159.588V172H98.0146C98.4688 172 99.1953 171.788 99.6797 171.546C100.406 171.183 168.612 125.984 172.578 123.26C173.274 122.775 174.122 121.928 174.455 121.383L175.061 120.384V118.991V117.599L174.364 116.569L173.698 115.54L167.038 111.09C163.375 108.668 160.257 106.67 160.075 106.64C159.924 106.64 152.477 111.514 143.576 117.417Z" fill="#1DA29C"/>
<path d="M20.1523 119.324C20.1523 120.081 20.2129 120.384 20.2734 119.99C20.334 119.627 20.334 119.021 20.2734 118.628C20.2129 118.265 20.1523 118.567 20.1523 119.324Z" fill="#1DA29C"/>
<path d="M27.9922 111.181L21.2412 115.722L20.666 116.69L20.0605 117.659V119.021V120.384L20.666 121.383L21.2715 122.382L39.375 134.37C49.3047 140.97 66.1367 152.141 76.7627 159.194L96.1074 172H96.834H97.5605V159.648V147.327L96.5918 146.994C96.0469 146.843 82 137.67 65.4102 126.65C48.79 115.631 35.1064 106.609 34.9854 106.64C34.834 106.64 31.7158 108.698 27.9922 111.181Z" fill="#36AEAE"/>
<path d="M130.074 102.25L99.8311 122.382L98.5596 122.715L97.2578 123.078V135.369V147.69L98.1963 147.539L99.1348 147.388L112.516 138.548C119.842 133.704 136.674 122.563 149.843 113.784L173.85 97.8604L174.455 96.8613L175.061 95.8623V94.5V93.1377L174.455 92.1689L173.88 91.2002L167.099 86.6592L160.317 82.1484L130.074 102.25Z" fill="#26C2BB"/>
<path d="M20.1523 94.8027C20.1523 95.5596 20.2129 95.8623 20.2734 95.4687C20.334 95.1055 20.334 94.5 20.2734 94.1064C20.2129 93.7431 20.1523 94.0459 20.1523 94.8027Z" fill="#26C2BB"/>
<path d="M27.8711 86.7803L21.2715 91.1396L20.666 92.1387L20.0605 93.1377V94.5V95.8623L20.666 96.8311L21.2412 97.7998L45.248 113.784C58.4473 122.533 75.2793 133.734 82.666 138.608L96.1074 147.479H96.834H97.5605V135.218V122.987L96.5615 122.715C96.0469 122.563 82 113.421 65.4102 102.401C48.8203 91.4121 35.0459 82.3906 34.834 82.4209C34.6221 82.4209 31.4736 84.3887 27.8711 86.7803Z" fill="#37DCD4"/>
<path d="M174.758 93.2891C174.758 93.501 174.849 93.5918 174.97 93.501C175.061 93.3799 175.061 93.1983 174.97 93.0772C174.849 92.9864 174.758 93.0772 174.758 93.2891Z" fill="#FE8859"/>
<path d="M97.5605 46.5167V51.5118L115.664 63.5303L133.737 75.5186L135.402 75.6397L137.067 75.7608L138.066 75.1251L139.065 74.5196L139.641 73.2178C139.974 72.5215 140.246 71.6739 140.246 71.3409C140.246 71.0079 139.974 70.1602 139.641 69.4337L139.065 68.1319L119.751 55.3262C109.125 48.2725 100.013 42.3087 99.4678 42.0362C98.9229 41.7335 98.2871 41.5215 98.0146 41.5215H97.5605V46.5167Z" fill="#23C5BE"/>
<path d="M97.5605 71.0381V76.0332L106.431 81.9366C111.274 85.1456 115.634 87.9004 116.118 87.9913C118.177 88.5059 120.811 87.0225 121.477 84.9336L121.84 83.8741L121.658 82.8448C121.537 82.2696 121.083 81.3614 120.629 80.8467C120.175 80.3018 115.422 76.9415 110.003 73.3995C104.614 69.8272 99.8311 66.7393 99.3467 66.4971C98.8926 66.2549 98.2871 66.043 98.0146 66.043H97.5605V71.0381Z" fill="#23C5BE"/>
<path d="M35.3487 82.6934C35.4395 82.8447 35.5909 82.9961 35.6817 82.9961C35.7725 82.9961 35.7423 82.8447 35.6515 82.6934C35.5606 82.5117 35.4093 82.3906 35.3184 82.3906C35.2276 82.3906 35.2579 82.5117 35.3487 82.6934Z" fill="#ECBBA6"/>
<path d="M28.96 86.084L28.748 86.417L29.0811 86.2051C29.4443 85.9932 29.5654 85.7207 29.3232 85.7207C29.2324 85.7207 29.0811 85.8721 28.96 86.084Z" fill="#ECBBA6"/>
<path d="M28.0518 86.6895L27.8398 87.0225L28.1729 86.8105C28.5361 86.5986 28.6572 86.3262 28.415 86.3262C28.3242 86.3262 28.1729 86.4775 28.0518 86.6895Z" fill="#ECBBA6"/>
<path d="M27.1436 87.2949L26.9316 87.6279L27.2646 87.416C27.6279 87.2041 27.749 86.9316 27.5068 86.9316C27.416 86.9316 27.2646 87.083 27.1436 87.2949Z" fill="#ECBBA6"/>
<path d="M26.2354 87.9004L26.0234 88.2334L26.3564 88.0215C26.7197 87.8096 26.8408 87.5371 26.5986 87.5371C26.5078 87.5371 26.3564 87.6885 26.2354 87.9004Z" fill="#ECBBA6"/>
<path d="M25.3271 88.5059L25.1152 88.8389L25.4482 88.627C25.8115 88.415 25.9326 88.1426 25.6904 88.1426C25.5996 88.1426 25.4482 88.2939 25.3271 88.5059Z" fill="#ECBBA6"/>
<path d="M24.4189 89.1113L24.207 89.4443L24.54 89.2324C24.9033 89.0205 25.0244 88.748 24.7822 88.748C24.6914 88.748 24.54 88.8994 24.4189 89.1113Z" fill="#ECBBA6"/>
<path d="M23.5107 89.7168L23.2988 90.0498L23.6318 89.8379C23.9951 89.626 24.1162 89.3535 23.874 89.3535C23.7832 89.3535 23.6318 89.5049 23.5107 89.7168Z" fill="#ECBBA6"/>
<path d="M22.6025 90.3223L22.3906 90.6553L22.7236 90.4434C23.0869 90.2314 23.208 89.959 22.9658 89.959C22.875 89.959 22.7236 90.1104 22.6025 90.3223Z" fill="#ECBBA6"/>
<path d="M21.2422 91.3818L20.5156 92.2295L21.3633 91.5029C21.8174 91.0791 22.1807 90.7158 22.1807 90.6553C22.1807 90.4131 21.9385 90.625 21.2422 91.3818Z" fill="#ECBBA6"/>
<path d="M20.0605 93.2891C20.0605 93.501 20.1514 93.5918 20.2725 93.501C20.3633 93.3799 20.3633 93.1983 20.2725 93.0772C20.1514 92.9864 20.0605 93.0772 20.0605 93.2891Z" fill="#ECBBA6"/>
<path d="M174.758 93.2891C174.758 93.501 174.849 93.5918 174.97 93.501C175.061 93.3799 175.061 93.1983 174.97 93.0772C174.849 92.9864 174.758 93.0772 174.758 93.2891Z" fill="#ECBBA6"/>
<path d="M20.0605 95.711C20.0605 95.9229 20.1514 96.0137 20.2725 95.9229C20.3633 95.8018 20.3633 95.6201 20.2725 95.4991C20.1514 95.4082 20.0605 95.4991 20.0605 95.711Z" fill="#ECBBA6"/>
<path d="M21.271 97.6787C21.6646 98.1025 22.0581 98.4355 22.1187 98.4355C22.2095 98.4355 21.9673 98.1025 21.5738 97.6787C21.1802 97.2549 20.7866 96.9219 20.7261 96.9219C20.6353 96.9219 20.8775 97.2549 21.271 97.6787Z" fill="#ECBBA6"/>
<path d="M173.062 98.1934L172.85 98.5264L173.183 98.3145C173.546 98.1025 173.667 97.8301 173.425 97.8301C173.334 97.8301 173.183 97.9814 173.062 98.1934Z" fill="#ECBBA6"/>
<path d="M22.6339 98.7383C22.7247 98.8896 22.8761 99.041 22.9669 99.041C23.0577 99.041 23.0274 98.8896 22.9366 98.7383C22.8458 98.5566 22.6944 98.4355 22.6036 98.4355C22.5128 98.4355 22.5431 98.5566 22.6339 98.7383Z" fill="#ECBBA6"/>
<path d="M23.5421 99.3438C23.6329 99.4951 23.7843 99.6465 23.8751 99.6465C23.9659 99.6465 23.9356 99.4951 23.8448 99.3438C23.754 99.1621 23.6026 99.041 23.5118 99.041C23.421 99.041 23.4513 99.1621 23.5421 99.3438Z" fill="#ECBBA6"/>
<path d="M24.4503 99.9492C24.5411 100.101 24.6925 100.252 24.7833 100.252C24.8741 100.252 24.8438 100.101 24.753 99.9492C24.6622 99.7676 24.5108 99.6465 24.42 99.6465C24.3292 99.6465 24.3595 99.7676 24.4503 99.9492Z" fill="#ECBBA6"/>
<path d="M25.3585 100.555C25.4493 100.706 25.6007 100.857 25.6915 100.857C25.7823 100.857 25.752 100.706 25.6612 100.555C25.5704 100.373 25.419 100.252 25.3282 100.252C25.2374 100.252 25.2677 100.373 25.3585 100.555Z" fill="#ECBBA6"/>
<path d="M62.2921 100.555C62.3829 100.706 62.5343 100.857 62.6251 100.857C62.7159 100.857 62.6856 100.706 62.5948 100.555C62.504 100.373 62.3526 100.252 62.2618 100.252C62.171 100.252 62.2013 100.373 62.2921 100.555Z" fill="#ECBBA6"/>
<path d="M26.2667 101.16C26.3575 101.312 26.5089 101.463 26.5997 101.463C26.6905 101.463 26.6602 101.312 26.5694 101.16C26.4786 100.979 26.3272 100.857 26.2364 100.857C26.1456 100.857 26.1759 100.979 26.2667 101.16Z" fill="#ECBBA6"/>
<path d="M63.2003 101.16C63.2911 101.312 63.4425 101.463 63.5333 101.463C63.6241 101.463 63.5938 101.312 63.503 101.16C63.4122 100.979 63.2608 100.857 63.17 100.857C63.0792 100.857 63.1095 100.979 63.2003 101.16Z" fill="#ECBBA6"/>
<path d="M27.1749 101.766C27.2657 101.917 27.4171 102.068 27.5079 102.068C27.5987 102.068 27.5684 101.917 27.4776 101.766C27.3868 101.584 27.2354 101.463 27.1446 101.463C27.0538 101.463 27.0841 101.584 27.1749 101.766Z" fill="#ECBBA6"/>
<path d="M64.1085 101.766C64.1993 101.917 64.3507 102.068 64.4415 102.068C64.5323 102.068 64.502 101.917 64.4112 101.766C64.3204 101.584 64.169 101.463 64.0782 101.463C63.9874 101.463 64.0177 101.584 64.1085 101.766Z" fill="#ECBBA6"/>
<path d="M28.0831 102.371C28.1739 102.522 28.3253 102.674 28.4161 102.674C28.5069 102.674 28.4767 102.522 28.3858 102.371C28.295 102.189 28.1436 102.068 28.0528 102.068C27.962 102.068 27.9923 102.189 28.0831 102.371Z" fill="#ECBBA6"/>
<path d="M65.0167 102.371C65.1075 102.522 65.2589 102.674 65.3497 102.674C65.4405 102.674 65.4102 102.522 65.3194 102.371C65.2286 102.189 65.0772 102.068 64.9864 102.068C64.8956 102.068 64.9259 102.189 65.0167 102.371Z" fill="#ECBBA6"/>
<path d="M65.9249 102.977C66.0157 103.128 66.1671 103.279 66.2579 103.279C66.3487 103.279 66.3184 103.128 66.2276 102.977C66.1368 102.795 65.9854 102.674 65.8946 102.674C65.8038 102.674 65.8341 102.795 65.9249 102.977Z" fill="#ECBBA6"/>
<path d="M66.8331 103.582C66.9239 103.733 67.0753 103.885 67.1661 103.885C67.2569 103.885 67.2267 103.733 67.1358 103.582C67.045 103.4 66.8936 103.279 66.8028 103.279C66.712 103.279 66.7423 103.4 66.8331 103.582Z" fill="#ECBBA6"/>
<path d="M67.7413 104.188C67.8321 104.339 67.9835 104.49 68.0743 104.49C68.1651 104.49 68.1349 104.339 68.044 104.188C67.9532 104.006 67.8018 103.885 67.711 103.885C67.6202 103.885 67.6505 104.006 67.7413 104.188Z" fill="#ECBBA6"/>
<path d="M68.6495 104.793C68.7403 104.944 68.8917 105.096 68.9825 105.096C69.0733 105.096 69.0431 104.944 68.9522 104.793C68.8614 104.611 68.71 104.49 68.6192 104.49C68.5284 104.49 68.5587 104.611 68.6495 104.793Z" fill="#ECBBA6"/>
<path d="M69.5577 105.398C69.6485 105.55 69.7999 105.701 69.8907 105.701C69.9815 105.701 69.9513 105.55 69.8604 105.398C69.7696 105.217 69.6183 105.096 69.5274 105.096C69.4366 105.096 69.4669 105.217 69.5577 105.398Z" fill="#ECBBA6"/>
<path d="M70.4659 106.004C70.5567 106.155 70.7081 106.307 70.7989 106.307C70.8897 106.307 70.8595 106.155 70.7686 106.004C70.6778 105.822 70.5265 105.701 70.4356 105.701C70.3448 105.701 70.3751 105.822 70.4659 106.004Z" fill="#ECBBA6"/>
<path d="M34.4405 106.609C34.5313 106.761 34.6827 106.912 34.7735 106.912C34.8643 106.912 34.8341 106.761 34.7433 106.609C34.6524 106.428 34.5011 106.307 34.4102 106.307C34.3194 106.307 34.3497 106.428 34.4405 106.609Z" fill="#ECBBA6"/>
<path d="M71.3741 106.609C71.4649 106.761 71.6163 106.912 71.7071 106.912C71.7979 106.912 71.7677 106.761 71.6768 106.609C71.586 106.428 71.4347 106.307 71.3438 106.307C71.253 106.307 71.2833 106.428 71.3741 106.609Z" fill="#ECBBA6"/>
<path d="M72.2823 107.215C72.3731 107.366 72.5245 107.518 72.6153 107.518C72.7061 107.518 72.6759 107.366 72.585 107.215C72.4942 107.033 72.3429 106.912 72.252 106.912C72.1612 106.912 72.1915 107.033 72.2823 107.215Z" fill="#ECBBA6"/>
<path d="M96.1366 122.866C96.2577 122.957 96.4394 122.957 96.5605 122.866C96.6513 122.745 96.5605 122.654 96.3485 122.654C96.1366 122.654 96.0458 122.745 96.1366 122.866Z" fill="#ECBBA6"/>
<path d="M45.9445 114.178C46.0353 114.329 46.1867 114.48 46.2775 114.48C46.3683 114.48 46.338 114.329 46.2472 114.178C46.1564 113.996 46.005 113.875 45.9142 113.875C45.8234 113.875 45.8537 113.996 45.9445 114.178Z" fill="#C97896"/>
<path d="M82.8781 138.699C82.9689 138.851 83.1203 139.002 83.2111 139.002C83.3019 139.002 83.2716 138.851 83.1808 138.699C83.09 138.518 82.9386 138.396 82.8478 138.396C82.757 138.396 82.7873 138.518 82.8781 138.699Z" fill="#C97896"/>
<path d="M96.4413 147.388C96.5624 147.479 96.7441 147.479 96.8651 147.388C96.956 147.267 96.8651 147.176 96.6532 147.176C96.4413 147.176 96.3505 147.267 96.4413 147.388Z" fill="#C97896"/>
<path d="M159.44 107.275L159.228 107.608L159.561 107.396C159.925 107.185 160.046 106.912 159.804 106.912C159.713 106.912 159.561 107.063 159.44 107.275Z" fill="#BA4F7A"/>
<path d="M158.532 107.881L158.32 108.214L158.653 108.002C158.865 107.881 159.017 107.729 159.017 107.639C159.017 107.396 158.744 107.518 158.532 107.881Z" fill="#BA4F7A"/>
<path d="M157.624 108.486L157.412 108.819L157.745 108.607C157.957 108.486 158.108 108.335 158.108 108.244C158.108 108.002 157.836 108.123 157.624 108.486Z" fill="#BA4F7A"/>
<path d="M156.716 109.092L156.504 109.425L156.837 109.213C157.2 109.001 157.321 108.729 157.079 108.729C156.988 108.729 156.837 108.88 156.716 109.092Z" fill="#BA4F7A"/>
<path d="M155.808 109.697L155.596 110.03L155.929 109.818C156.141 109.697 156.292 109.546 156.292 109.455C156.292 109.213 156.019 109.334 155.808 109.697Z" fill="#BA4F7A"/>
<path d="M154.899 110.303L154.687 110.636L155.02 110.424C155.232 110.303 155.384 110.151 155.384 110.061C155.384 109.818 155.111 109.939 154.899 110.303Z" fill="#BA4F7A"/>
<path d="M126.14 129.375L125.928 129.708L126.261 129.496C126.473 129.375 126.624 129.224 126.624 129.133C126.624 128.891 126.352 129.012 126.14 129.375Z" fill="#BA4F7A"/>
<path d="M125.231 129.98L125.019 130.313L125.352 130.102C125.564 129.98 125.716 129.829 125.716 129.738C125.716 129.496 125.443 129.617 125.231 129.98Z" fill="#BA4F7A"/>
<path d="M124.323 130.586L124.111 130.919L124.444 130.707C124.656 130.586 124.808 130.435 124.808 130.344C124.808 130.102 124.535 130.223 124.323 130.586Z" fill="#BA4F7A"/>
<path d="M123.415 131.191L123.203 131.524L123.536 131.312C123.748 131.191 123.899 131.04 123.899 130.949C123.899 130.707 123.627 130.828 123.415 131.191Z" fill="#BA4F7A"/>
<path d="M122.507 131.797L122.295 132.13L122.628 131.918C122.84 131.797 122.991 131.646 122.991 131.555C122.991 131.312 122.719 131.434 122.507 131.797Z" fill="#BA4F7A"/>
<path d="M121.599 132.402L121.387 132.735L121.72 132.523C122.083 132.312 122.204 132.039 121.962 132.039C121.871 132.039 121.72 132.19 121.599 132.402Z" fill="#BA4F7A"/>
<path d="M120.69 133.008L120.478 133.341L120.811 133.129C121.023 133.008 121.175 132.856 121.175 132.766C121.175 132.523 120.902 132.645 120.69 133.008Z" fill="#BA4F7A"/>
<path d="M119.782 133.613L119.57 133.946L119.903 133.734C120.267 133.522 120.388 133.25 120.145 133.25C120.055 133.25 119.903 133.401 119.782 133.613Z" fill="#BA4F7A"/>
<path d="M118.874 134.219L118.662 134.552L118.995 134.34C119.358 134.128 119.479 133.855 119.237 133.855C119.146 133.855 118.995 134.007 118.874 134.219Z" fill="#BA4F7A"/>
<path d="M98.5605 147.388C98.6816 147.479 98.8632 147.479 98.9843 147.388C99.0751 147.267 98.9843 147.176 98.7724 147.176C98.5605 147.176 98.4696 147.267 98.5605 147.388Z" fill="#BA4F7A"/>
</svg>
