<svg width="184" height="228" viewBox="0 0 184 228" fill="none" xmlns="http://www.w3.org/2000/svg">
<g opacity="0.7">
<g opacity="0.7">
<path opacity="0.7" d="M125.956 107.942L62.8382 138.322L0 107.942L62.8382 77.7919L125.956 107.942Z" fill="url(#paint0_linear_438_128)"/>
<path opacity="0.7" d="M125.956 98.2754L62.8382 128.426L0 98.2754L62.8382 68.1254L125.956 98.2754Z" fill="url(#paint1_linear_438_128)"/>
<path opacity="0.7" d="M125.956 98.2757L62.8383 0.230316V128.426L125.956 98.2757Z" fill="url(#paint2_linear_438_128)"/>
<path opacity="0.7" d="M0 98.2757L62.8383 0.230316V128.426L0 98.2757Z" fill="url(#paint3_linear_438_128)"/>
<path opacity="0.7" d="M125.956 107.942L62.8383 187.805V138.322L125.956 107.942Z" fill="url(#paint4_linear_438_128)"/>
<path opacity="0.7" d="M0 107.942L62.8383 187.805V138.322L0 107.942Z" fill="url(#paint5_linear_438_128)"/>
</g>
<g opacity="0.7">
<path opacity="0.7" d="M125.956 107.942L62.8382 138.092L0 107.942L62.8382 77.5616L125.956 107.942Z" fill="url(#paint6_linear_438_128)"/>
<path opacity="0.7" d="M125.956 98.0452L62.8382 128.425L0 98.0452L62.8382 67.8951L125.956 98.0452Z" fill="url(#paint7_linear_438_128)"/>
<path opacity="0.7" d="M125.956 98.0454L62.8383 0V128.426L125.956 98.0454Z" fill="url(#paint8_linear_438_128)"/>
<path opacity="0.7" d="M0 98.0454L62.8383 0V128.426L0 98.0454Z" fill="url(#paint9_linear_438_128)"/>
<path opacity="0.7" d="M125.956 107.942L62.8383 187.575V138.092L125.956 107.942Z" fill="url(#paint10_linear_438_128)"/>
<path opacity="0.7" d="M0 107.942L62.8383 187.575V138.092L0 107.942Z" fill="url(#paint11_linear_438_128)"/>
</g>
</g>
<path d="M183.999 130.834L107.997 167.301L31.6562 130.834L107.997 94.0897L183.999 130.834Z" fill="url(#paint12_linear_438_128)"/>
<path d="M183.999 118.864L107.997 155.609L31.6562 118.864L107.997 82.398L183.999 118.864Z" fill="url(#paint13_linear_438_128)"/>
<path opacity="0.7" d="M184 118.864L107.997 0.278778V155.609L184 118.864Z" fill="url(#paint14_linear_438_128)"/>
<path opacity="0.7" d="M31.6562 118.864L107.997 0.278778V155.609L31.6562 118.864Z" fill="url(#paint15_linear_438_128)"/>
<path opacity="0.7" d="M184 130.834L107.997 227.15V167.301L184 130.834Z" fill="url(#paint16_linear_438_128)"/>
<path opacity="0.7" d="M31.6562 130.834L107.997 227.15V167.301L31.6562 130.834Z" fill="url(#paint17_linear_438_128)"/>
<path d="M183.999 130.556L107.997 167.022L31.6562 130.556L107.997 93.8109L183.999 130.556Z" fill="url(#paint18_linear_438_128)"/>
<path d="M183.999 118.864L107.997 155.331L31.6562 118.864L107.997 82.1192L183.999 118.864Z" fill="url(#paint19_linear_438_128)"/>
<path opacity="0.7" d="M184 118.864L107.997 0V155.33L184 118.864Z" fill="url(#paint20_linear_438_128)"/>
<path opacity="0.7" d="M31.6562 118.864L107.997 0V155.33L31.6562 118.864Z" fill="url(#paint21_linear_438_128)"/>
<path opacity="0.7" d="M184 130.556L107.997 226.871V167.022L184 130.556Z" fill="url(#paint22_linear_438_128)"/>
<path opacity="0.7" d="M31.6562 130.556L107.997 226.871V167.022L31.6562 130.556Z" fill="url(#paint23_linear_438_128)"/>
<defs>
<linearGradient id="paint0_linear_438_128" x1="62.95" y1="138.267" x2="62.95" y2="77.7809" gradientUnits="userSpaceOnUse">
<stop stop-color="#4FA4FF"/>
<stop offset="1" stop-color="#1339E2"/>
</linearGradient>
<linearGradient id="paint1_linear_438_128" x1="62.95" y1="128.537" x2="62.95" y2="68.0503" gradientUnits="userSpaceOnUse">
<stop stop-color="#4F81FF"/>
<stop offset="1" stop-color="#1339E2"/>
</linearGradient>
<linearGradient id="paint2_linear_438_128" x1="56.5223" y1="61.2249" x2="127.292" y2="112.344" gradientUnits="userSpaceOnUse">
<stop stop-color="#4F24FF"/>
<stop offset="1" stop-color="#00FFE2"/>
</linearGradient>
<linearGradient id="paint3_linear_438_128" x1="-7.64537" y1="121.185" x2="51.4449" y2="50.9486" gradientUnits="userSpaceOnUse">
<stop stop-color="#4F24FF"/>
<stop offset="1" stop-color="#00FFE2"/>
</linearGradient>
<linearGradient id="paint4_linear_438_128" x1="50.4375" y1="171.319" x2="109.589" y2="113.158" gradientUnits="userSpaceOnUse">
<stop stop-color="#4F24FF"/>
<stop offset="1" stop-color="#00FFE2"/>
</linearGradient>
<linearGradient id="paint5_linear_438_128" x1="8.66199" y1="165.058" x2="43.0478" y2="126.779" gradientUnits="userSpaceOnUse">
<stop stop-color="#4F24FF"/>
<stop offset="1" stop-color="#00FFE2"/>
</linearGradient>
<linearGradient id="paint6_linear_438_128" x1="62.95" y1="138.099" x2="62.95" y2="77.6129" gradientUnits="userSpaceOnUse">
<stop stop-color="#4FA4FF"/>
<stop offset="1" stop-color="#1339E2"/>
</linearGradient>
<linearGradient id="paint7_linear_438_128" x1="62.95" y1="128.369" x2="62.95" y2="67.8824" gradientUnits="userSpaceOnUse">
<stop stop-color="#4F81FF"/>
<stop offset="1" stop-color="#1339E2"/>
</linearGradient>
<linearGradient id="paint8_linear_438_128" x1="56.5223" y1="61.057" x2="127.292" y2="112.176" gradientUnits="userSpaceOnUse">
<stop stop-color="#4F24FF"/>
<stop offset="1" stop-color="#00FFE2"/>
</linearGradient>
<linearGradient id="paint9_linear_438_128" x1="-7.64538" y1="121.017" x2="51.4449" y2="50.7806" gradientUnits="userSpaceOnUse">
<stop stop-color="#4F24FF"/>
<stop offset="1" stop-color="#00FFE2"/>
</linearGradient>
<linearGradient id="paint10_linear_438_128" x1="50.4375" y1="171.15" x2="109.589" y2="112.989" gradientUnits="userSpaceOnUse">
<stop stop-color="#4F24FF"/>
<stop offset="1" stop-color="#00FFE2"/>
</linearGradient>
<linearGradient id="paint11_linear_438_128" x1="8.66199" y1="164.89" x2="43.0478" y2="126.611" gradientUnits="userSpaceOnUse">
<stop stop-color="#4F24FF"/>
<stop offset="1" stop-color="#00FFE2"/>
</linearGradient>
<linearGradient id="paint12_linear_438_128" x1="107.896" y1="167.297" x2="107.896" y2="94.1392" gradientUnits="userSpaceOnUse">
<stop stop-color="#4FA4FF"/>
<stop offset="1" stop-color="#1339E2"/>
</linearGradient>
<linearGradient id="paint13_linear_438_128" x1="107.896" y1="155.528" x2="107.896" y2="82.3701" gradientUnits="userSpaceOnUse">
<stop stop-color="#4F81FF"/>
<stop offset="1" stop-color="#1339E2"/>
</linearGradient>
<linearGradient id="paint14_linear_438_128" x1="100.122" y1="74.1143" x2="185.717" y2="135.943" gradientUnits="userSpaceOnUse">
<stop stop-color="#4F24FF"/>
<stop offset="1" stop-color="#00FFE2"/>
</linearGradient>
<linearGradient id="paint15_linear_438_128" x1="22.5113" y1="146.636" x2="93.9808" y2="61.6852" gradientUnits="userSpaceOnUse">
<stop stop-color="#4F24FF"/>
<stop offset="1" stop-color="#00FFE2"/>
</linearGradient>
<linearGradient id="paint16_linear_438_128" x1="92.7626" y1="207.272" x2="164.306" y2="136.926" gradientUnits="userSpaceOnUse">
<stop stop-color="#4F24FF"/>
<stop offset="1" stop-color="#00FFE2"/>
</linearGradient>
<linearGradient id="paint17_linear_438_128" x1="42.2349" y1="199.701" x2="83.8234" y2="153.402" gradientUnits="userSpaceOnUse">
<stop stop-color="#4F24FF"/>
<stop offset="1" stop-color="#00FFE2"/>
</linearGradient>
<linearGradient id="paint18_linear_438_128" x1="107.896" y1="167.094" x2="107.896" y2="93.9359" gradientUnits="userSpaceOnUse">
<stop stop-color="#4FA4FF"/>
<stop offset="1" stop-color="#1339E2"/>
</linearGradient>
<linearGradient id="paint19_linear_438_128" x1="107.896" y1="155.325" x2="107.896" y2="82.1668" gradientUnits="userSpaceOnUse">
<stop stop-color="#4F81FF"/>
<stop offset="1" stop-color="#1339E2"/>
</linearGradient>
<linearGradient id="paint20_linear_438_128" x1="100.122" y1="73.9111" x2="185.718" y2="135.739" gradientUnits="userSpaceOnUse">
<stop stop-color="#4F24FF"/>
<stop offset="1" stop-color="#00FFE2"/>
</linearGradient>
<linearGradient id="paint21_linear_438_128" x1="22.5113" y1="146.433" x2="93.981" y2="61.482" gradientUnits="userSpaceOnUse">
<stop stop-color="#4F24FF"/>
<stop offset="1" stop-color="#00FFE2"/>
</linearGradient>
<linearGradient id="paint22_linear_438_128" x1="92.7626" y1="207.069" x2="164.306" y2="136.723" gradientUnits="userSpaceOnUse">
<stop stop-color="#4F24FF"/>
<stop offset="1" stop-color="#00FFE2"/>
</linearGradient>
<linearGradient id="paint23_linear_438_128" x1="42.2349" y1="199.497" x2="83.8235" y2="153.199" gradientUnits="userSpaceOnUse">
<stop stop-color="#4F24FF"/>
<stop offset="1" stop-color="#00FFE2"/>
</linearGradient>
</defs>
</svg>
