<svg width="169" height="229" viewBox="0 0 169 229" fill="none" xmlns="http://www.w3.org/2000/svg">
<path d="M52.9034 194.991L16.2773 179.139V162.334L52.9034 178.504V194.991Z" fill="#6EA6FF" fill-opacity="0.5"/>
<path d="M87.4974 179.456L52.9062 164.237L87.4974 162.652V179.456Z" fill="#6EA6FF" fill-opacity="0.5"/>
<path d="M59.8262 122.068V154.725L98.487 144.262L122.497 114.141L100.522 99.8737L59.8262 122.068Z" fill="url(#paint0_linear_438_132)" fill-opacity="0.5"/>
<path d="M59.8262 73.5577V101.776L105.812 85.606L113.137 57.7048L91.1617 53.583L59.8262 73.5577Z" fill="url(#paint1_linear_438_132)" fill-opacity="0.5"/>
<path d="M0 47.8759L16.6852 40.2664L52.9042 56.4364L36.2191 63.7288L0 47.8759Z" fill="#15FFFF" fill-opacity="0.5"/>
<path d="M87.496 40.9005L51.277 24.7306L34.5918 32.34L70.8109 48.1929L87.496 40.9005Z" fill="#15FFFF" fill-opacity="0.5"/>
<path d="M116.39 33.9252L81.7983 18.7063L70.8105 27.584L107.843 39.6322L116.39 33.9252Z" fill="#15FFFF" fill-opacity="0.5"/>
<path d="M16.6855 23.7795L52.9048 39.6325V56.4367L16.6855 40.2666V23.7795Z" fill="#6EA6FF" fill-opacity="0.5"/>
<path d="M51.2773 7.92627L87.4963 24.0963V40.9005L51.2773 24.7304V7.92627Z" fill="#6EA6FF" fill-opacity="0.5"/>
<path d="M69.1833 0L105.402 16.1701L87.4963 24.0966L51.2773 7.92652L69.1833 0Z" fill="#15FFFF" fill-opacity="0.5"/>
<path d="M34.5916 15.5355L70.8109 31.7056L52.9047 39.6322L16.6855 23.7791L34.5916 15.5355Z" fill="#15FFFF" fill-opacity="0.5"/>
<path d="M87.4939 179.456V162.651C84.2383 164.237 80.1687 165.822 76.0992 167.724L70.4018 170.261V187.065L52.4958 194.991V178.187L35.8105 185.48V63.4117L52.4958 56.1193V39.3152L70.4018 31.3887V48.1928L83.0175 42.4858C84.6453 41.8516 85.8661 41.2176 87.4939 40.5834V23.7793L105.4 15.8528V33.9252C109.47 32.974 113.132 32.974 116.388 33.9252C120.05 34.8763 122.899 36.7787 125.341 39.9493C127.783 43.1199 129.003 47.2417 129.003 52.6317C129.003 58.3388 127.376 64.3629 124.527 70.387C121.678 76.4111 117.609 81.8012 112.318 86.5571C119.643 85.6059 124.934 86.8741 129.003 90.3618C132.666 93.8494 134.701 99.2394 134.701 106.215C134.701 111.922 133.48 117.629 131.038 123.97C128.597 130.311 124.934 136.018 120.864 141.091C116.795 146.164 111.504 150.286 105.4 153.774V171.212L87.4939 179.456ZM59.8209 122.068V154.725L81.7965 144.896C90.3426 141.091 95.6331 138.238 98.0748 136.969C101.737 134.75 104.586 131.897 106.621 128.092C108.656 124.604 109.877 120.482 109.877 116.361C109.877 112.556 109.063 110.019 107.435 108.117C105.807 106.215 103.365 105.581 100.11 105.898C96.8539 106.215 89.9357 108.751 78.9479 113.507L59.8209 122.068ZM59.8209 73.5576V101.776L75.2852 94.8006C84.6452 90.6788 90.3427 87.8253 92.3774 86.5571C96.447 84.3376 99.7026 81.4841 102.144 77.9965C104.586 74.5088 105.807 70.7041 105.807 66.8994C105.807 63.0947 104.993 60.5582 102.958 58.9729C100.924 57.3876 98.0748 57.3876 94.0052 58.6558C91.5635 59.2899 85.0522 62.4605 73.6574 67.2164L59.8209 73.5576Z" fill="#03D7FB" fill-opacity="0.5"/>
<path d="M0 47.8759L36.2191 63.7289V185.797L0 169.944V47.8759Z" fill="#6EA6FF" fill-opacity="0.5"/>
<path d="M86.2003 228.289L49.5742 212.436V195.632L86.2003 211.802V228.289Z" fill="#6EA6FF"/>
<path d="M120.794 212.754L86.2031 197.535L120.794 195.949V212.754Z" fill="#6EA6FF"/>
<path d="M93.123 155.366V188.023L131.784 177.56L155.794 147.439L133.819 133.172L93.123 155.366Z" fill="url(#paint2_linear_438_132)"/>
<path d="M93.123 106.856V135.074L139.109 118.904L146.434 91.0026L124.459 86.8809L93.123 106.856Z" fill="url(#paint3_linear_438_132)"/>
<path d="M33.2969 81.1738L49.9821 73.5644L86.2011 89.7344L69.516 97.0268L33.2969 81.1738Z" fill="#15FFFF"/>
<path d="M120.793 74.1984L84.5739 58.0284L67.8887 65.6378L104.108 81.4907L120.793 74.1984Z" fill="#15FFFF"/>
<path d="M149.686 67.2233L115.095 52.0044L104.107 60.8821L141.14 72.9303L149.686 67.2233Z" fill="#15FFFF"/>
<path d="M49.9824 57.0774L86.2016 72.9304V89.7345L49.9824 73.5645V57.0774Z" fill="#6EA6FF"/>
<path d="M84.5742 41.2244L120.793 57.3944V74.1986L84.5742 58.0285V41.2244Z" fill="#6EA6FF"/>
<path d="M102.48 33.2979L138.699 49.468L120.793 57.3945L84.5742 41.2244L102.48 33.2979Z" fill="#15FFFF"/>
<path d="M67.8885 48.8335L104.108 65.0036L86.2015 72.9301L49.9824 57.0771L67.8885 48.8335Z" fill="#15FFFF"/>
<path d="M120.795 212.753V195.949C117.539 197.535 113.47 199.12 109.4 201.022L103.703 203.559V220.363L85.7966 228.289V211.485L69.1113 218.778V96.7097L85.7966 89.4173V72.6131L103.703 64.6867V81.4908L116.318 75.7837C117.946 75.1496 119.167 74.5155 120.795 73.8814V57.0772L138.701 49.1508V67.2231C142.77 66.272 146.433 66.272 149.689 67.2231C153.351 68.1743 156.2 70.0767 158.642 73.2473C161.083 76.4179 162.304 80.5397 162.304 85.9297C162.304 91.6367 160.676 97.6609 157.828 103.685C154.979 109.709 150.909 115.099 145.619 119.855C152.944 118.904 158.235 120.172 162.304 123.66C165.967 127.147 168.002 132.537 168.002 139.513C168.002 145.22 166.781 150.927 164.339 157.268C161.897 163.609 158.235 169.316 154.165 174.389C150.096 179.462 144.805 183.584 138.701 187.072V204.51L120.795 212.753ZM93.1217 155.366V188.023L115.097 178.194C123.643 174.389 128.934 171.536 131.376 170.267C135.038 168.048 137.887 165.195 139.922 161.39C141.956 157.902 143.177 153.78 143.177 149.659C143.177 145.854 142.363 143.317 140.736 141.415C139.108 139.513 136.666 138.879 133.41 139.196C130.155 139.513 123.237 142.049 112.249 146.805L93.1217 155.366ZM93.1217 106.856V135.074L108.586 128.099C117.946 123.977 123.643 121.123 125.678 119.855C129.748 117.636 133.003 114.782 135.445 111.294C137.887 107.807 139.108 104.002 139.108 100.197C139.108 96.3926 138.294 93.8562 136.259 92.2709C134.224 90.6856 131.376 90.6856 127.306 91.9538C124.864 92.5879 118.353 95.7585 106.958 100.514L93.1217 106.856Z" fill="#03D7FB"/>
<path d="M33.2969 81.1737L69.516 97.0267V219.095L33.2969 203.242V81.1737Z" fill="#6EA6FF"/>
<defs>
<linearGradient id="paint0_linear_438_132" x1="117.812" y1="117.86" x2="14.4165" y2="160.591" gradientUnits="userSpaceOnUse">
<stop stop-color="#4F66FF"/>
<stop offset="1" stop-color="#13FFE2"/>
</linearGradient>
<linearGradient id="paint1_linear_438_132" x1="109.851" y1="63.837" x2="29.1163" y2="131.664" gradientUnits="userSpaceOnUse">
<stop stop-color="#4F66FF"/>
<stop offset="1" stop-color="#13FFE2"/>
</linearGradient>
<linearGradient id="paint2_linear_438_132" x1="151.109" y1="151.158" x2="47.7134" y2="193.889" gradientUnits="userSpaceOnUse">
<stop stop-color="#4F66FF"/>
<stop offset="1" stop-color="#13FFE2"/>
</linearGradient>
<linearGradient id="paint3_linear_438_132" x1="143.148" y1="97.1349" x2="62.4132" y2="164.962" gradientUnits="userSpaceOnUse">
<stop stop-color="#4F66FF"/>
<stop offset="1" stop-color="#13FFE2"/>
</linearGradient>
</defs>
</svg>
