<svg width="207" height="188" viewBox="0 0 207 188" fill="none" xmlns="http://www.w3.org/2000/svg">
<path d="M85.2884 0.708418C85.1535 0.944575 85.1197 1.21447 85.221 1.31568C85.5246 1.61931 85.862 1.18073 85.6933 0.708418L85.5583 0.269841L85.2884 0.708418Z" fill="#C9D7E3" fill-opacity="0.5"/>
<path d="M91.834 3.10379C91.834 3.27248 92.0701 3.44116 92.3738 3.44116H92.8798L92.6774 3.10379C92.5762 2.90137 92.34 2.76643 92.1376 2.76643C91.9689 2.76643 91.834 2.90137 91.834 3.10379Z" fill="#C9D7E3" fill-opacity="0.5"/>
<g filter="url(#filter0_b_438_130)">
<path d="M78.3408 44.7685C72.6055 45.9156 67.5788 47.9735 62.7207 51.2122L59.347 53.4726L56.5806 56.2053C53.4431 59.3428 50.6767 63.0538 50.6767 64.1671V64.9431L58.4361 76.8184C62.7207 83.3633 66.1956 88.9299 66.1956 89.1998C66.1956 89.4697 65.8582 90.0094 65.4196 90.4143L64.6437 91.1565H54.4214H44.1992L44.4016 92.0674C44.5028 92.6072 44.6715 93.6867 44.8065 94.5302C45.1101 96.7568 46.8644 102.087 48.2139 104.921C49.5971 107.822 52.2286 111.837 54.5564 114.57C56.3107 116.594 61.6074 121.182 62.2146 121.182C62.3833 121.182 67.5788 117.91 73.7188 113.861L84.9194 106.574H85.8641C86.3701 106.574 87.0786 106.81 87.3822 107.148L87.9557 107.721L88.057 118.146L88.1582 128.604H89.2715C90.9246 128.604 96.0188 127.66 98.7515 126.884C102.294 125.838 108.198 122.869 111.369 120.507C114.743 118.011 118.083 114.705 120.343 111.601C121.254 110.386 122.097 109.374 122.232 109.374C122.367 109.374 123.278 110.623 124.256 112.141L126.044 114.907L126.179 114.435C126.281 114.165 126.179 113.895 125.977 113.828C125.741 113.76 125.572 113.49 125.572 113.22C125.572 112.95 125.437 112.748 125.235 112.748C125.066 112.748 124.897 112.512 124.897 112.242C124.897 111.972 124.763 111.736 124.56 111.736C124.391 111.736 124.223 111.5 124.223 111.23C124.223 110.96 124.088 110.724 123.885 110.724C123.717 110.724 123.548 110.488 123.548 110.218C123.548 109.948 123.413 109.712 123.211 109.712C123.042 109.712 122.873 109.476 122.873 109.206C122.873 108.936 122.738 108.7 122.536 108.7C122.367 108.7 122.199 108.565 122.199 108.362C122.199 108.194 118.757 102.762 114.54 96.3182C110.323 89.8408 106.848 84.2405 106.747 83.8356L106.612 83.1272L107.321 82.4187L108.029 81.7102H118.319H128.642L128.44 80.4282C127.664 75.6713 126.483 71.7916 124.695 67.9794C122.974 64.3695 119.904 59.95 117.071 57.0487C114.203 54.0798 111.234 51.6845 110.458 51.6845C110.121 51.6845 104.892 54.957 98.7515 58.9379C92.6451 62.9189 87.3485 66.1913 87.0449 66.1913C86.7075 66.1913 86.134 65.8877 85.7629 65.5166L85.0881 64.8419V54.5522V44.2625L82.8278 44.2962C81.5458 44.2962 79.5553 44.5323 78.3408 44.7685Z" fill="#FDFDFD" fill-opacity="0.09"/>
</g>
<path d="M171.453 81.8453C171.453 82.1489 171.689 82.4863 171.959 82.6212C172.803 82.9249 172.87 82.5538 172.128 81.879L171.453 81.2718V81.8453Z" fill="#C9D7E3" fill-opacity="0.5"/>
<path d="M171.789 85.2864V85.8262L172.295 85.4214C172.565 85.1852 172.801 84.9491 172.801 84.8816C172.801 84.8141 172.565 84.7467 172.295 84.7467C172.025 84.7467 171.789 84.9828 171.789 85.2864Z" fill="#C9D7E3" fill-opacity="0.5"/>
<path d="M1.62242 85.7249C1.48747 85.9611 1.45373 86.231 1.55494 86.3322C1.85857 86.6358 2.19594 86.1972 2.02726 85.7249L1.89231 85.2863L1.62242 85.7249Z" fill="#C9D7E3" fill-opacity="0.5"/>
<path d="M127.256 116.628C127.256 116.695 128.133 118.112 129.179 119.732L131.102 122.667L131.237 122.194C131.338 121.924 131.237 121.655 131.034 121.587C130.798 121.52 130.63 121.25 130.63 120.98C130.63 120.71 130.495 120.507 130.292 120.507C130.123 120.507 129.955 120.271 129.955 120.001C129.955 119.732 129.82 119.495 129.617 119.495C129.449 119.495 129.28 119.259 129.28 118.989C129.28 118.719 129.145 118.483 128.943 118.483C128.774 118.483 128.605 118.247 128.605 117.977C128.605 117.707 128.47 117.471 128.268 117.471C128.099 117.471 127.931 117.235 127.931 116.965C127.931 116.695 127.796 116.459 127.593 116.459C127.425 116.459 127.256 116.527 127.256 116.628Z" fill="#C9D7E3" fill-opacity="0.5"/>
<path d="M59.1098 122.869C59.1098 123.038 58.8736 123.206 58.6037 123.206C58.3338 123.206 58.0977 123.341 58.0977 123.544C58.0977 124.05 58.5025 123.949 59.4471 123.206L60.2905 122.532H59.717C59.3797 122.532 59.1098 122.667 59.1098 122.869Z" fill="#C9D7E3" fill-opacity="0.5"/>
<path d="M132.316 124.455C132.316 124.623 132.62 125.096 132.991 125.568L133.666 126.411V125.804C133.666 125.5 133.531 125.231 133.329 125.231C133.16 125.231 132.991 124.994 132.991 124.725C132.991 124.455 132.856 124.218 132.654 124.218C132.485 124.218 132.316 124.32 132.316 124.455Z" fill="#C9D7E3" fill-opacity="0.5"/>
<path d="M133.666 127.086C133.666 127.356 133.835 127.592 134.003 127.592C134.206 127.592 134.341 127.828 134.341 128.098C134.341 128.368 134.509 128.604 134.678 128.604C134.881 128.604 135.015 128.841 135.015 129.11C135.015 129.38 135.252 129.616 135.522 129.616C135.791 129.616 136.028 129.38 136.028 129.11C136.028 128.841 135.893 128.604 135.69 128.604C135.522 128.604 135.353 128.368 135.353 128.098C135.353 127.828 135.218 127.592 135.015 127.592C134.847 127.592 134.678 127.356 134.678 127.086C134.678 126.816 134.442 126.58 134.172 126.58C133.902 126.58 133.666 126.816 133.666 127.086Z" fill="#C9D7E3" fill-opacity="0.5"/>
<path d="M51.3519 127.93C51.3519 128.098 51.1158 128.267 50.8459 128.267C50.576 128.267 50.3398 128.402 50.3398 128.604C50.3398 129.111 50.7447 129.009 51.6893 128.267L52.5327 127.592H51.9592C51.6218 127.592 51.3519 127.727 51.3519 127.93Z" fill="#C9D7E3" fill-opacity="0.5"/>
<path d="M42.5801 133.665C42.5801 133.834 42.715 134.002 42.8837 134.002C43.0861 134.002 43.3223 133.834 43.4235 133.665L43.6259 133.327H43.1199C42.8162 133.327 42.5801 133.462 42.5801 133.665Z" fill="#C9D7E3" fill-opacity="0.5"/>
<path d="M85.4533 0.775948L84.7448 1.5519V9.34507V17.172L81.3037 17.4081C67.9102 18.3528 54.6854 23.447 43.7547 31.9149C41.1907 33.9054 34.8145 39.8768 34.8145 40.2816C34.8145 40.8889 50.0635 64.1672 50.4346 64.1672C50.6707 64.1672 51.5141 63.1214 52.3575 61.8731C53.201 60.6249 55.1577 58.3308 56.7433 56.7452L59.6109 53.8438L63.0184 51.5834C64.9076 50.3352 67.8427 48.6821 69.5633 47.9399C73.5442 46.2193 78.4023 44.971 81.9784 44.7012L84.7448 44.4987V54.8559V65.1793L85.4195 65.8541L86.0943 66.5288H87.0389H87.9498L99.0829 59.2754C105.223 55.2945 110.351 52.022 110.52 52.022C110.655 52.022 112.645 50.8412 114.905 49.3568C117.132 47.9061 122.328 44.5325 126.376 41.901C130.458 39.2695 134.203 36.6718 134.743 36.132C135.282 35.5922 135.856 35.1537 136.025 35.1537C136.16 35.1537 136.429 34.7488 136.598 34.209L136.936 33.2981L136.632 32.4547C136.497 31.9824 135.856 31.2739 135.249 30.8691C134.675 30.498 123.846 23.447 111.228 15.2153L88.2872 0.269897L87.2413 0.134949L86.1955 0L85.4533 0.775948Z" fill="#FFD12F" fill-opacity="0.5"/>
<path d="M126.613 41.1927C122.429 43.9253 118.988 46.3207 118.921 46.5231C118.853 46.7255 119.528 47.434 120.439 48.075C124.453 51.0438 129.649 57.555 132.483 63.1553C134.102 66.394 135.924 71.4545 136.936 75.5704L137.813 79.1802L137.847 83.1274L137.881 87.0409L137.172 87.9855C136.801 88.4916 136.059 89.2338 135.553 89.6049L134.642 90.3133L130.357 90.4145L126.073 90.5495L125.668 90.8869C125.432 91.0893 125.229 91.764 125.229 92.3713V93.4846L135.587 109.375C141.254 118.079 146.011 125.231 146.112 125.231C146.214 125.231 151.477 117.303 157.785 107.587C164.094 97.9041 169.357 89.9085 169.492 89.8748C169.661 89.8073 169.762 89.6049 169.762 89.4024C169.762 89.2 170.302 88.2891 170.943 87.412C171.584 86.5011 172.123 85.5902 172.123 85.4215C172.123 85.2191 172.292 85.0841 172.461 85.0841C172.663 85.0841 172.798 84.5444 172.798 83.9034V82.7226L172.09 82.0141L171.415 81.3394L163.521 81.3731H155.626L155.458 80.2935C155.356 79.6863 155.12 77.8982 154.918 76.3126C154.074 70.0038 151.375 61.401 148.305 55.3284C145.438 49.6269 140.984 43.3181 136.497 38.6287L134.17 36.1996L126.613 41.1927Z" fill="#FECA2A" fill-opacity="0.5"/>
<path d="M106.338 83.7347C106.338 84.2745 106.507 84.7468 106.675 84.7468C106.878 84.7468 107.013 84.2745 107.013 83.7347C107.013 83.1612 106.878 82.7226 106.675 82.7226C106.507 82.7226 106.338 83.1612 106.338 83.7347Z" fill="#066DAD" fill-opacity="0.5"/>
<path d="M108.835 88.3566C109.982 90.1783 113.389 95.4075 116.392 100.029C119.395 104.618 121.857 108.531 121.857 108.666C121.857 108.835 121.992 109.037 122.127 109.105C122.296 109.138 122.903 109.948 123.544 110.859L124.691 112.546L124.826 112.073C124.927 111.804 124.826 111.534 124.624 111.466C124.388 111.399 124.219 111.129 124.219 110.859C124.219 110.589 124.084 110.387 123.882 110.387C123.713 110.387 123.544 110.15 123.544 109.881C123.544 109.611 123.409 109.375 123.207 109.375C123.038 109.375 122.869 109.138 122.869 108.868C122.869 108.599 122.734 108.362 122.532 108.362C122.363 108.362 122.195 108.126 122.195 107.856C122.195 107.586 122.06 107.35 121.857 107.35C121.689 107.35 121.52 107.114 121.52 106.844C121.52 106.574 121.385 106.338 121.183 106.338C121.014 106.338 120.845 106.102 120.845 105.832C120.845 105.562 120.71 105.326 120.542 105.326C120.373 105.326 120.137 104.955 120.036 104.483C119.901 104.01 119.664 103.639 119.496 103.639C119.293 103.639 119.158 103.403 119.158 103.133C119.158 102.863 119.023 102.627 118.821 102.627C118.652 102.627 118.484 102.391 118.484 102.121C118.484 101.851 118.349 101.615 118.146 101.615C117.978 101.615 117.809 101.379 117.809 101.109C117.809 100.839 117.674 100.603 117.472 100.603C117.303 100.603 117.134 100.367 117.134 100.097C117.134 99.827 116.999 99.5909 116.797 99.5909C116.628 99.5909 116.459 99.3547 116.459 99.0848C116.459 98.8149 116.324 98.5788 116.122 98.5788C115.953 98.5788 115.785 98.3426 115.785 98.0727C115.785 97.8028 115.65 97.5667 115.481 97.5667C115.312 97.5667 115.076 97.1956 114.975 96.7233C114.84 96.2509 114.604 95.8798 114.435 95.8798C114.233 95.8798 114.098 95.6437 114.098 95.3738C114.098 95.1039 113.963 94.8677 113.76 94.8677C113.592 94.8677 113.423 94.6316 113.423 94.3617C113.423 94.0918 113.288 93.8556 113.086 93.8556C112.917 93.8556 112.748 93.6195 112.748 93.3496C112.748 93.0797 112.613 92.8435 112.411 92.8435C112.242 92.8435 112.074 92.6074 112.074 92.3375C112.074 92.0676 111.939 91.8314 111.736 91.8314C111.568 91.8314 111.399 91.5953 111.399 91.3254C111.399 91.0555 111.264 90.8193 111.062 90.8193C110.893 90.8193 110.724 90.5832 110.724 90.3133C110.724 90.0434 110.589 89.8072 110.421 89.8072C110.252 89.8072 110.016 89.4361 109.915 88.9638C109.78 88.4915 109.543 88.1204 109.375 88.1204C109.172 88.1204 109.037 87.8842 109.037 87.6143C109.037 87.3444 108.902 87.1083 108.7 87.1083C108.531 87.1083 108.363 86.8721 108.363 86.6022C108.363 86.3323 108.228 86.0962 108.025 86.0962C107.857 86.0962 107.688 85.86 107.688 85.5901C107.688 85.3202 107.452 85.0841 107.182 85.0841H106.676L108.835 88.3566Z" fill="#066DAD" fill-opacity="0.5"/>
<path d="M125.906 114.435C125.906 114.637 126.783 116.021 127.829 117.539L129.752 120.271L129.887 119.833C129.988 119.563 129.887 119.293 129.685 119.226C129.449 119.158 129.28 118.888 129.28 118.618C129.28 118.348 129.145 118.146 128.943 118.146C128.774 118.146 128.605 117.91 128.605 117.64C128.605 117.37 128.47 117.134 128.268 117.134C128.099 117.134 127.93 116.898 127.93 116.628C127.93 116.358 127.796 116.122 127.593 116.122C127.424 116.122 127.256 115.886 127.256 115.616C127.256 115.346 127.121 115.11 126.918 115.11C126.75 115.11 126.581 114.874 126.581 114.604C126.581 114.334 126.446 114.098 126.244 114.098C126.075 114.098 125.906 114.266 125.906 114.435Z" fill="#066DAD" fill-opacity="0.5"/>
<path d="M130.967 122.194C130.967 122.633 133.767 126.85 134.104 126.884C134.239 126.918 134.34 126.681 134.34 126.412C134.34 126.142 134.206 125.906 134.003 125.906C133.834 125.906 133.666 125.669 133.666 125.399C133.666 125.13 133.531 124.893 133.328 124.893C133.16 124.893 132.991 124.657 132.991 124.387C132.991 124.117 132.856 123.881 132.654 123.881C132.485 123.881 132.316 123.645 132.316 123.375C132.316 123.105 132.181 122.869 131.979 122.869C131.81 122.869 131.642 122.633 131.642 122.363C131.642 122.093 131.507 121.857 131.304 121.857C131.135 121.857 130.967 121.992 130.967 122.194Z" fill="#066DAD" fill-opacity="0.5"/>
<path d="M145.135 126.074C145.135 126.344 145 126.58 144.797 126.58C144.629 126.58 144.46 126.816 144.46 127.086C144.46 127.356 144.325 127.592 144.123 127.592C143.954 127.592 143.785 127.829 143.785 128.098C143.785 128.368 143.65 128.604 143.448 128.604C143.279 128.604 143.111 128.841 143.111 129.111C143.111 129.38 142.976 129.617 142.773 129.617C142.604 129.617 142.436 129.853 142.436 130.123C142.436 130.393 142.301 130.629 142.098 130.629C141.93 130.629 141.761 130.865 141.761 131.135C141.761 131.405 141.626 131.641 141.424 131.641C141.255 131.641 141.086 131.877 141.086 132.147C141.086 132.417 140.85 132.653 140.58 132.653C140.31 132.653 140.074 132.788 140.074 132.99C140.074 133.564 140.58 133.361 141.322 132.552C141.694 132.147 142.942 130.393 144.089 128.672L146.181 125.568H145.641C145.371 125.568 145.135 125.804 145.135 126.074Z" fill="#066DAD" fill-opacity="0.5"/>
<path d="M134.913 128.166C134.508 128.537 134.643 128.942 135.183 128.942C135.453 128.942 135.689 128.706 135.689 128.436C135.689 127.896 135.284 127.761 134.913 128.166Z" fill="#066DAD" fill-opacity="0.5"/>
<path d="M135.487 129.347L135.217 129.752L135.622 129.887C135.858 129.954 136.026 130.224 136.026 130.494C136.026 130.797 136.195 130.899 136.364 130.797L136.701 130.595V131.304V132.012L137.039 131.81L137.376 131.607V132.248V132.889H137.882C138.152 132.889 138.388 132.687 138.388 132.417C138.388 132.181 138.253 131.978 138.051 131.978C137.882 131.978 137.713 131.742 137.713 131.472C137.713 131.202 137.578 130.966 137.376 130.966C137.207 130.966 137.039 130.73 137.039 130.46C137.039 130.19 136.904 129.954 136.701 129.954C136.533 129.954 136.364 129.718 136.364 129.448C136.364 128.841 135.824 128.773 135.487 129.347Z" fill="#066DAD" fill-opacity="0.5"/>
<path d="M88.63 0.742284C88.7312 0.910967 88.8999 1.07965 89.0011 1.07965C89.1023 1.07965 89.0686 0.910967 88.9674 0.742284C88.8662 0.539863 88.6975 0.404917 88.5963 0.404917C88.4951 0.404917 88.5288 0.539863 88.63 0.742284Z" fill="#FEB13C" fill-opacity="0.5"/>
<path d="M94.3644 4.45328C94.4656 4.62197 94.6343 4.79065 94.7355 4.79065C94.8367 4.79065 94.803 4.62197 94.7017 4.45328C94.6005 4.25086 94.4319 4.11592 94.3306 4.11592C94.2294 4.11592 94.2632 4.25086 94.3644 4.45328Z" fill="#FEB13C" fill-opacity="0.5"/>
<path d="M95.3741 5.12803C95.4754 5.29671 95.644 5.46539 95.7452 5.46539C95.8465 5.46539 95.8127 5.29671 95.7115 5.12803C95.6103 4.92561 95.4416 4.79066 95.3404 4.79066C95.2392 4.79066 95.2729 4.92561 95.3741 5.12803Z" fill="#FEB13C" fill-opacity="0.5"/>
<path d="M102.124 9.51383C102.225 9.68251 102.394 9.8512 102.495 9.8512C102.596 9.8512 102.563 9.68251 102.462 9.51383C102.36 9.31141 102.192 9.17646 102.09 9.17646C101.989 9.17646 102.023 9.31141 102.124 9.51383Z" fill="#FEB13C" fill-opacity="0.5"/>
<path d="M103.138 10.1885C103.239 10.3572 103.408 10.5259 103.509 10.5259C103.61 10.5259 103.576 10.3572 103.475 10.1885C103.374 9.98609 103.205 9.85114 103.104 9.85114C103.003 9.85114 103.037 9.98609 103.138 10.1885Z" fill="#FEB13C" fill-opacity="0.5"/>
<path d="M109.882 14.5744C109.983 14.7431 110.152 14.9117 110.253 14.9117C110.354 14.9117 110.321 14.7431 110.219 14.5744C110.118 14.372 109.949 14.237 109.848 14.237C109.747 14.237 109.781 14.372 109.882 14.5744Z" fill="#FEB13C" fill-opacity="0.5"/>
<path d="M110.896 15.2491C110.997 15.4178 111.166 15.5865 111.267 15.5865C111.368 15.5865 111.334 15.4178 111.233 15.2491C111.132 15.0467 110.963 14.9118 110.862 14.9118C110.761 14.9118 110.794 15.0467 110.896 15.2491Z" fill="#FEB13C" fill-opacity="0.5"/>
<path d="M82.4903 17.5094C82.6252 17.6106 82.8276 17.6106 82.9626 17.5094C83.0638 17.3745 82.9626 17.2733 82.7264 17.2733C82.4903 17.2733 82.389 17.3745 82.4903 17.5094Z" fill="#FEB13C" fill-opacity="0.5"/>
<path d="M75.7421 18.1841C75.8771 18.2853 76.0795 18.2853 76.2144 18.1841C76.3156 18.0491 76.2144 17.9479 75.9783 17.9479C75.7421 17.9479 75.6409 18.0491 75.7421 18.1841Z" fill="#FEB13C" fill-opacity="0.5"/>
<path d="M68.9942 19.5336C69.1291 19.6348 69.3315 19.6348 69.4665 19.5336C69.5677 19.3986 69.4665 19.2974 69.2303 19.2974C68.9942 19.2974 68.8929 19.3986 68.9942 19.5336Z" fill="#FEB13C" fill-opacity="0.5"/>
<path d="M117.644 19.6349C117.745 19.8035 117.914 19.9722 118.015 19.9722C118.116 19.9722 118.082 19.8035 117.981 19.6349C117.88 19.4324 117.711 19.2975 117.61 19.2975C117.509 19.2975 117.542 19.4324 117.644 19.6349Z" fill="#FEB13C" fill-opacity="0.5"/>
<path d="M66.6328 20.2083C66.7678 20.3095 66.9702 20.3095 67.1051 20.2083C67.2064 20.0734 67.1051 19.9722 66.869 19.9722C66.6328 19.9722 66.5316 20.0734 66.6328 20.2083Z" fill="#FEB13C" fill-opacity="0.5"/>
<path d="M118.655 20.3095C118.757 20.4782 118.925 20.6469 119.026 20.6469C119.128 20.6469 119.094 20.4782 118.993 20.3095C118.892 20.1071 118.723 19.9722 118.622 19.9722C118.52 19.9722 118.554 20.1071 118.655 20.3095Z" fill="#FEB13C" fill-opacity="0.5"/>
<path d="M61.5742 21.8952C61.7092 21.9964 61.9116 21.9964 62.0466 21.8952C62.1478 21.7602 62.0466 21.659 61.8104 21.659C61.5742 21.659 61.473 21.7602 61.5742 21.8952Z" fill="#FEB13C" fill-opacity="0.5"/>
<path d="M57.5235 23.5821C57.6584 23.6833 57.8608 23.6833 57.9958 23.5821C58.097 23.4471 57.9958 23.3459 57.7596 23.3459C57.5235 23.3459 57.4222 23.4471 57.5235 23.5821Z" fill="#FEB13C" fill-opacity="0.5"/>
<path d="M125.403 24.6953C125.505 24.864 125.673 25.0327 125.775 25.0327C125.876 25.0327 125.842 24.864 125.741 24.6953C125.64 24.4929 125.471 24.358 125.37 24.358C125.269 24.358 125.302 24.4929 125.403 24.6953Z" fill="#FEB13C" fill-opacity="0.5"/>
<path d="M126.415 25.37C126.516 25.5387 126.685 25.7074 126.786 25.7074C126.887 25.7074 126.854 25.5387 126.753 25.37C126.651 25.1676 126.483 25.0327 126.381 25.0327C126.28 25.0327 126.314 25.1676 126.415 25.37Z" fill="#FEB13C" fill-opacity="0.5"/>
<path d="M31.9505 39.8769L31.748 40.2142H32.2541C32.5577 40.2142 32.7939 40.0455 32.7939 39.8769C32.7939 39.6744 32.6589 39.5395 32.4903 39.5395C32.2878 39.5395 32.0517 39.6744 31.9505 39.8769Z" fill="#FEB13C" fill-opacity="0.5"/>
<path d="M33.8086 39.8769C33.8086 40.0455 34.0448 40.2142 34.3484 40.2142H34.8544L34.652 39.8769C34.5508 39.6744 34.3146 39.5395 34.1122 39.5395C33.9435 39.5395 33.8086 39.6744 33.8086 39.8769Z" fill="#FEB13C" fill-opacity="0.5"/>
<path d="M27.059 46.8604C14.1716 66.5627 0.373284 87.8505 0.204601 88.2891C0.0696537 88.559 0.137127 88.7952 0.305811 88.7952C0.508231 88.7952 0.913072 88.2216 1.28418 87.5132C1.62154 86.8384 2.02638 86.1974 2.19507 86.1637C2.33001 86.0962 2.43122 85.8263 2.43122 85.5564C2.43122 85.2865 2.59991 85.0841 2.76859 85.0841C2.97101 85.0841 3.10596 84.848 3.10596 84.5781C3.10596 84.3082 3.27464 84.072 3.44333 84.072C3.64575 84.072 3.78069 83.8359 3.78069 83.566C3.78069 83.2961 3.94938 83.0599 4.11806 83.0599C4.32048 83.0599 4.45543 82.8238 4.45543 82.5539C4.45543 82.284 4.62411 82.0478 4.79279 82.0478C4.99521 82.0478 5.13016 81.8117 5.13016 81.5418C5.13016 81.2719 5.26511 81.0357 5.46753 81.0357C5.63621 81.0357 5.87237 80.6646 6.00732 80.1923C6.10853 79.72 6.34468 79.3489 6.51337 79.3489C6.68205 79.3489 6.817 79.1127 6.817 78.8428C6.817 78.5729 6.98568 78.3368 7.15436 78.3368C7.35679 78.3368 7.49173 78.1006 7.49173 77.8307C7.49173 77.5608 7.66042 77.3247 7.8291 77.3247C8.03152 77.3247 8.16647 77.0885 8.16647 76.8186C8.16647 76.5487 8.33515 76.3126 8.50383 76.3126C8.70625 76.3126 8.8412 76.0764 8.8412 75.8065C8.8412 75.5366 9.00988 75.3005 9.17857 75.3005C9.38099 75.3005 9.51594 75.0643 9.51594 74.7944C9.51594 74.5245 9.68462 74.2884 9.8533 74.2884C10.0557 74.2884 10.1907 74.0522 10.1907 73.7823C10.1907 73.5124 10.3256 73.2763 10.528 73.2763C10.6967 73.2763 10.9329 72.9052 11.0678 72.4329C11.169 71.9605 11.4052 71.5894 11.5739 71.5894C11.7426 71.5894 11.8775 71.3533 11.8775 71.0834C11.8775 70.8135 12.0462 70.5773 12.2149 70.5773C12.4173 70.5773 12.5522 70.3412 12.5522 70.0713C12.5522 69.8014 12.7209 69.5652 12.8896 69.5652C13.092 69.5652 13.227 69.3291 13.227 69.0592C13.227 68.7893 13.3957 68.5531 13.5643 68.5531C13.7668 68.5531 13.9017 68.317 13.9017 68.0471C13.9017 67.7772 14.0704 67.541 14.2391 67.541C14.4415 67.541 14.5764 67.3049 14.5764 67.035C14.5764 66.7651 14.7451 66.5289 14.9138 66.5289C15.1162 66.5289 15.2512 66.2928 15.2512 66.0229C15.2512 65.753 15.3861 65.5168 15.5885 65.5168C15.7572 65.5168 15.9934 65.1457 16.1283 64.6734C16.2295 64.2011 16.4657 63.83 16.6344 63.83C16.8031 63.83 16.938 63.5938 16.938 63.3239C16.938 63.0541 17.1067 62.8179 17.2754 62.8179C17.4778 62.8179 17.6127 62.5817 17.6127 62.3118C17.6127 62.042 17.7814 61.8058 17.9501 61.8058C18.1525 61.8058 18.2875 61.5696 18.2875 61.2997C18.2875 61.0299 18.4562 60.7937 18.6248 60.7937C18.8273 60.7937 18.9622 60.5575 18.9622 60.2876C18.9622 60.0177 19.1309 59.7816 19.2996 59.7816C19.502 59.7816 19.637 59.5454 19.637 59.2755C19.637 59.0056 19.8056 58.7695 19.9743 58.7695C20.1767 58.7695 20.3117 58.5333 20.3117 58.2634C20.3117 57.9935 20.4466 57.7574 20.6491 57.7574C20.8177 57.7574 21.0539 57.3863 21.1888 56.914C21.2901 56.4417 21.5262 56.0706 21.6949 56.0706C21.8636 56.0706 21.9985 55.8344 21.9985 55.5645C21.9985 55.2946 22.1672 55.0585 22.3359 55.0585C22.5383 55.0585 22.6733 54.8223 22.6733 54.5524C22.6733 54.2825 22.8419 54.0464 23.0106 54.0464C23.213 54.0464 23.348 53.8102 23.348 53.5403C23.348 53.2704 23.5167 53.0342 23.6854 53.0342C23.8878 53.0342 24.0227 52.7981 24.0227 52.5282C24.0227 52.2583 24.1914 52.0221 24.3601 52.0221C24.5625 52.0221 24.6975 51.786 24.6975 51.5161C24.6975 51.2462 24.8661 51.01 25.0348 51.01C25.2372 51.01 25.3722 50.7739 25.3722 50.504C25.3722 50.2341 25.5071 49.9979 25.7096 49.9979C25.8782 49.9979 26.1144 49.6268 26.2493 49.1545C26.3506 48.6822 26.5867 48.3111 26.7554 48.3111C26.9241 48.3111 27.059 48.075 27.059 47.8051C27.059 47.5352 27.2277 47.299 27.3964 47.299C27.5988 47.299 27.7338 47.0629 27.7338 46.793C27.7338 46.5231 27.9024 46.2869 28.0711 46.2869C28.2736 46.2869 28.4085 46.0508 28.4085 45.7809C28.4085 45.511 28.5772 45.2748 28.7459 45.2748C28.9483 45.2748 29.0832 45.0387 29.0832 44.7688C29.0832 44.4989 29.2519 44.2627 29.4206 44.2627C29.623 44.2627 29.758 44.0265 29.758 43.7567C29.758 43.4868 29.9267 43.2506 30.0953 43.2506C30.2978 43.2506 30.4327 43.0144 30.4327 42.7446C30.4327 42.4747 30.5676 42.2385 30.7363 42.2385C31.1074 42.2385 31.6135 40.9228 31.3436 40.6866C31.2761 40.5854 29.3194 43.3856 27.059 46.8604Z" fill="#FEB13C" fill-opacity="0.5"/>
<path d="M28.7811 63.1889C22.9784 72.0954 18.1203 79.6862 18.0529 80.0573C17.9517 80.3947 18.1203 81.0694 18.424 81.5417L18.9638 82.3851H22.27H25.5761L27.0606 83.1273L28.5787 83.9033L29.2197 85.0503L29.8944 86.2311L30.1306 91.4603C30.2656 94.3617 30.6367 97.9715 30.9066 99.4559C31.6488 103.268 33.2344 108.801 34.4489 111.871C36.8105 117.775 40.6227 124.489 44.3 129.178C45.2109 130.359 45.9531 131.371 45.9531 131.472C45.9531 131.573 45.717 131.641 45.4471 131.641C45.1772 131.641 44.941 131.776 44.941 131.944C44.941 132.113 44.6037 132.315 44.1651 132.45C43.7602 132.552 43.0855 132.923 42.6807 133.328C42.2758 133.699 41.7698 134.002 41.5674 134.002C41.0613 134.002 41.3312 134.778 41.9047 134.947C42.1409 135.048 42.2421 134.981 42.1746 134.812C42.0734 134.643 46.6616 131.472 52.3631 127.761L62.754 121.014L62.1805 120.71C60.7635 119.9 56.5465 116.156 54.8259 114.131C52.4306 111.331 49.9341 107.553 48.5171 104.483C47.0664 101.48 45.4471 96.3184 45.0422 93.5857L44.7049 91.4941H54.8934H65.0818L65.7903 90.7181C66.1952 90.2795 66.5325 89.5711 66.5325 89.1325V88.3565L58.7731 76.4812C54.5223 69.9363 51.0136 64.4372 51.0136 64.2348C51.0136 63.9986 50.8787 63.8299 50.71 63.8299C50.5413 63.8299 47.9436 60.0177 44.941 55.3958C41.9385 50.7401 39.4419 46.9616 39.4082 46.9616C39.4082 46.9616 34.6176 54.2487 28.7811 63.1889Z" fill="#FEB13C" fill-opacity="0.5"/>
<path d="M0.0703125 89.7735C0.0703125 89.9759 0.238996 90.2121 0.40768 90.3133L0.745047 90.5157V90.0097C0.745047 89.7061 0.6101 89.4699 0.40768 89.4699C0.238996 89.4699 0.0703125 89.6048 0.0703125 89.7735Z" fill="#FEB13C" fill-opacity="0.5"/>
<path d="M1.2532 91.1567C1.35441 91.3254 1.59057 91.4941 1.79299 91.4941C1.96167 91.4941 2.09662 91.3254 2.09662 91.1567C2.09662 90.9543 1.86046 90.8193 1.55683 90.8193H1.05078L1.2532 91.1567Z" fill="#FEB13C" fill-opacity="0.5"/>
<path d="M17.1394 91.6627C17.2743 91.9326 17.4768 92.1688 17.6454 92.1688C17.8141 92.1688 17.9491 91.9326 17.9491 91.6627C17.9491 91.3928 17.7129 91.1567 17.443 91.1567H16.9707L17.1394 91.6627Z" fill="#FEB13C" fill-opacity="0.5"/>
<path d="M17.6133 94.8676C17.6133 95.2387 17.782 95.5424 17.9506 95.5424C18.1531 95.5424 18.288 95.2387 18.288 94.8676C18.288 94.4965 18.1531 94.1929 17.9506 94.1929C17.782 94.1929 17.6133 94.4965 17.6133 94.8676Z" fill="#FEB13C" fill-opacity="0.5"/>
<path d="M17.9512 97.2293C17.9512 97.6004 18.1199 97.9041 18.2885 97.9041C18.491 97.9041 18.6259 97.6004 18.6259 97.2293C18.6259 96.8582 18.491 96.5546 18.2885 96.5546C18.1199 96.5546 17.9512 96.8582 17.9512 97.2293Z" fill="#FEB13C" fill-opacity="0.5"/>
<path d="M18.291 99.2535C18.291 99.6247 18.4597 99.9283 18.6284 99.9283C18.8308 99.9283 18.9657 99.6247 18.9657 99.2535C18.9657 98.8824 18.8308 98.5788 18.6284 98.5788C18.4597 98.5788 18.291 98.8824 18.291 99.2535Z" fill="#FEB13C" fill-opacity="0.5"/>
<path d="M18.625 100.94C18.625 101.311 18.7937 101.615 18.9624 101.615C19.1648 101.615 19.2997 101.311 19.2997 100.94C19.2997 100.569 19.1648 100.266 18.9624 100.266C18.7937 100.266 18.625 100.569 18.625 100.94Z" fill="#FEB13C" fill-opacity="0.5"/>
<path d="M18.9629 102.458C18.9629 102.728 19.1316 102.965 19.3003 102.965C19.5027 102.965 19.6376 102.728 19.6376 102.458C19.6376 102.189 19.5027 101.952 19.3003 101.952C19.1316 101.952 18.9629 102.189 18.9629 102.458Z" fill="#FEB13C" fill-opacity="0.5"/>
<path d="M19.3008 103.808C19.3008 104.078 19.4695 104.314 19.6381 104.314C19.8406 104.314 19.9755 104.078 19.9755 103.808C19.9755 103.538 19.8406 103.302 19.6381 103.302C19.4695 103.302 19.3008 103.538 19.3008 103.808Z" fill="#FEB13C" fill-opacity="0.5"/>
<path d="M19.8397 105.562C19.9747 106.102 20.5819 107.958 21.2229 109.712C21.8639 111.466 22.4712 113.187 22.5724 113.49C22.6736 113.828 22.9098 114.098 23.0784 114.098C23.4833 114.098 23.517 114.233 21.594 108.801C20.7844 106.507 20.0421 104.651 19.8735 104.651C19.7385 104.651 19.7385 105.056 19.8397 105.562Z" fill="#FEB13C" fill-opacity="0.5"/>
<path d="M23.3477 114.941C23.3477 115.042 23.8874 116.189 24.5622 117.505C25.2032 118.821 25.8442 119.799 25.9454 119.698C26.2153 119.428 23.9887 114.772 23.6176 114.772C23.4826 114.772 23.3477 114.84 23.3477 114.941Z" fill="#FEB13C" fill-opacity="0.5"/>
<path d="M26.7568 121.688C27.6002 123.072 28.0725 123.443 28.0725 122.734C28.0725 122.431 27.9376 122.195 27.7689 122.195C27.6002 122.195 27.364 121.823 27.2628 121.351C27.1279 120.879 26.8242 120.508 26.5543 120.508H26.082L26.7568 121.688Z" fill="#FEB13C" fill-opacity="0.5"/>
<path d="M28.4102 124.185C28.4102 124.354 28.7138 124.826 29.0849 125.265L29.7259 126.074L29.7596 125.467C29.7596 125.163 29.6247 124.893 29.4223 124.893C29.2536 124.893 29.0849 124.657 29.0849 124.387C29.0849 124.117 28.9499 123.881 28.7475 123.881C28.5788 123.881 28.4102 124.016 28.4102 124.185Z" fill="#FEB13C" fill-opacity="0.5"/>
<path d="M30.4331 127.255C31.3102 128.503 31.7825 128.807 31.7825 128.098C31.7825 127.828 31.5464 127.491 31.2765 127.39C31.0066 127.255 30.7704 126.985 30.7704 126.715C30.7704 126.445 30.5343 126.243 30.2307 126.243H29.7246L30.4331 127.255Z" fill="#FEB13C" fill-opacity="0.5"/>
<path d="M31.7833 129.077C31.7833 129.144 32.0194 129.38 32.2893 129.617L32.7954 130.021V129.482C32.7954 129.178 32.5592 128.942 32.2893 128.942C32.0194 128.942 31.7833 129.009 31.7833 129.077Z" fill="#FEB13C" fill-opacity="0.5"/>
<path d="M33.6385 131.303C34.3132 132.046 34.6843 131.978 34.3807 131.135C34.2458 130.865 33.9084 130.629 33.6048 130.629H33.0312L33.6385 131.303Z" fill="#FEB13C" fill-opacity="0.5"/>
<path d="M37.3509 135.352L38.7004 136.735L38.8016 136.364C38.9703 135.858 37.1822 134.002 36.5412 134.002H36.0352L37.3509 135.352Z" fill="#FEB13C" fill-opacity="0.5"/>
<path d="M40.2843 135.082C40.4867 135.689 41.2289 135.79 41.2289 135.217C41.2289 134.913 40.9928 134.677 40.6891 134.677C40.3855 134.677 40.2168 134.846 40.2843 135.082Z" fill="#FEB13C" fill-opacity="0.5"/>
<path d="M39.2726 135.757C39.475 136.364 40.2172 136.465 40.2172 135.892C40.2172 135.588 39.9811 135.352 39.6774 135.352C39.3738 135.352 39.2051 135.521 39.2726 135.757Z" fill="#FEB13C" fill-opacity="0.5"/>
<path d="M32.3872 39.6744L31.4764 40.0118L31.0715 40.9564C30.8691 41.4625 30.5655 41.901 30.3968 41.901C30.2281 41.901 30.0932 42.1372 30.0932 42.4071C30.0932 42.677 29.9582 42.9131 29.7558 42.9131C29.5871 42.9131 29.4184 43.1493 29.4184 43.4192C29.4184 43.6891 29.2835 43.9252 29.0811 43.9252C28.9124 43.9252 28.7437 44.1614 28.7437 44.4313C28.7437 44.7012 28.6087 44.9373 28.4063 44.9373C28.2376 44.9373 28.069 45.1735 28.069 45.4434C28.069 45.7133 27.934 45.9494 27.7316 45.9494C27.5629 45.9494 27.3942 46.1856 27.3942 46.4555C27.3942 46.7254 27.2593 46.9615 27.0568 46.9615C26.8882 46.9615 26.7195 47.1977 26.7195 47.4676C26.7195 47.7375 26.5845 47.9736 26.4158 47.9736C26.2472 47.9736 26.011 48.3447 25.9098 48.8171C25.7749 49.2894 25.5387 49.6605 25.37 49.6605C25.1676 49.6605 25.0326 49.8966 25.0326 50.1665C25.0326 50.4364 24.8977 50.6726 24.6953 50.6726C24.5266 50.6726 24.3579 50.9087 24.3579 51.1786C24.3579 51.4485 24.223 51.6847 24.0205 51.6847C23.8519 51.6847 23.6832 51.9208 23.6832 52.1907C23.6832 52.4606 23.5482 52.6968 23.3458 52.6968C23.1771 52.6968 23.0084 52.9329 23.0084 53.2028C23.0084 53.4727 22.8735 53.7089 22.6711 53.7089C22.5024 53.7089 22.3337 53.945 22.3337 54.2149C22.3337 54.4848 22.1988 54.721 21.9963 54.721C21.8277 54.721 21.659 54.9571 21.659 55.227C21.659 55.4969 21.524 55.7331 21.3553 55.7331C21.1867 55.7331 20.9505 56.1042 20.8493 56.5765C20.7143 57.0488 20.4782 57.4199 20.3095 57.4199C20.1071 57.4199 19.9721 57.6561 19.9721 57.926C19.9721 58.1959 19.8372 58.432 19.6348 58.432C19.4661 58.432 19.2974 58.6682 19.2974 58.9381C19.2974 59.208 19.1625 59.4441 18.96 59.4441C18.7914 59.4441 18.6227 59.6803 18.6227 59.9502C18.6227 60.2201 18.4877 60.4562 18.2853 60.4562C18.1166 60.4562 17.9479 60.6924 17.9479 60.9623C17.9479 61.2322 17.813 61.4683 17.6106 61.4683C17.4419 61.4683 17.2732 61.7045 17.2732 61.9744C17.2732 62.2443 17.1383 62.4804 16.9358 62.4804C16.7671 62.4804 16.5985 62.7166 16.5985 62.9865C16.5985 63.2564 16.4635 63.4925 16.2948 63.4925C16.1262 63.4925 15.89 63.8636 15.7888 64.3359C15.6538 64.8083 15.4177 65.1794 15.249 65.1794C15.0466 65.1794 14.9116 65.4155 14.9116 65.6854C14.9116 65.9553 14.7767 66.1915 14.5743 66.1915C14.4056 66.1915 14.2369 66.4276 14.2369 66.6975C14.2369 66.9674 14.1019 67.2036 13.8995 67.2036C13.7308 67.2036 13.5622 67.4397 13.5622 67.7096C13.5622 67.9795 13.4272 68.2157 13.2248 68.2157C13.0561 68.2157 12.8874 68.4518 12.8874 68.7217C12.8874 68.9916 12.7525 69.2278 12.5501 69.2278C12.3814 69.2278 12.2127 69.4639 12.2127 69.7338C12.2127 70.0037 12.0777 70.2399 11.8753 70.2399C11.7066 70.2399 11.538 70.476 11.538 70.7459C11.538 71.0158 11.403 71.252 11.2343 71.252C11.0656 71.252 10.8295 71.6231 10.7283 72.0954C10.5933 72.5677 10.3572 72.9388 10.1885 72.9388C9.98607 72.9388 9.85112 73.175 9.85112 73.4449C9.85112 73.7148 9.71618 73.9509 9.51375 73.9509C9.34507 73.9509 9.17639 74.1871 9.17639 74.457C9.17639 74.7269 9.04144 74.963 8.83902 74.963C8.67034 74.963 8.50165 75.1992 8.50165 75.4691C8.50165 75.739 8.36671 75.9751 8.16429 75.9751C7.9956 75.9751 7.82692 76.2113 7.82692 76.4812C7.82692 76.7511 7.69197 76.9872 7.48955 76.9872C7.32087 76.9872 7.15218 77.2234 7.15218 77.4933C7.15218 77.7632 7.05097 77.9993 6.91603 77.9993C6.74734 77.9993 6.3425 78.6066 6.00514 79.3488C5.63403 80.091 5.22919 80.6983 5.06051 80.6983C4.92556 80.6983 4.79061 80.9344 4.79061 81.2043C4.79061 81.4742 4.65567 81.7104 4.45325 81.7104C4.28456 81.7104 4.11588 81.9465 4.11588 82.2164C4.11588 82.4863 3.98093 82.7225 3.77851 82.7225C3.60983 82.7225 3.44115 82.9586 3.44115 83.2285C3.44115 83.4984 3.3062 83.7346 3.10378 83.7346C2.93509 83.7346 2.76641 83.9707 2.76641 84.2406C2.76641 84.5105 2.63146 84.7467 2.42904 84.7467C2.26036 84.7467 2.09168 84.8816 2.09168 85.084C2.09168 85.2527 1.61936 86.1636 1.04584 87.1082L0 88.7951L0.236157 89.8409L0.472314 90.853L1.34947 91.1904L2.22662 91.5277L9.85112 91.494H17.4419L17.4756 92.2362C17.5094 93.0796 17.8805 95.8798 18.1166 97.2293C18.1841 97.7016 18.3528 98.6125 18.454 99.2535C18.7576 100.974 18.8926 101.683 19.095 102.526C19.2299 102.964 19.3649 103.572 19.4324 103.875C19.4998 104.213 19.736 104.887 19.9384 105.394C20.1408 105.933 20.2083 106.338 20.1071 106.338C19.9721 106.338 20.0733 106.574 20.3095 106.844C20.5457 107.114 20.6131 107.35 20.4782 107.35C20.3432 107.35 20.4107 107.586 20.6469 107.856C20.883 108.126 20.9505 108.362 20.8156 108.362C20.6806 108.362 20.7481 108.599 20.9842 108.868C21.2204 109.138 21.2879 109.374 21.1529 109.374C21.018 109.374 21.0854 109.611 21.3216 109.881C21.5578 110.15 21.659 110.387 21.524 110.387C21.3891 110.387 21.5578 110.758 21.8614 111.23C22.165 111.702 22.3 112.073 22.1988 112.073C22.0638 112.073 22.2325 112.445 22.5361 112.883C22.806 113.355 23.0759 113.861 23.0759 113.996C23.0759 114.435 26.1797 120.643 26.652 121.115C26.8544 121.351 27.0568 121.79 27.0568 122.059C27.0568 122.329 27.1918 122.532 27.3605 122.532C27.5292 122.532 27.7316 122.802 27.8665 123.105C28.1027 123.915 29.0473 125.332 29.9919 126.412C30.2281 126.648 30.4305 127.019 30.4305 127.187C30.4305 127.39 30.6667 127.592 30.9366 127.727C31.2065 127.828 31.4426 128.098 31.4426 128.335C31.4426 128.604 31.7125 129.043 32.0499 129.347C32.3535 129.65 33.0957 130.494 33.6355 131.168C34.209 131.843 35.626 133.395 36.8405 134.576L38.9996 136.735L39.7081 136.364C40.0792 136.161 40.754 135.689 41.2263 135.318C41.6986 134.913 41.8673 134.744 41.5974 134.879L41.1251 135.116L41.3612 134.744C41.4962 134.508 41.7661 134.34 41.9347 134.34C42.1034 134.34 42.5757 134.036 42.9806 133.665C43.3854 133.328 43.824 133.091 43.9927 133.193C44.1276 133.294 44.2626 133.193 44.2626 133.024C44.2626 132.821 44.4987 132.653 44.7686 132.653C45.0385 132.653 45.2747 132.484 45.2747 132.315C45.2747 132.113 45.4771 131.978 45.747 131.978C46.7254 131.978 46.4555 131.101 44.971 129.279C41.395 124.893 37.2116 117.572 34.7826 111.534C33.568 108.464 31.9824 102.931 31.2402 99.1185C30.9703 97.6341 30.5992 94.0243 30.4643 91.1229L30.2281 85.8937L29.5534 84.7129L28.9124 83.5659L27.3942 82.7899L25.9098 82.0477H22.6036H19.2974L18.7576 81.2043L18.2178 80.3946L18.9938 79.1126C19.4323 78.4042 24.223 71.0158 29.6883 62.6829C35.1199 54.3499 39.5394 47.3664 39.472 47.164C39.4045 46.9278 38.3924 45.241 37.1779 43.3517L34.985 39.9443L34.1416 39.6407L33.2981 39.337L32.3872 39.6744ZM40.8889 135.149C40.8889 135.251 40.7202 135.419 40.4841 135.554L40.113 135.79L40.3491 135.419C40.5853 135.014 40.8889 134.879 40.8889 135.149ZM39.8768 135.824C39.8768 135.925 39.7081 136.094 39.472 136.229L39.1009 136.465L39.337 136.094C39.5732 135.689 39.8768 135.554 39.8768 135.824Z" fill="#FEA40C" fill-opacity="0.5"/>
<path d="M133.294 127.12C131.945 128.571 126.952 132.45 123.848 134.441C120.474 136.6 115.245 139.299 111.534 140.783C107.958 142.2 102.492 143.685 97.9042 144.494L94.0245 145.169L88.2892 145.372L82.554 145.54L81.3057 146.249L80.0238 146.957L79.349 148.34L78.6743 149.724V152.996V156.235L77.9658 156.741C77.561 157.011 76.9874 157.146 76.6838 157.045C76.3802 156.91 68.4858 151.815 59.107 145.709L42.0699 134.61L41.0578 135.183C40.5181 135.52 39.506 136.06 38.865 136.431C38.224 136.802 37.3468 137.41 36.942 137.815L36.166 138.489V139.569V140.648L36.942 141.323C37.3468 141.694 47.0967 148.138 58.6009 155.594C70.1052 163.083 80.766 169.999 82.2841 170.978C83.836 171.99 85.3542 172.8 85.7253 172.8C86.0626 172.8 86.7374 172.496 87.2434 172.091L88.1206 171.416V163.522V155.661L91.0894 155.425C95.1378 155.088 101.143 154.076 104.989 153.03C116.19 149.994 127.525 143.28 135.622 134.879L138.118 132.349L137.882 131.978C137.781 131.776 137.511 131.708 137.342 131.843L137.005 132.046L137.106 131.438L137.207 130.797L136.735 130.899L136.297 131L136.465 130.494C136.566 130.224 136.432 129.752 136.162 129.38C135.858 129.043 135.757 128.976 135.892 129.245L136.128 129.718L135.757 129.482C135.554 129.347 135.453 129.043 135.554 128.807C135.656 128.537 135.554 128.233 135.318 128.065L134.913 127.829L135.183 128.301L135.453 128.773L135.15 128.503C134.981 128.335 134.846 127.963 134.846 127.66C134.846 127.356 134.677 127.12 134.441 127.154L134.036 127.255L134.205 126.749C134.509 126.007 134.239 126.142 133.294 127.12Z" fill="#544550" fill-opacity="0.5"/>
<path d="M114.465 49.0531L110.282 51.7858L110.923 52.2581C116.523 56.3065 121.449 62.2104 124.384 68.3843C125.835 71.488 127.218 75.7726 127.724 78.8089L128.129 81.2042L117.704 81.3729L107.279 81.5416L106.841 82.1488L106.402 82.7561L106.504 83.9706C106.537 84.6791 106.74 85.2864 106.976 85.3538C107.178 85.4213 107.347 85.6912 107.347 85.9611C107.347 86.231 107.516 86.4334 107.684 86.4334C107.887 86.4334 108.022 86.6696 108.022 86.9395C108.022 87.2093 108.19 87.4455 108.359 87.4455C108.561 87.4455 108.696 87.6817 108.696 87.9516C108.696 88.2215 108.865 88.4576 109.068 88.4576C109.236 88.4576 109.304 88.5926 109.202 88.795C109.101 88.9637 109.169 89.1323 109.337 89.1323C109.54 89.1323 109.709 89.3685 109.709 89.6384C109.709 89.9083 109.877 90.1444 110.046 90.1444C110.248 90.1444 110.383 90.3806 110.383 90.6505C110.383 90.9204 110.552 91.1565 110.721 91.1565C110.923 91.1565 111.058 91.3927 111.058 91.6626C111.058 91.9325 111.227 92.1686 111.395 92.1686C111.598 92.1686 111.733 92.4048 111.733 92.6747C111.733 92.9446 111.901 93.1807 112.07 93.1807C112.273 93.1807 112.407 93.4169 112.407 93.6868C112.407 93.9567 112.576 94.1928 112.745 94.1928C112.947 94.1928 113.082 94.429 113.082 94.6989C113.082 94.9688 113.251 95.205 113.42 95.205C113.622 95.205 113.757 95.4411 113.757 95.711C113.757 95.9809 113.926 96.2171 114.128 96.2171C114.297 96.2171 114.364 96.352 114.263 96.5544C114.162 96.7231 114.229 96.8918 114.398 96.8918C114.6 96.8918 114.769 97.1279 114.769 97.3978C114.769 97.6677 114.938 97.9039 115.106 97.9039C115.309 97.9039 115.444 98.14 115.444 98.4099C115.444 98.6798 115.612 98.916 115.781 98.916C115.984 98.916 116.119 99.1521 116.119 99.422C116.119 99.6919 116.287 99.9281 116.456 99.9281C116.658 99.9281 116.793 100.164 116.793 100.434C116.793 100.704 116.962 100.94 117.131 100.94C117.333 100.94 117.468 101.176 117.468 101.446C117.468 101.716 117.637 101.952 117.805 101.952C118.008 101.952 118.143 102.188 118.143 102.458C118.143 102.728 118.311 102.964 118.48 102.964C118.683 102.964 118.817 103.201 118.817 103.47C118.817 103.74 118.986 103.976 119.189 103.976C119.357 103.976 119.425 104.111 119.324 104.314C119.222 104.483 119.29 104.651 119.458 104.651C119.661 104.651 119.83 104.887 119.83 105.157C119.83 105.427 119.998 105.663 120.167 105.663C120.369 105.663 120.504 105.899 120.504 106.169C120.504 106.439 120.673 106.675 120.842 106.675C121.044 106.675 121.179 106.912 121.179 107.181C121.179 107.451 121.348 107.688 121.516 107.688C121.719 107.688 121.854 107.991 121.854 108.396V109.071L122.191 108.868L122.528 108.666V109.172C122.528 109.476 122.697 109.712 122.866 109.712C123.068 109.712 123.203 109.948 123.203 110.218C123.203 110.488 123.372 110.724 123.541 110.724C123.743 110.724 123.878 110.96 123.878 111.23C123.878 111.5 124.047 111.736 124.215 111.736C124.418 111.736 124.553 111.905 124.553 112.141C124.553 112.343 124.924 113.018 125.396 113.625C125.868 114.232 126.24 114.873 126.24 115.076C126.24 115.278 126.408 115.447 126.577 115.447C126.779 115.447 126.914 115.683 126.914 115.953C126.914 116.223 127.083 116.459 127.252 116.459C127.454 116.459 127.589 116.695 127.589 116.965C127.589 117.235 127.758 117.471 127.926 117.471C128.129 117.471 128.264 117.707 128.264 117.977C128.264 118.247 128.432 118.483 128.601 118.483C128.804 118.483 128.938 118.719 128.938 118.989C128.938 119.259 129.107 119.495 129.276 119.495C129.478 119.495 129.613 119.664 129.613 119.9C129.613 120.103 129.984 120.777 130.457 121.385C130.929 121.992 131.3 122.633 131.3 122.835C131.3 123.038 131.469 123.206 131.637 123.206C131.84 123.206 131.975 123.443 131.975 123.712C131.975 123.982 132.143 124.219 132.312 124.219C132.515 124.219 132.65 124.455 132.65 124.725C132.65 124.994 132.818 125.231 132.987 125.231C133.189 125.231 133.324 125.433 133.324 125.703C133.324 125.973 133.425 126.243 133.594 126.31C133.965 126.479 136.023 129.515 136.023 129.92C136.023 130.122 136.192 130.291 136.361 130.291C136.563 130.291 136.698 130.527 136.698 130.797C136.698 131.067 136.867 131.303 137.035 131.303C137.238 131.303 137.373 131.472 137.373 131.641C137.373 132.147 138.452 133.26 139.059 133.361C139.937 133.496 141.421 132.923 141.421 132.45C141.421 132.18 141.59 131.978 141.758 131.978C141.961 131.978 142.096 131.742 142.096 131.472C142.096 131.202 142.264 130.966 142.433 130.966C142.636 130.966 142.771 130.73 142.771 130.46C142.771 130.19 142.939 129.954 143.108 129.954C143.31 129.954 143.445 129.718 143.445 129.448C143.445 129.178 143.614 128.942 143.783 128.942C143.985 128.942 144.12 128.706 144.12 128.436C144.12 128.166 144.289 127.93 144.457 127.93C144.66 127.93 144.795 127.693 144.795 127.424C144.795 127.154 144.963 126.917 145.132 126.917C145.335 126.917 145.469 126.749 145.469 126.546C145.469 126.344 145.706 125.973 145.976 125.703L146.448 125.197L143.985 121.418C142.636 119.36 137.946 112.141 133.56 105.393L125.565 93.1807V92.3711C125.565 91.9325 125.767 91.4264 126.003 91.224L126.408 90.8867L130.693 90.7517L134.977 90.6505L135.888 89.942C136.394 89.5709 137.136 88.8287 137.508 88.3227L138.216 87.378L138.182 83.1272V78.8426L137.271 75.2328C136.259 71.1169 134.438 66.0227 132.818 62.8177C129.984 57.1837 125.126 51.0773 120.774 47.7711C119.728 46.9614 118.817 46.2867 118.75 46.2867C118.683 46.2867 116.76 47.535 114.465 49.0531Z" fill="#E7B007" fill-opacity="0.5"/>
<path d="M119.488 15.6962C119.353 15.9324 119.319 16.2023 119.42 16.3035C119.724 16.6071 120.061 16.1685 119.892 15.6962L119.758 15.2576L119.488 15.6962Z" fill="#C9D7E3"/>
<path d="M126.033 18.0916C126.033 18.2603 126.269 18.429 126.573 18.429H127.079L126.877 18.0916C126.775 17.8892 126.539 17.7542 126.337 17.7542C126.168 17.7542 126.033 17.8892 126.033 18.0916Z" fill="#C9D7E3"/>
<g filter="url(#filter1_b_438_130)">
<path d="M112.54 59.7563C106.805 60.9033 101.778 62.9613 96.9199 66.2L93.5462 68.4604L90.7798 71.193C87.6423 74.3306 84.8759 78.0416 84.8759 79.1549V79.9309L92.6353 91.8062C96.9199 98.3511 100.395 103.918 100.395 104.188C100.395 104.457 100.057 104.997 99.6188 105.402L98.8429 106.144H88.6207H78.3984L78.6009 107.055C78.7021 107.595 78.8708 108.675 79.0057 109.518C79.3093 111.745 81.0636 117.075 82.4131 119.909C83.7963 122.81 86.4278 126.825 88.7556 129.558C90.5099 131.582 95.8066 136.17 96.4138 136.17C96.5825 136.17 101.778 132.898 107.918 128.849L119.119 121.562H120.063C120.569 121.562 121.278 121.798 121.581 122.135L122.155 122.709L122.256 133.134L122.357 143.592H123.471C125.124 143.592 130.218 142.647 132.951 141.871C136.493 140.826 142.397 137.857 145.568 135.495C148.942 132.999 152.282 129.693 154.542 126.589C155.453 125.374 156.297 124.362 156.431 124.362C156.566 124.362 157.477 125.61 158.456 127.129L160.244 129.895L160.379 129.423C160.48 129.153 160.379 128.883 160.176 128.815C159.94 128.748 159.771 128.478 159.771 128.208C159.771 127.938 159.636 127.736 159.434 127.736C159.265 127.736 159.097 127.5 159.097 127.23C159.097 126.96 158.962 126.724 158.759 126.724C158.591 126.724 158.422 126.488 158.422 126.218C158.422 125.948 158.287 125.712 158.085 125.712C157.916 125.712 157.747 125.475 157.747 125.206C157.747 124.936 157.612 124.699 157.41 124.699C157.241 124.699 157.072 124.463 157.072 124.193C157.072 123.924 156.938 123.687 156.735 123.687C156.566 123.687 156.398 123.552 156.398 123.35C156.398 123.181 152.957 117.75 148.739 111.306C144.522 104.829 141.048 99.2283 140.946 98.8234L140.811 98.1149L141.52 97.4065L142.228 96.698H152.518H162.841L162.639 95.416C161.863 90.6591 160.682 86.7794 158.894 82.9672C157.174 79.3573 154.104 74.9378 151.27 72.0365C148.402 69.0676 145.433 66.6723 144.657 66.6723C144.32 66.6723 139.091 69.9448 132.951 73.9257C126.844 77.9067 121.548 81.1791 121.244 81.1791C120.907 81.1791 120.333 80.8755 119.962 80.5044L119.287 79.8296V69.5399V59.2503L117.027 59.284C115.745 59.284 113.755 59.5201 112.54 59.7563Z" fill="#FDFDFD" fill-opacity="0.18"/>
</g>
<path d="M205.652 96.8331C205.652 97.1367 205.889 97.4741 206.158 97.609C207.002 97.9127 207.069 97.5416 206.327 96.8668L205.652 96.2596V96.8331Z" fill="#C9D7E3"/>
<path d="M205.988 100.274V100.814L206.494 100.409C206.764 100.173 207 99.9369 207 99.8694C207 99.8019 206.764 99.7345 206.494 99.7345C206.224 99.7345 205.988 99.9706 205.988 100.274Z" fill="#C9D7E3"/>
<path d="M35.8216 100.713C35.6867 100.949 35.653 101.219 35.7542 101.32C36.0578 101.624 36.3952 101.185 36.2265 100.713L36.0915 100.274L35.8216 100.713Z" fill="#C9D7E3"/>
<path d="M161.455 131.616C161.455 131.683 162.332 133.1 163.378 134.719L165.301 137.654L165.436 137.182C165.537 136.912 165.436 136.642 165.234 136.575C164.997 136.507 164.829 136.237 164.829 135.968C164.829 135.698 164.694 135.495 164.491 135.495C164.323 135.495 164.154 135.259 164.154 134.989C164.154 134.719 164.019 134.483 163.817 134.483C163.648 134.483 163.479 134.247 163.479 133.977C163.479 133.707 163.344 133.471 163.142 133.471C162.973 133.471 162.805 133.235 162.805 132.965C162.805 132.695 162.67 132.459 162.467 132.459C162.298 132.459 162.13 132.223 162.13 131.953C162.13 131.683 161.995 131.447 161.792 131.447C161.624 131.447 161.455 131.514 161.455 131.616Z" fill="#C9D7E3"/>
<path d="M93.309 137.857C93.309 138.026 93.0728 138.194 92.8029 138.194C92.533 138.194 92.2969 138.329 92.2969 138.532C92.2969 139.038 92.7017 138.936 93.6463 138.194L94.4898 137.519H93.9162C93.5789 137.519 93.309 137.654 93.309 137.857Z" fill="#C9D7E3"/>
<path d="M166.516 139.442C166.516 139.611 166.819 140.083 167.19 140.556L167.865 141.399V140.792C167.865 140.488 167.73 140.218 167.528 140.218C167.359 140.218 167.19 139.982 167.19 139.712C167.19 139.442 167.055 139.206 166.853 139.206C166.684 139.206 166.516 139.307 166.516 139.442Z" fill="#C9D7E3"/>
<path d="M167.865 142.074C167.865 142.344 168.034 142.58 168.203 142.58C168.405 142.58 168.54 142.816 168.54 143.086C168.54 143.356 168.709 143.592 168.877 143.592C169.08 143.592 169.215 143.828 169.215 144.098C169.215 144.368 169.451 144.604 169.721 144.604C169.991 144.604 170.227 144.368 170.227 144.098C170.227 143.828 170.092 143.592 169.889 143.592C169.721 143.592 169.552 143.356 169.552 143.086C169.552 142.816 169.417 142.58 169.215 142.58C169.046 142.58 168.877 142.344 168.877 142.074C168.877 141.804 168.641 141.568 168.371 141.568C168.101 141.568 167.865 141.804 167.865 142.074Z" fill="#C9D7E3"/>
<path d="M85.5512 142.918C85.5512 143.086 85.315 143.255 85.0451 143.255C84.7752 143.255 84.5391 143.39 84.5391 143.592C84.5391 144.098 84.9439 143.997 85.8885 143.255L86.7319 142.58H86.1584C85.8211 142.58 85.5512 142.715 85.5512 142.918Z" fill="#C9D7E3"/>
<path d="M76.7793 148.653C76.7793 148.821 76.9142 148.99 77.0829 148.99C77.2853 148.99 77.5215 148.821 77.6227 148.653L77.8251 148.315H77.3191C77.0155 148.315 76.7793 148.45 76.7793 148.653Z" fill="#C9D7E3"/>
<path d="M119.654 15.7637L118.946 16.5397V24.3329V32.1598L115.505 32.3959C102.111 33.3406 88.8866 38.4348 77.9559 46.9027C75.3919 48.8932 69.0156 54.8646 69.0156 55.2694C69.0156 55.8767 84.2646 79.155 84.6357 79.155C84.8719 79.155 85.7153 78.1092 86.5587 76.8609C87.4021 75.6127 89.3589 73.3186 90.9445 71.733L93.8121 68.8316L97.2195 66.5712C99.1088 65.323 102.044 63.6699 103.764 62.9277C107.745 61.2071 112.603 59.9588 116.18 59.6889L118.946 59.4865V69.8437V80.1671L119.621 80.8419L120.295 81.5166H121.24H122.151L133.284 74.2632C139.424 70.2823 144.552 67.0098 144.721 67.0098C144.856 67.0098 146.846 65.829 149.107 64.3446C151.333 62.8939 156.529 59.5203 160.577 56.8888C164.659 54.2573 168.404 51.6596 168.944 51.1198C169.484 50.58 170.057 50.1415 170.226 50.1415C170.361 50.1415 170.631 49.7366 170.799 49.1968L171.137 48.2859L170.833 47.4425C170.698 46.9702 170.057 46.2617 169.45 45.8569C168.876 45.4858 158.047 38.4348 145.429 30.2031L122.488 15.2577L121.442 15.1227L120.397 14.9878L119.654 15.7637Z" fill="#FFD12F"/>
<path d="M160.812 56.1803C156.629 58.913 153.187 61.3083 153.12 61.5107C153.052 61.7132 153.727 62.4216 154.638 63.0626C158.653 66.0315 163.848 72.5426 166.682 78.1429C168.301 81.3817 170.123 86.4422 171.135 90.5581L172.012 94.1679L172.046 98.1151L172.08 102.029L171.371 102.973C171 103.479 170.258 104.221 169.752 104.593L168.841 105.301L164.557 105.402L160.272 105.537L159.867 105.875C159.631 106.077 159.429 106.752 159.429 107.359V108.472L169.786 124.362C175.454 133.066 180.21 140.219 180.312 140.219C180.413 140.219 185.676 132.29 191.985 122.574C198.293 112.892 203.556 104.896 203.691 104.862C203.86 104.795 203.961 104.593 203.961 104.39C203.961 104.188 204.501 103.277 205.142 102.4C205.783 101.489 206.323 100.578 206.323 100.409C206.323 100.207 206.491 100.072 206.66 100.072C206.862 100.072 206.997 99.532 206.997 98.891V97.7102L206.289 97.0018L205.614 96.327L197.72 96.3608H189.825L189.657 95.2812C189.556 94.6739 189.319 92.8859 189.117 91.3003C188.274 84.9915 185.575 76.3886 182.505 70.316C179.637 64.6145 175.184 58.3058 170.697 53.6164L168.369 51.1873L160.812 56.1803Z" fill="#FECA2A"/>
<path d="M140.537 98.7224C140.537 99.2622 140.706 99.7345 140.874 99.7345C141.077 99.7345 141.212 99.2622 141.212 98.7224C141.212 98.1488 141.077 97.7103 140.874 97.7103C140.706 97.7103 140.537 98.1488 140.537 98.7224Z" fill="#066DAD"/>
<path d="M143.034 103.344C144.181 105.166 147.589 110.395 150.591 115.017C153.594 119.605 156.057 123.519 156.057 123.654C156.057 123.822 156.191 124.025 156.326 124.092C156.495 124.126 157.102 124.936 157.743 125.847L158.89 127.533L159.025 127.061C159.127 126.791 159.025 126.521 158.823 126.454C158.587 126.386 158.418 126.117 158.418 125.847C158.418 125.577 158.283 125.374 158.081 125.374C157.912 125.374 157.743 125.138 157.743 124.868C157.743 124.598 157.608 124.362 157.406 124.362C157.237 124.362 157.069 124.126 157.069 123.856C157.069 123.586 156.934 123.35 156.731 123.35C156.563 123.35 156.394 123.114 156.394 122.844C156.394 122.574 156.259 122.338 156.057 122.338C155.888 122.338 155.719 122.102 155.719 121.832C155.719 121.562 155.584 121.326 155.382 121.326C155.213 121.326 155.044 121.09 155.044 120.82C155.044 120.55 154.909 120.314 154.741 120.314C154.572 120.314 154.336 119.943 154.235 119.47C154.1 118.998 153.864 118.627 153.695 118.627C153.493 118.627 153.358 118.391 153.358 118.121C153.358 117.851 153.223 117.615 153.02 117.615C152.852 117.615 152.683 117.379 152.683 117.109C152.683 116.839 152.548 116.603 152.345 116.603C152.177 116.603 152.008 116.367 152.008 116.097C152.008 115.827 151.873 115.591 151.671 115.591C151.502 115.591 151.333 115.354 151.333 115.085C151.333 114.815 151.198 114.579 150.996 114.579C150.827 114.579 150.659 114.342 150.659 114.072C150.659 113.803 150.524 113.566 150.321 113.566C150.153 113.566 149.984 113.33 149.984 113.06C149.984 112.791 149.849 112.554 149.68 112.554C149.512 112.554 149.275 112.183 149.174 111.711C149.039 111.239 148.803 110.868 148.634 110.868C148.432 110.868 148.297 110.631 148.297 110.361C148.297 110.092 148.162 109.855 147.96 109.855C147.791 109.855 147.622 109.619 147.622 109.349C147.622 109.079 147.487 108.843 147.285 108.843C147.116 108.843 146.948 108.607 146.948 108.337C146.948 108.067 146.813 107.831 146.61 107.831C146.442 107.831 146.273 107.595 146.273 107.325C146.273 107.055 146.138 106.819 145.936 106.819C145.767 106.819 145.598 106.583 145.598 106.313C145.598 106.043 145.463 105.807 145.261 105.807C145.092 105.807 144.923 105.571 144.923 105.301C144.923 105.031 144.788 104.795 144.62 104.795C144.451 104.795 144.215 104.424 144.114 103.951C143.979 103.479 143.743 103.108 143.574 103.108C143.372 103.108 143.237 102.872 143.237 102.602C143.237 102.332 143.102 102.096 142.899 102.096C142.731 102.096 142.562 101.86 142.562 101.59C142.562 101.32 142.427 101.084 142.224 101.084C142.056 101.084 141.887 100.848 141.887 100.578C141.887 100.308 141.651 100.072 141.381 100.072H140.875L143.034 103.344Z" fill="#066DAD"/>
<path d="M160.105 129.423C160.105 129.625 160.983 131.008 162.028 132.526L163.951 135.259L164.086 134.821C164.188 134.551 164.086 134.281 163.884 134.213C163.648 134.146 163.479 133.876 163.479 133.606C163.479 133.336 163.344 133.134 163.142 133.134C162.973 133.134 162.804 132.898 162.804 132.628C162.804 132.358 162.669 132.122 162.467 132.122C162.298 132.122 162.13 131.885 162.13 131.616C162.13 131.346 161.995 131.11 161.792 131.11C161.624 131.11 161.455 130.873 161.455 130.603C161.455 130.334 161.32 130.097 161.118 130.097C160.949 130.097 160.78 129.861 160.78 129.591C160.78 129.321 160.645 129.085 160.443 129.085C160.274 129.085 160.105 129.254 160.105 129.423Z" fill="#066DAD"/>
<path d="M165.166 137.182C165.166 137.621 167.966 141.838 168.304 141.872C168.438 141.905 168.54 141.669 168.54 141.399C168.54 141.129 168.405 140.893 168.202 140.893C168.034 140.893 167.865 140.657 167.865 140.387C167.865 140.117 167.73 139.881 167.528 139.881C167.359 139.881 167.19 139.645 167.19 139.375C167.19 139.105 167.055 138.869 166.853 138.869C166.684 138.869 166.515 138.633 166.515 138.363C166.515 138.093 166.381 137.857 166.178 137.857C166.009 137.857 165.841 137.621 165.841 137.351C165.841 137.081 165.706 136.845 165.503 136.845C165.335 136.845 165.166 136.98 165.166 137.182Z" fill="#066DAD"/>
<path d="M179.334 141.062C179.334 141.332 179.199 141.568 178.997 141.568C178.828 141.568 178.659 141.804 178.659 142.074C178.659 142.344 178.524 142.58 178.322 142.58C178.153 142.58 177.984 142.816 177.984 143.086C177.984 143.356 177.85 143.592 177.647 143.592C177.478 143.592 177.31 143.828 177.31 144.098C177.31 144.368 177.175 144.604 176.972 144.604C176.804 144.604 176.635 144.84 176.635 145.11C176.635 145.38 176.5 145.616 176.298 145.616C176.129 145.616 175.96 145.853 175.96 146.122C175.96 146.392 175.825 146.628 175.623 146.628C175.454 146.628 175.286 146.865 175.286 147.135C175.286 147.404 175.049 147.641 174.779 147.641C174.51 147.641 174.273 147.776 174.273 147.978C174.273 148.551 174.779 148.349 175.522 147.539C175.893 147.135 177.141 145.38 178.288 143.66L180.38 140.556H179.84C179.57 140.556 179.334 140.792 179.334 141.062Z" fill="#066DAD"/>
<path d="M169.112 143.154C168.708 143.525 168.842 143.93 169.382 143.93C169.652 143.93 169.888 143.693 169.888 143.424C169.888 142.884 169.483 142.749 169.112 143.154Z" fill="#066DAD"/>
<path d="M169.686 144.334L169.416 144.739L169.821 144.874C170.057 144.942 170.226 145.212 170.226 145.482C170.226 145.785 170.394 145.886 170.563 145.785L170.9 145.583V146.291V147L171.238 146.797L171.575 146.595V147.236V147.877H172.081C172.351 147.877 172.587 147.674 172.587 147.405C172.587 147.168 172.452 146.966 172.25 146.966C172.081 146.966 171.913 146.73 171.913 146.46C171.913 146.19 171.778 145.954 171.575 145.954C171.406 145.954 171.238 145.718 171.238 145.448C171.238 145.178 171.103 144.942 170.9 144.942C170.732 144.942 170.563 144.706 170.563 144.436C170.563 143.828 170.023 143.761 169.686 144.334Z" fill="#066DAD"/>
<path d="M122.829 15.7299C122.93 15.8986 123.099 16.0673 123.2 16.0673C123.302 16.0673 123.268 15.8986 123.167 15.7299C123.065 15.5275 122.897 15.3925 122.795 15.3925C122.694 15.3925 122.728 15.5275 122.829 15.7299Z" fill="#FEB13C"/>
<path d="M128.564 19.441C128.665 19.6096 128.833 19.7783 128.935 19.7783C129.036 19.7783 129.002 19.6096 128.901 19.441C128.8 19.2385 128.631 19.1036 128.53 19.1036C128.429 19.1036 128.462 19.2385 128.564 19.441Z" fill="#FEB13C"/>
<path d="M129.573 20.1157C129.675 20.2844 129.843 20.4531 129.944 20.4531C130.046 20.4531 130.012 20.2844 129.911 20.1157C129.81 19.9133 129.641 19.7783 129.54 19.7783C129.438 19.7783 129.472 19.9133 129.573 20.1157Z" fill="#FEB13C"/>
<path d="M136.323 24.5015C136.425 24.6702 136.593 24.8389 136.694 24.8389C136.796 24.8389 136.762 24.6702 136.661 24.5015C136.56 24.2991 136.391 24.1641 136.29 24.1641C136.188 24.1641 136.222 24.2991 136.323 24.5015Z" fill="#FEB13C"/>
<path d="M137.337 25.1762C137.438 25.3449 137.607 25.5135 137.708 25.5135C137.809 25.5135 137.776 25.3449 137.674 25.1762C137.573 24.9738 137.405 24.8388 137.303 24.8388C137.202 24.8388 137.236 24.9738 137.337 25.1762Z" fill="#FEB13C"/>
<path d="M144.081 29.562C144.182 29.7307 144.351 29.8994 144.452 29.8994C144.553 29.8994 144.52 29.7307 144.419 29.562C144.317 29.3596 144.149 29.2247 144.047 29.2247C143.946 29.2247 143.98 29.3596 144.081 29.562Z" fill="#FEB13C"/>
<path d="M145.095 30.2368C145.196 30.4055 145.365 30.5742 145.466 30.5742C145.567 30.5742 145.533 30.4055 145.432 30.2368C145.331 30.0344 145.162 29.8994 145.061 29.8994C144.96 29.8994 144.994 30.0344 145.095 30.2368Z" fill="#FEB13C"/>
<path d="M116.689 32.4971C116.824 32.5983 117.027 32.5983 117.162 32.4971C117.263 32.3621 117.162 32.2609 116.926 32.2609C116.689 32.2609 116.588 32.3621 116.689 32.4971Z" fill="#FEB13C"/>
<path d="M109.941 33.1718C110.076 33.273 110.279 33.273 110.414 33.1718C110.515 33.0368 110.414 32.9356 110.177 32.9356C109.941 32.9356 109.84 33.0368 109.941 33.1718Z" fill="#FEB13C"/>
<path d="M103.193 34.5213C103.328 34.6225 103.531 34.6225 103.666 34.5213C103.767 34.3863 103.666 34.2851 103.43 34.2851C103.193 34.2851 103.092 34.3863 103.193 34.5213Z" fill="#FEB13C"/>
<path d="M151.843 34.6225C151.944 34.7912 152.113 34.9599 152.214 34.9599C152.315 34.9599 152.281 34.7912 152.18 34.6225C152.079 34.4201 151.91 34.2852 151.809 34.2852C151.708 34.2852 151.742 34.4201 151.843 34.6225Z" fill="#FEB13C"/>
<path d="M100.832 35.196C100.967 35.2972 101.169 35.2972 101.304 35.196C101.406 35.0611 101.304 34.9598 101.068 34.9598C100.832 34.9598 100.731 35.0611 100.832 35.196Z" fill="#FEB13C"/>
<path d="M152.855 35.2972C152.956 35.4659 153.125 35.6346 153.226 35.6346C153.327 35.6346 153.293 35.4659 153.192 35.2972C153.091 35.0948 152.922 34.9598 152.821 34.9598C152.72 34.9598 152.753 35.0948 152.855 35.2972Z" fill="#FEB13C"/>
<path d="M95.7735 36.8828C95.9084 36.984 96.1108 36.984 96.2458 36.8828C96.347 36.7479 96.2458 36.6467 96.0096 36.6467C95.7735 36.6467 95.6722 36.7479 95.7735 36.8828Z" fill="#FEB13C"/>
<path d="M91.7227 38.5697C91.8576 38.6709 92.06 38.6709 92.195 38.5697C92.2962 38.4348 92.195 38.3336 91.9588 38.3336C91.7227 38.3336 91.6215 38.4348 91.7227 38.5697Z" fill="#FEB13C"/>
<path d="M159.603 39.683C159.704 39.8517 159.873 40.0204 159.974 40.0204C160.075 40.0204 160.041 39.8517 159.94 39.683C159.839 39.4806 159.67 39.3456 159.569 39.3456C159.468 39.3456 159.502 39.4806 159.603 39.683Z" fill="#FEB13C"/>
<path d="M160.614 40.3577C160.716 40.5264 160.884 40.6951 160.985 40.6951C161.087 40.6951 161.053 40.5264 160.952 40.3577C160.851 40.1553 160.682 40.0203 160.581 40.0203C160.479 40.0203 160.513 40.1553 160.614 40.3577Z" fill="#FEB13C"/>
<path d="M66.1497 54.8645L65.9473 55.2019H66.4533C66.7569 55.2019 66.9931 55.0332 66.9931 54.8645C66.9931 54.6621 66.8582 54.5272 66.6895 54.5272C66.4871 54.5272 66.2509 54.6621 66.1497 54.8645Z" fill="#FEB13C"/>
<path d="M68.0078 54.8645C68.0078 55.0332 68.244 55.2019 68.5476 55.2019H69.0537L68.8512 54.8645C68.75 54.6621 68.5139 54.5272 68.3114 54.5272C68.1428 54.5272 68.0078 54.6621 68.0078 54.8645Z" fill="#FEB13C"/>
<path d="M61.2582 61.8481C48.3708 81.5503 34.5725 102.838 34.4038 103.277C34.2689 103.547 34.3363 103.783 34.505 103.783C34.7074 103.783 35.1123 103.209 35.4834 102.501C35.8208 101.826 36.2256 101.185 36.3943 101.151C36.5292 101.084 36.6304 100.814 36.6304 100.544C36.6304 100.274 36.7991 100.072 36.9678 100.072C37.1702 100.072 37.3052 99.8356 37.3052 99.5657C37.3052 99.2959 37.4739 99.0597 37.6425 99.0597C37.845 99.0597 37.9799 98.8235 37.9799 98.5536C37.9799 98.2838 38.1486 98.0476 38.3173 98.0476C38.5197 98.0476 38.6546 97.8114 38.6546 97.5415C38.6546 97.2717 38.8233 97.0355 38.992 97.0355C39.1944 97.0355 39.3294 96.7993 39.3294 96.5294C39.3294 96.2596 39.4643 96.0234 39.6667 96.0234C39.8354 96.0234 40.0716 95.6523 40.2065 95.18C40.3077 94.7077 40.5439 94.3366 40.7126 94.3366C40.8813 94.3366 41.0162 94.1004 41.0162 93.8305C41.0162 93.5606 41.1849 93.3245 41.3536 93.3245C41.556 93.3245 41.691 93.0883 41.691 92.8184C41.691 92.5485 41.8596 92.3124 42.0283 92.3124C42.2307 92.3124 42.3657 92.0762 42.3657 91.8063C42.3657 91.5364 42.5344 91.3003 42.7031 91.3003C42.9055 91.3003 43.0404 91.0641 43.0404 90.7942C43.0404 90.5243 43.2091 90.2882 43.3778 90.2882C43.5802 90.2882 43.7152 90.052 43.7152 89.7821C43.7152 89.5122 43.8838 89.2761 44.0525 89.2761C44.2549 89.2761 44.3899 89.0399 44.3899 88.77C44.3899 88.5001 44.5248 88.2639 44.7273 88.2639C44.8959 88.2639 45.1321 87.8928 45.267 87.4205C45.3683 86.9482 45.6044 86.5771 45.7731 86.5771C45.9418 86.5771 46.0767 86.341 46.0767 86.0711C46.0767 85.8012 46.2454 85.565 46.4141 85.565C46.6165 85.565 46.7515 85.3289 46.7515 85.059C46.7515 84.7891 46.9201 84.5529 47.0888 84.5529C47.2912 84.5529 47.4262 84.3168 47.4262 84.0469C47.4262 83.777 47.5949 83.5408 47.7636 83.5408C47.966 83.5408 48.1009 83.3047 48.1009 83.0348C48.1009 82.7649 48.2696 82.5287 48.4383 82.5287C48.6407 82.5287 48.7757 82.2926 48.7757 82.0227C48.7757 81.7528 48.9443 81.5166 49.113 81.5166C49.3154 81.5166 49.4504 81.2804 49.4504 81.0106C49.4504 80.7407 49.5853 80.5045 49.7878 80.5045C49.9564 80.5045 50.1926 80.1334 50.3276 79.6611C50.4288 79.1888 50.6649 78.8177 50.8336 78.8177C51.0023 78.8177 51.1372 78.5815 51.1372 78.3116C51.1372 78.0417 51.3059 77.8056 51.4746 77.8056C51.677 77.8056 51.812 77.5694 51.812 77.2995C51.812 77.0296 51.9806 76.7935 52.1493 76.7935C52.3518 76.7935 52.4867 76.5573 52.4867 76.2874C52.4867 76.0175 52.6554 75.7814 52.8241 75.7814C53.0265 75.7814 53.1614 75.5452 53.1614 75.2753C53.1614 75.0054 53.3301 74.7693 53.4988 74.7693C53.7012 74.7693 53.8362 74.5331 53.8362 74.2632C53.8362 73.9933 54.0049 73.7572 54.1735 73.7572C54.376 73.7572 54.5109 73.521 54.5109 73.2511C54.5109 72.9812 54.6459 72.7451 54.8483 72.7451C55.017 72.7451 55.2531 72.374 55.3881 71.9016C55.4893 71.4293 55.7254 71.0582 55.8941 71.0582C56.0628 71.0582 56.1977 70.8221 56.1977 70.5522C56.1977 70.2823 56.3664 70.0461 56.5351 70.0461C56.7375 70.0461 56.8725 69.81 56.8725 69.5401C56.8725 69.2702 57.0412 69.034 57.2098 69.034C57.4123 69.034 57.5472 68.7979 57.5472 68.528C57.5472 68.2581 57.7159 68.0219 57.8846 68.0219C58.087 68.0219 58.2219 67.7858 58.2219 67.5159C58.2219 67.246 58.3906 67.0098 58.5593 67.0098C58.7617 67.0098 58.8967 66.7737 58.8967 66.5038C58.8967 66.2339 59.0654 65.9977 59.234 65.9977C59.4365 65.9977 59.5714 65.7616 59.5714 65.4917C59.5714 65.2218 59.7064 64.9856 59.9088 64.9856C60.0775 64.9856 60.3136 64.6145 60.4486 64.1422C60.5498 63.6699 60.7859 63.2988 60.9546 63.2988C61.1233 63.2988 61.2582 63.0626 61.2582 62.7927C61.2582 62.5228 61.4269 62.2867 61.5956 62.2867C61.798 62.2867 61.933 62.0505 61.933 61.7806C61.933 61.5107 62.1017 61.2746 62.2703 61.2746C62.4728 61.2746 62.6077 61.0384 62.6077 60.7685C62.6077 60.4986 62.7764 60.2625 62.9451 60.2625C63.1475 60.2625 63.2825 60.0263 63.2825 59.7564C63.2825 59.4865 63.4511 59.2504 63.6198 59.2504C63.8222 59.2504 63.9572 59.0142 63.9572 58.7443C63.9572 58.4744 64.1259 58.2383 64.2946 58.2383C64.497 58.2383 64.6319 58.0021 64.6319 57.7322C64.6319 57.4623 64.7669 57.2262 64.9356 57.2262C65.3067 57.2262 65.8127 55.9104 65.5428 55.6743C65.4753 55.5731 63.5186 58.3732 61.2582 61.8481Z" fill="#FEB13C"/>
<path d="M62.9804 78.1766C57.1776 87.0831 52.3196 94.6739 52.2521 95.045C52.1509 95.3823 52.3196 96.0571 52.6232 96.5294L53.163 97.3728H56.4692H59.7754L61.2598 98.115L62.7779 98.891L63.4189 100.038L64.0937 101.219L64.3298 106.448C64.4648 109.349 64.8359 112.959 65.1058 114.444C65.848 118.256 67.4336 123.789 68.6481 126.859C71.0097 132.763 74.8219 139.476 78.4992 144.166C79.4101 145.346 80.1523 146.359 80.1523 146.46C80.1523 146.561 79.9162 146.628 79.6463 146.628C79.3764 146.628 79.1402 146.763 79.1402 146.932C79.1402 147.101 78.8029 147.303 78.3643 147.438C77.9595 147.539 77.2847 147.91 76.8799 148.315C76.475 148.686 75.969 148.99 75.7666 148.99C75.2605 148.99 75.5304 149.766 76.1039 149.935C76.3401 150.036 76.4413 149.968 76.3738 149.8C76.2726 149.631 80.8608 146.46 86.5623 142.749L96.9532 136.001L96.3797 135.698C94.9628 134.888 90.7457 131.143 89.0251 129.119C86.6298 126.319 84.1333 122.54 82.7163 119.47C81.2657 116.468 79.6463 111.306 79.2415 108.573L78.9041 106.482H89.0926H99.2811L99.9895 105.706C100.394 105.267 100.732 104.559 100.732 104.12V103.344L92.9723 91.4689C88.7215 84.924 85.2129 79.4249 85.2129 79.2225C85.2129 78.9863 85.0779 78.8176 84.9092 78.8176C84.7405 78.8176 82.1428 75.0054 79.1402 70.3834C76.1377 65.7278 73.6412 61.9493 73.6074 61.9493C73.6074 61.9493 68.8168 69.2364 62.9804 78.1766Z" fill="#FEB13C"/>
<path d="M34.2695 104.761C34.2695 104.964 34.4382 105.2 34.6069 105.301L34.9443 105.503V104.997C34.9443 104.694 34.8093 104.458 34.6069 104.458C34.4382 104.458 34.2695 104.592 34.2695 104.761Z" fill="#FEB13C"/>
<path d="M35.4524 106.144C35.5536 106.313 35.7898 106.482 35.9922 106.482C36.1609 106.482 36.2958 106.313 36.2958 106.144C36.2958 105.942 36.0597 105.807 35.7561 105.807H35.25L35.4524 106.144Z" fill="#FEB13C"/>
<path d="M51.3386 106.65C51.4736 106.92 51.676 107.156 51.8447 107.156C52.0133 107.156 52.1483 106.92 52.1483 106.65C52.1483 106.38 51.9121 106.144 51.6422 106.144H51.1699L51.3386 106.65Z" fill="#FEB13C"/>
<path d="M51.8125 109.855C51.8125 110.226 51.9812 110.53 52.1499 110.53C52.3523 110.53 52.4872 110.226 52.4872 109.855C52.4872 109.484 52.3523 109.181 52.1499 109.181C51.9812 109.181 51.8125 109.484 51.8125 109.855Z" fill="#FEB13C"/>
<path d="M52.1504 112.217C52.1504 112.588 52.3191 112.892 52.4878 112.892C52.6902 112.892 52.8251 112.588 52.8251 112.217C52.8251 111.846 52.6902 111.542 52.4878 111.542C52.3191 111.542 52.1504 111.846 52.1504 112.217Z" fill="#FEB13C"/>
<path d="M52.4902 114.241C52.4902 114.612 52.6589 114.916 52.8276 114.916C53.03 114.916 53.165 114.612 53.165 114.241C53.165 113.87 53.03 113.566 52.8276 113.566C52.6589 113.566 52.4902 113.87 52.4902 114.241Z" fill="#FEB13C"/>
<path d="M52.8242 115.928C52.8242 116.299 52.9929 116.603 53.1616 116.603C53.364 116.603 53.499 116.299 53.499 115.928C53.499 115.557 53.364 115.253 53.1616 115.253C52.9929 115.253 52.8242 115.557 52.8242 115.928Z" fill="#FEB13C"/>
<path d="M53.1621 117.446C53.1621 117.716 53.3308 117.952 53.4995 117.952C53.7019 117.952 53.8368 117.716 53.8368 117.446C53.8368 117.176 53.7019 116.94 53.4995 116.94C53.3308 116.94 53.1621 117.176 53.1621 117.446Z" fill="#FEB13C"/>
<path d="M53.5 118.796C53.5 119.065 53.6687 119.302 53.8374 119.302C54.0398 119.302 54.1747 119.065 54.1747 118.796C54.1747 118.526 54.0398 118.29 53.8374 118.29C53.6687 118.29 53.5 118.526 53.5 118.796Z" fill="#FEB13C"/>
<path d="M54.0389 120.55C54.1739 121.09 54.7811 122.945 55.4221 124.7C56.0631 126.454 56.6704 128.175 56.7716 128.478C56.8728 128.816 57.109 129.085 57.2777 129.085C57.6825 129.085 57.7162 129.22 55.7933 123.789C54.9836 121.495 54.2414 119.639 54.0727 119.639C53.9377 119.639 53.9377 120.044 54.0389 120.55Z" fill="#FEB13C"/>
<path d="M57.5469 129.929C57.5469 130.03 58.0867 131.177 58.7614 132.493C59.4024 133.808 60.0434 134.787 60.1446 134.686C60.4145 134.416 58.1879 129.76 57.8168 129.76C57.6818 129.76 57.5469 129.827 57.5469 129.929Z" fill="#FEB13C"/>
<path d="M60.956 136.676C61.7994 138.059 62.2717 138.43 62.2717 137.722C62.2717 137.418 62.1368 137.182 61.9681 137.182C61.7994 137.182 61.5632 136.811 61.462 136.339C61.3271 135.866 61.0235 135.495 60.7536 135.495H60.2812L60.956 136.676Z" fill="#FEB13C"/>
<path d="M62.6094 139.173C62.6094 139.341 62.913 139.814 63.2841 140.252L63.9251 141.062L63.9588 140.455C63.9588 140.151 63.8239 139.881 63.6215 139.881C63.4528 139.881 63.2841 139.645 63.2841 139.375C63.2841 139.105 63.1492 138.869 62.9467 138.869C62.7781 138.869 62.6094 139.004 62.6094 139.173Z" fill="#FEB13C"/>
<path d="M64.6323 142.243C65.5095 143.491 65.9818 143.795 65.9818 143.086C65.9818 142.816 65.7456 142.479 65.4757 142.378C65.2058 142.243 64.9697 141.973 64.9697 141.703C64.9697 141.433 64.7335 141.231 64.4299 141.231H63.9238L64.6323 142.243Z" fill="#FEB13C"/>
<path d="M65.9825 144.064C65.9825 144.132 66.2186 144.368 66.4885 144.604L66.9946 145.009V144.469C66.9946 144.166 66.7584 143.929 66.4885 143.929C66.2186 143.929 65.9825 143.997 65.9825 144.064Z" fill="#FEB13C"/>
<path d="M67.8377 146.291C68.5125 147.033 68.8836 146.966 68.5799 146.122C68.445 145.852 68.1076 145.616 67.804 145.616H67.2305L67.8377 146.291Z" fill="#FEB13C"/>
<path d="M71.5501 150.339L72.8996 151.723L73.0008 151.352C73.1695 150.846 71.3814 148.99 70.7404 148.99H70.2344L71.5501 150.339Z" fill="#FEB13C"/>
<path d="M74.4835 150.07C74.6859 150.677 75.4281 150.778 75.4281 150.205C75.4281 149.901 75.192 149.665 74.8884 149.665C74.5847 149.665 74.416 149.833 74.4835 150.07Z" fill="#FEB13C"/>
<path d="M73.4718 150.744C73.6742 151.352 74.4164 151.453 74.4164 150.879C74.4164 150.576 74.1803 150.34 73.8766 150.34C73.573 150.34 73.4043 150.508 73.4718 150.744Z" fill="#FEB13C"/>
<path d="M66.5884 54.6622L65.6775 54.9995L65.2727 55.9442C65.0703 56.4502 64.7666 56.8888 64.598 56.8888C64.4293 56.8888 64.2943 57.1249 64.2943 57.3948C64.2943 57.6647 64.1594 57.9009 63.957 57.9009C63.7883 57.9009 63.6196 58.137 63.6196 58.4069C63.6196 58.6768 63.4846 58.913 63.2822 58.913C63.1135 58.913 62.9449 59.1491 62.9449 59.419C62.9449 59.6889 62.8099 59.9251 62.6075 59.9251C62.4388 59.9251 62.2701 60.1612 62.2701 60.4311C62.2701 60.701 62.1352 60.9372 61.9328 60.9372C61.7641 60.9372 61.5954 61.1733 61.5954 61.4432C61.5954 61.7131 61.4604 61.9493 61.258 61.9493C61.0893 61.9493 60.9207 62.1854 60.9207 62.4553C60.9207 62.7252 60.7857 62.9614 60.617 62.9614C60.4483 62.9614 60.2122 63.3325 60.111 63.8048C59.976 64.2771 59.7399 64.6482 59.5712 64.6482C59.3688 64.6482 59.2338 64.8844 59.2338 65.1543C59.2338 65.4242 59.0989 65.6603 58.8965 65.6603C58.7278 65.6603 58.5591 65.8965 58.5591 66.1664C58.5591 66.4363 58.4241 66.6724 58.2217 66.6724C58.053 66.6724 57.8843 66.9086 57.8843 67.1785C57.8843 67.4484 57.7494 67.6845 57.547 67.6845C57.3783 67.6845 57.2096 67.9207 57.2096 68.1906C57.2096 68.4605 57.0747 68.6966 56.8722 68.6966C56.7036 68.6966 56.5349 68.9328 56.5349 69.2027C56.5349 69.4726 56.3999 69.7087 56.1975 69.7087C56.0288 69.7087 55.8601 69.9449 55.8601 70.2148C55.8601 70.4847 55.7252 70.7208 55.5565 70.7208C55.3878 70.7208 55.1517 71.0919 55.0505 71.5642C54.9155 72.0366 54.6794 72.4077 54.5107 72.4077C54.3083 72.4077 54.1733 72.6438 54.1733 72.9137C54.1733 73.1836 54.0384 73.4198 53.8359 73.4198C53.6673 73.4198 53.4986 73.6559 53.4986 73.9258C53.4986 74.1957 53.3636 74.4319 53.1612 74.4319C52.9925 74.4319 52.8238 74.668 52.8238 74.9379C52.8238 75.2078 52.6889 75.444 52.4865 75.444C52.3178 75.444 52.1491 75.6801 52.1491 75.95C52.1491 76.2199 52.0142 76.4561 51.8117 76.4561C51.6431 76.4561 51.4744 76.6922 51.4744 76.9621C51.4744 77.232 51.3394 77.4682 51.137 77.4682C50.9683 77.4682 50.7996 77.7043 50.7996 77.9742C50.7996 78.2441 50.6647 78.4803 50.496 78.4803C50.3273 78.4803 50.0912 78.8514 49.99 79.3237C49.855 79.796 49.6189 80.1671 49.4502 80.1671C49.2477 80.1671 49.1128 80.4033 49.1128 80.6732C49.1128 80.9431 48.9779 81.1792 48.7754 81.1792C48.6068 81.1792 48.4381 81.4154 48.4381 81.6853C48.4381 81.9552 48.3031 82.1913 48.1007 82.1913C47.932 82.1913 47.7633 82.4275 47.7633 82.6974C47.7633 82.9673 47.6284 83.2034 47.426 83.2034C47.2573 83.2034 47.0886 83.4396 47.0886 83.7095C47.0886 83.9794 46.9537 84.2155 46.7512 84.2155C46.5825 84.2155 46.4139 84.4517 46.4139 84.7216C46.4139 84.9915 46.2789 85.2276 46.0765 85.2276C45.9078 85.2276 45.7391 85.4638 45.7391 85.7337C45.7391 86.0036 45.6042 86.2397 45.4355 86.2397C45.2668 86.2397 45.0307 86.6108 44.9294 87.0831C44.7945 87.5555 44.5583 87.9266 44.3897 87.9266C44.1872 87.9266 44.0523 88.1627 44.0523 88.4326C44.0523 88.7025 43.9173 88.9387 43.7149 88.9387C43.5462 88.9387 43.3776 89.1748 43.3776 89.4447C43.3776 89.7146 43.2426 89.9508 43.0402 89.9508C42.8715 89.9508 42.7028 90.1869 42.7028 90.4568C42.7028 90.7267 42.5679 90.9629 42.3655 90.9629C42.1968 90.9629 42.0281 91.199 42.0281 91.4689C42.0281 91.7388 41.8931 91.975 41.6907 91.975C41.522 91.975 41.3534 92.2111 41.3534 92.481C41.3534 92.7509 41.2521 92.9871 41.1172 92.9871C40.9485 92.9871 40.5437 93.5943 40.2063 94.3365C39.8352 95.0787 39.4304 95.686 39.2617 95.686C39.1267 95.686 38.9918 95.9222 38.9918 96.1921C38.9918 96.462 38.8568 96.6981 38.6544 96.6981C38.4857 96.6981 38.3171 96.9343 38.3171 97.2042C38.3171 97.4741 38.1821 97.7102 37.9797 97.7102C37.811 97.7102 37.6423 97.9464 37.6423 98.2163C37.6423 98.4862 37.5074 98.7223 37.3049 98.7223C37.1363 98.7223 36.9676 98.9585 36.9676 99.2284C36.9676 99.4983 36.8326 99.7344 36.6302 99.7344C36.4615 99.7344 36.2928 99.8694 36.2928 100.072C36.2928 100.24 35.8205 101.151 35.247 102.096L34.2012 103.783L34.4373 104.829L34.6735 105.841L35.5506 106.178L36.4278 106.515L44.0523 106.482H51.6431L51.6768 107.224C51.7105 108.067 52.0816 110.868 52.3178 112.217C52.3853 112.689 52.5539 113.6 52.6552 114.241C52.9588 115.962 53.0937 116.67 53.2962 117.514C53.4311 117.952 53.566 118.56 53.6335 118.863C53.701 119.201 53.9372 119.875 54.1396 120.381C54.342 120.921 54.4095 121.326 54.3083 121.326C54.1733 121.326 54.2745 121.562 54.5107 121.832C54.7468 122.102 54.8143 122.338 54.6794 122.338C54.5444 122.338 54.6119 122.574 54.848 122.844C55.0842 123.114 55.1517 123.35 55.0167 123.35C54.8818 123.35 54.9493 123.586 55.1854 123.856C55.4216 124.126 55.489 124.362 55.3541 124.362C55.2191 124.362 55.2866 124.598 55.5228 124.868C55.7589 125.138 55.8601 125.374 55.7252 125.374C55.5903 125.374 55.7589 125.745 56.0626 126.218C56.3662 126.69 56.5011 127.061 56.3999 127.061C56.265 127.061 56.4337 127.432 56.7373 127.871C57.0072 128.343 57.2771 128.849 57.2771 128.984C57.2771 129.423 60.3809 135.63 60.8532 136.103C61.0556 136.339 61.258 136.777 61.258 137.047C61.258 137.317 61.393 137.52 61.5616 137.52C61.7303 137.52 61.9328 137.789 62.0677 138.093C62.3039 138.903 63.2485 140.32 64.1931 141.399C64.4293 141.635 64.6317 142.007 64.6317 142.175C64.6317 142.378 64.8678 142.58 65.1377 142.715C65.4076 142.816 65.6438 143.086 65.6438 143.322C65.6438 143.592 65.9137 144.031 66.2511 144.334C66.5547 144.638 67.2969 145.481 67.8367 146.156C68.4102 146.831 69.8271 148.383 71.0417 149.564L73.2008 151.723L73.9093 151.352C74.2804 151.149 74.9551 150.677 75.4274 150.306C75.8998 149.901 76.0684 149.732 75.7985 149.867L75.3262 150.103L75.5624 149.732C75.6973 149.496 75.9672 149.327 76.1359 149.327C76.3046 149.327 76.7769 149.024 77.1817 148.653C77.5866 148.315 78.0252 148.079 78.1939 148.18C78.3288 148.282 78.4637 148.18 78.4637 148.012C78.4637 147.809 78.6999 147.641 78.9698 147.641C79.2397 147.641 79.4758 147.472 79.4758 147.303C79.4758 147.101 79.6783 146.966 79.9482 146.966C80.9265 146.966 80.6566 146.089 79.1722 144.267C75.5961 139.881 71.4128 132.56 68.9837 126.521C67.7692 123.451 66.1836 117.919 65.4414 114.106C65.1715 112.622 64.8004 109.012 64.6654 106.111L64.4293 100.881L63.7545 99.7007L63.1135 98.5536L61.5954 97.7777L60.111 97.0355H56.8048H53.4986L52.9588 96.1921L52.419 95.3824L53.1949 94.1004C53.6335 93.3919 58.4241 86.0036 63.8895 77.6706C69.3211 69.3376 73.7406 62.3541 73.6731 62.1517C73.6057 61.9156 72.5936 60.2287 71.379 58.3395L69.1861 54.932L68.3427 54.6284L67.4993 54.3248L66.5884 54.6622ZM75.0901 150.137C75.0901 150.238 74.9214 150.407 74.6852 150.542L74.3141 150.778L74.5503 150.407C74.7864 150.002 75.0901 149.867 75.0901 150.137ZM74.078 150.812C74.078 150.913 73.9093 151.082 73.6731 151.217L73.302 151.453L73.5382 151.082C73.7743 150.677 74.078 150.542 74.078 150.812Z" fill="#FEA40C"/>
<path d="M167.495 142.108C166.146 143.559 161.153 147.438 158.049 149.429C154.675 151.588 149.446 154.287 145.735 155.771C142.159 157.188 136.694 158.673 132.105 159.482L128.226 160.157L122.49 160.359L116.755 160.528L115.507 161.237L114.225 161.945L113.55 163.328L112.875 164.711V167.984V171.223L112.167 171.729C111.762 171.999 111.189 172.134 110.885 172.032C110.581 171.897 102.687 166.803 93.3082 160.697L76.2711 149.597L75.259 150.171C74.7192 150.508 73.7071 151.048 73.0661 151.419C72.4251 151.79 71.548 152.398 71.1431 152.802L70.3672 153.477V154.557V155.636L71.1431 156.311C71.548 156.682 81.2979 163.126 92.8021 170.582C104.306 178.071 114.967 184.987 116.485 185.966C118.037 186.978 119.555 187.787 119.926 187.787C120.264 187.787 120.939 187.484 121.445 187.079L122.322 186.404V178.51V170.649L125.291 170.413C129.339 170.076 135.344 169.063 139.19 168.018C150.391 164.981 161.726 158.268 169.823 149.867L172.32 147.337L172.083 146.966C171.982 146.764 171.712 146.696 171.544 146.831L171.206 147.033L171.307 146.426L171.409 145.785L170.936 145.886L170.498 145.988L170.666 145.482C170.768 145.212 170.633 144.739 170.363 144.368C170.059 144.031 169.958 143.963 170.093 144.233L170.329 144.706L169.958 144.469C169.756 144.334 169.654 144.031 169.756 143.795C169.857 143.525 169.756 143.221 169.519 143.052L169.115 142.816L169.384 143.289L169.654 143.761L169.351 143.491C169.182 143.322 169.047 142.951 169.047 142.648C169.047 142.344 168.878 142.108 168.642 142.142L168.237 142.243L168.406 141.737C168.71 140.995 168.44 141.129 167.495 142.108Z" fill="#544550"/>
<path d="M148.667 64.0409L144.483 66.7736L145.124 67.2459C150.725 71.2943 155.65 77.1982 158.585 83.372C160.036 86.4758 161.419 90.7604 161.925 93.7967L162.33 96.192L151.905 96.3607L141.481 96.5294L141.042 97.1366L140.604 97.7439L140.705 98.9584C140.738 99.6669 140.941 100.274 141.177 100.342C141.379 100.409 141.548 100.679 141.548 100.949C141.548 101.219 141.717 101.421 141.886 101.421C142.088 101.421 142.223 101.657 142.223 101.927C142.223 102.197 142.392 102.433 142.56 102.433C142.763 102.433 142.898 102.669 142.898 102.939C142.898 103.209 143.066 103.445 143.269 103.445C143.437 103.445 143.505 103.58 143.404 103.783C143.302 103.951 143.37 104.12 143.539 104.12C143.741 104.12 143.91 104.356 143.91 104.626C143.91 104.896 144.078 105.132 144.247 105.132C144.45 105.132 144.584 105.368 144.584 105.638C144.584 105.908 144.753 106.144 144.922 106.144C145.124 106.144 145.259 106.38 145.259 106.65C145.259 106.92 145.428 107.156 145.597 107.156C145.799 107.156 145.934 107.393 145.934 107.662C145.934 107.932 146.103 108.169 146.271 108.169C146.474 108.169 146.609 108.405 146.609 108.675C146.609 108.944 146.777 109.181 146.946 109.181C147.148 109.181 147.283 109.417 147.283 109.687C147.283 109.957 147.452 110.193 147.621 110.193C147.823 110.193 147.958 110.429 147.958 110.699C147.958 110.969 148.127 111.205 148.329 111.205C148.498 111.205 148.565 111.34 148.464 111.542C148.363 111.711 148.43 111.88 148.599 111.88C148.802 111.88 148.97 112.116 148.97 112.386C148.97 112.656 149.139 112.892 149.308 112.892C149.51 112.892 149.645 113.128 149.645 113.398C149.645 113.668 149.814 113.904 149.982 113.904C150.185 113.904 150.32 114.14 150.32 114.41C150.32 114.68 150.488 114.916 150.657 114.916C150.859 114.916 150.994 115.152 150.994 115.422C150.994 115.692 151.163 115.928 151.332 115.928C151.534 115.928 151.669 116.164 151.669 116.434C151.669 116.704 151.838 116.94 152.007 116.94C152.209 116.94 152.344 117.176 152.344 117.446C152.344 117.716 152.513 117.952 152.681 117.952C152.884 117.952 153.019 118.188 153.019 118.458C153.019 118.728 153.187 118.964 153.39 118.964C153.558 118.964 153.626 119.099 153.525 119.302C153.423 119.47 153.491 119.639 153.66 119.639C153.862 119.639 154.031 119.875 154.031 120.145C154.031 120.415 154.199 120.651 154.368 120.651C154.571 120.651 154.705 120.887 154.705 121.157C154.705 121.427 154.874 121.663 155.043 121.663C155.245 121.663 155.38 121.899 155.38 122.169C155.38 122.439 155.549 122.675 155.718 122.675C155.92 122.675 156.055 122.979 156.055 123.384V124.059L156.392 123.856L156.73 123.654V124.16C156.73 124.463 156.898 124.7 157.067 124.7C157.269 124.7 157.404 124.936 157.404 125.206C157.404 125.475 157.573 125.712 157.742 125.712C157.944 125.712 158.079 125.948 158.079 126.218C158.079 126.488 158.248 126.724 158.417 126.724C158.619 126.724 158.754 126.892 158.754 127.129C158.754 127.331 159.125 128.006 159.597 128.613C160.07 129.22 160.441 129.861 160.441 130.064C160.441 130.266 160.609 130.435 160.778 130.435C160.98 130.435 161.115 130.671 161.115 130.941C161.115 131.211 161.284 131.447 161.453 131.447C161.655 131.447 161.79 131.683 161.79 131.953C161.79 132.223 161.959 132.459 162.128 132.459C162.33 132.459 162.465 132.695 162.465 132.965C162.465 133.235 162.634 133.471 162.802 133.471C163.005 133.471 163.14 133.707 163.14 133.977C163.14 134.247 163.308 134.483 163.477 134.483C163.679 134.483 163.814 134.652 163.814 134.888C163.814 135.09 164.185 135.765 164.658 136.372C165.13 136.98 165.501 137.621 165.501 137.823C165.501 138.026 165.67 138.194 165.839 138.194C166.041 138.194 166.176 138.43 166.176 138.7C166.176 138.97 166.345 139.206 166.513 139.206C166.716 139.206 166.851 139.442 166.851 139.712C166.851 139.982 167.019 140.218 167.188 140.218C167.39 140.218 167.525 140.421 167.525 140.691C167.525 140.961 167.627 141.231 167.795 141.298C168.166 141.467 170.224 144.503 170.224 144.908C170.224 145.11 170.393 145.279 170.562 145.279C170.764 145.279 170.899 145.515 170.899 145.785C170.899 146.055 171.068 146.291 171.236 146.291C171.439 146.291 171.574 146.46 171.574 146.628C171.574 147.134 172.653 148.248 173.261 148.349C174.138 148.484 175.622 147.91 175.622 147.438C175.622 147.168 175.791 146.966 175.96 146.966C176.162 146.966 176.297 146.73 176.297 146.46C176.297 146.19 176.466 145.954 176.634 145.954C176.837 145.954 176.972 145.718 176.972 145.448C176.972 145.178 177.14 144.942 177.309 144.942C177.511 144.942 177.646 144.705 177.646 144.436C177.646 144.166 177.815 143.929 177.984 143.929C178.186 143.929 178.321 143.693 178.321 143.423C178.321 143.154 178.49 142.917 178.659 142.917C178.861 142.917 178.996 142.681 178.996 142.411C178.996 142.141 179.165 141.905 179.333 141.905C179.536 141.905 179.671 141.737 179.671 141.534C179.671 141.332 179.907 140.961 180.177 140.691L180.649 140.185L178.186 136.406C176.837 134.348 172.147 127.129 167.762 120.381L159.766 108.169V107.359C159.766 106.92 159.968 106.414 160.205 106.212L160.609 105.874L164.894 105.739L169.179 105.638L170.089 104.93C170.595 104.559 171.338 103.817 171.709 103.31L172.417 102.366L172.384 98.115V93.8304L171.473 90.2206C170.461 86.1047 168.639 81.0105 167.019 77.8055C164.185 72.1715 159.327 66.0651 154.975 62.7589C153.93 61.9492 153.019 61.2745 152.951 61.2745C152.884 61.2745 150.961 62.5228 148.667 64.0409Z" fill="#E7B007"/>
<defs>
<filter id="filter0_b_438_130" x="42.1992" y="42.2625" width="88.443" height="88.3418" filterUnits="userSpaceOnUse" color-interpolation-filters="sRGB">
<feFlood flood-opacity="0" result="BackgroundImageFix"/>
<feGaussianBlur in="BackgroundImage" stdDeviation="1"/>
<feComposite in2="SourceAlpha" operator="in" result="effect1_backgroundBlur_438_130"/>
<feBlend mode="normal" in="SourceGraphic" in2="effect1_backgroundBlur_438_130" result="shape"/>
</filter>
<filter id="filter1_b_438_130" x="76.3984" y="57.2503" width="88.443" height="88.3418" filterUnits="userSpaceOnUse" color-interpolation-filters="sRGB">
<feFlood flood-opacity="0" result="BackgroundImageFix"/>
<feGaussianBlur in="BackgroundImage" stdDeviation="1"/>
<feComposite in2="SourceAlpha" operator="in" result="effect1_backgroundBlur_438_130"/>
<feBlend mode="normal" in="SourceGraphic" in2="effect1_backgroundBlur_438_130" result="shape"/>
</filter>
</defs>
</svg>
