<svg width="128" height="127" viewBox="0 0 128 127" fill="none" xmlns="http://www.w3.org/2000/svg">
<path opacity="0.87" fill-rule="evenodd" clip-rule="evenodd" d="M127.517 44.6267C127.517 48.2657 127.517 51.9045 127.517 55.5436C127.002 61.3206 125.224 66.6964 122.182 71.6708C118.334 76.7047 113.248 78.731 106.923 77.7495C102.12 76.7533 97.6536 74.9337 93.5255 72.291C90.6139 70.3724 87.8433 68.2635 85.2138 65.9642C74.2225 71.4805 63.1815 76.8977 52.091 82.2155C48.6273 91.7901 44.0373 100.763 38.3208 109.136C34.4131 114.863 29.6575 119.784 24.0544 123.898C16.1244 128.48 9.79755 126.868 5.07394 119.06C2.45371 113.704 0.923693 108.081 0.483887 102.188C0.483887 97.9705 0.483887 93.7526 0.483887 89.5348C1.49964 77.8043 4.27021 66.4741 8.7956 55.5436C11.2166 49.8288 14.6488 44.8252 19.0922 40.5328C26.0738 34.4871 34.0962 32.5022 43.159 34.5782C53.37 29.514 63.5425 24.3864 73.6766 19.1953C76.3572 13.5364 79.9963 8.57414 84.5935 4.30864C92.4881 -1.51776 100.345 -1.43506 108.164 4.55675C115.182 10.1741 120.186 17.2452 123.175 25.7702C125.403 31.9115 126.85 38.1969 127.517 44.6267Z" fill="#0FD3BD"/>
<path fill-rule="evenodd" clip-rule="evenodd" d="M3.95752 113.353C6.58216 115.201 9.31138 115.325 12.1452 113.726C13.3531 112.999 14.511 112.213 15.6187 111.368C15.9595 111.407 16.2903 111.366 16.6112 111.244C20.6508 107.33 24.2485 103.071 27.404 98.4667C33.1252 89.799 38.3767 80.8258 43.1591 71.5467C54.0419 65.6925 64.9588 59.9859 75.9097 54.427C80.8518 58.9513 86.3929 62.5904 92.5331 65.3439C96.261 66.8365 100.065 67.0846 103.946 66.0882C107.431 64.505 109.789 61.8999 111.017 58.2727C112.349 54.5848 113.093 50.7805 113.25 46.8596C113.831 38.1157 113.005 29.5147 110.769 21.0561C109.709 17.6243 108.22 14.3989 106.303 11.3797C106.052 11.1722 105.763 11.0895 105.435 11.1316C102.124 6.08582 97.4926 3.02577 91.5407 1.95152C92.8956 1.3606 94.3431 1.11248 95.8826 1.20719C100.189 1.43798 104.035 2.88529 107.42 5.54913C113.61 10.5017 118.2 16.6631 121.19 24.0334C126.54 36.6407 127.78 49.6251 124.912 62.9868C121.316 75.1847 113.5 79.1959 101.465 75.0202C98.1707 73.5387 95.0279 71.802 92.0369 69.8099C89.83 68.0153 87.5555 66.32 85.2139 64.7236C74.3535 70.0503 63.4781 75.3435 52.5873 80.6027C52.5046 80.4787 52.4218 80.3546 52.3392 80.2305C53.3646 77.1215 54.2744 73.9786 55.0684 70.8023C54.7652 70.0667 54.393 70.0252 53.9519 70.6783C49.9441 87.7091 42.3353 102.844 31.1257 116.083C28.3972 118.979 25.3784 121.501 22.0696 123.65C16.3342 126.67 11.496 125.636 7.55513 120.549C6.00257 118.333 4.80338 115.935 3.95752 113.353Z" fill="#6CDADA"/>
<path fill-rule="evenodd" clip-rule="evenodd" d="M91.54 1.95155C97.492 3.0258 102.123 6.08585 105.434 11.1317C105.359 11.2929 105.276 11.4583 105.186 11.6279C108.546 17.0344 110.655 22.9063 111.513 29.2438C112.643 37.0205 112.643 44.7946 111.513 52.5662C110.935 56.988 109.075 60.7511 105.93 63.8552C102.573 65.7796 99.0169 66.1932 95.2617 65.0958C90.4779 63.49 86.0945 61.1744 82.1118 58.1487C79.9304 56.5414 77.8215 54.8461 75.785 53.0624C64.4801 59.0665 53.191 65.1037 41.9178 71.1745C36.1947 83.2101 29.2887 94.4577 21.2006 104.918C19.4716 106.895 17.6521 108.797 15.7421 110.624C15.6223 110.859 15.581 111.107 15.6181 111.368C14.5103 112.213 13.3525 112.999 12.1445 113.726C9.31073 115.325 6.58151 115.201 3.95686 113.353C1.70095 105.061 0.997969 96.625 1.84792 88.0461C3.00714 75.1373 6.4807 62.8973 12.2686 51.3256C15.7484 44.6202 20.9174 39.6992 27.7755 36.563C32.0855 34.7791 36.4688 34.531 40.9254 35.8187C38.8579 36.8938 36.7901 37.9691 34.7226 39.0441C34.515 39.295 34.4323 39.5845 34.4745 39.9125C34.8152 39.9515 35.1462 39.9101 35.467 39.7885C48.5727 33.2771 61.6399 26.7021 74.6685 20.0637C77.3848 14.0093 81.2717 8.84035 86.3297 4.55672C87.9362 3.4226 89.673 2.55421 91.54 1.95155Z" fill="#C3FCFC"/>
<path fill-rule="evenodd" clip-rule="evenodd" d="M105.435 11.1317C105.763 11.0896 106.053 11.1723 106.304 11.3798C108.221 14.399 109.709 17.6244 110.77 21.0562C113.005 29.5148 113.832 38.1158 113.251 46.8597C113.093 50.7806 112.349 54.5849 111.018 58.2728C109.789 61.9 107.432 64.5051 103.947 66.0883C100.066 67.0847 96.2614 66.8366 92.5335 65.344C86.3933 62.5905 80.8522 58.9514 75.9101 54.4271C64.9592 59.986 54.0423 65.6926 43.1594 71.5468C38.3771 80.8259 33.1256 89.799 27.4044 98.4668C24.2488 103.071 20.6512 107.33 16.6116 111.245C16.2907 111.366 15.9599 111.408 15.6191 111.369C15.582 111.108 15.6234 110.859 15.7432 110.624C17.6531 108.797 19.4726 106.895 21.2016 104.918C29.2898 94.4578 36.1957 83.2102 41.9189 71.1746C53.192 65.1038 64.4811 59.0665 75.786 53.0625C77.8225 54.8462 79.9314 56.5415 82.1128 58.1488C86.0955 61.1745 90.4789 63.4901 95.2627 65.0959C99.0179 66.1933 102.574 65.7797 105.931 63.8553C109.076 60.7512 110.936 56.9881 111.514 52.5663C112.644 44.7947 112.644 37.0206 111.514 29.2438C110.656 22.9064 108.547 17.0344 105.187 11.628C105.277 11.4584 105.36 11.293 105.435 11.1317Z" fill="#0FD3BD"/>
<path fill-rule="evenodd" clip-rule="evenodd" d="M85.8339 12.8684C89.0303 12.9173 91.0564 14.4887 91.9126 17.5825C92.6815 20.9832 91.7305 23.7538 89.0593 25.8943C85.4617 27.0095 83.1047 25.7275 81.9882 22.0485C80.8895 17.932 82.1715 14.872 85.8339 12.8684Z" fill="#0FD3BD"/>
<path fill-rule="evenodd" clip-rule="evenodd" d="M85.5858 14.1089C88.5423 13.8312 90.3205 15.1545 90.9202 18.0787C91.2901 20.2364 90.8765 22.2213 89.6796 24.0334C87.2476 25.949 85.1801 25.6181 83.4768 23.0409C81.8445 19.4814 82.5474 16.5041 85.5858 14.1089Z" fill="#A9FBF6"/>
<path fill-rule="evenodd" clip-rule="evenodd" d="M97.4942 14.6052C100.641 14.2566 102.75 15.5799 103.821 18.575C104.591 21.3401 104.177 23.9039 102.58 26.2664C99.7481 28.7703 97.1843 28.5222 94.889 25.5221C93.7127 23.2297 93.4646 20.8313 94.1447 18.3269C94.8106 16.6524 95.9271 15.4118 97.4942 14.6052Z" fill="#0FD3BD"/>
<path fill-rule="evenodd" clip-rule="evenodd" d="M97.7419 15.5976C100.712 15.464 102.49 16.8699 103.076 19.8154C103.409 22.2087 102.788 24.3176 101.215 26.1423C97.7489 27.528 95.6399 26.3289 94.8886 22.5447C94.3691 19.5899 95.3201 17.2742 97.7419 15.5976Z" fill="#F29CAE"/>
<path fill-rule="evenodd" clip-rule="evenodd" d="M80.8711 27.7551C84.0035 27.8657 86.0296 29.437 86.9498 32.4692C87.3523 34.7471 87.0215 36.8972 85.9574 38.9201C83.4175 42.0822 80.7709 42.1651 78.0178 39.1682C76.3076 36.2323 76.2247 33.255 77.7697 30.2362C78.6411 29.1529 79.675 28.326 80.8711 27.7551Z" fill="#0FD3BD"/>
<path fill-rule="evenodd" clip-rule="evenodd" d="M80.6239 28.9956C83.4697 28.8165 85.2479 30.1399 85.9583 32.9654C86.3843 35.1357 85.9707 37.1205 84.7177 38.9201C82.5688 40.7067 80.5839 40.5413 78.7631 38.4239C76.7797 34.7273 77.3999 31.5847 80.6239 28.9956Z" fill="#B1FAC2"/>
<path fill-rule="evenodd" clip-rule="evenodd" d="M93.5251 29.74C97.6606 30.1561 99.7283 32.4717 99.7278 36.6871C99.7125 40.3777 97.9343 42.6107 94.3935 43.3861C91.9406 42.8355 90.3691 41.3469 89.6794 38.9201C88.5338 34.7677 89.8158 31.7077 93.5251 29.74Z" fill="#0FD3BD"/>
<path fill-rule="evenodd" clip-rule="evenodd" d="M93.2772 30.9805C96.123 30.8014 97.9012 32.1248 98.6116 34.9503C98.9825 37.2282 98.4863 39.2957 97.1229 41.1531C94.9894 42.6683 93.0871 42.4202 91.4164 40.4087C89.433 36.6767 90.0532 33.5341 93.2772 30.9805Z" fill="#F6DE69"/>
<path fill-rule="evenodd" clip-rule="evenodd" d="M25.294 47.1076C26.0254 47.0389 26.7283 47.1215 27.4029 47.3557C27.4855 49.9195 27.5684 52.4835 27.651 55.0472C29.8227 53.8166 32.0145 52.6172 34.226 51.4496C34.5445 51.2799 34.8341 51.3213 35.0944 51.5736C35.8151 54.28 35.8977 57.0092 35.3425 59.7613C35.1184 60.8294 34.6634 61.7807 33.9778 62.6146C31.7875 63.7509 29.6371 64.95 27.527 66.2122C27.3203 69.1032 27.1962 71.9979 27.1548 74.8961C24.3228 77.9865 20.8079 79.6407 16.6101 79.8583C16.6435 77.274 16.6435 74.7102 16.6101 72.1668C14.3671 73.5774 12.0514 74.7765 9.66297 75.7645C8.33364 73.1228 7.96148 70.3522 8.54647 67.4527C8.86073 66.3687 9.39831 65.4175 10.1592 64.5995C12.435 63.2547 14.7507 61.9727 17.1063 60.7537C17.4449 57.9526 17.6516 55.1407 17.7266 52.318C19.7537 49.8319 22.2761 48.0951 25.294 47.1076Z" fill="#0FD3BD"/>
<path fill-rule="evenodd" clip-rule="evenodd" d="M25.7914 48.3483C26.2028 50.9438 26.4509 53.5904 26.5358 56.2878C26.7221 56.5541 26.9702 56.5955 27.2801 56.4119C29.6252 55.0738 32.0237 53.8747 34.4753 52.8143C35.0936 55.9271 34.7214 58.9044 33.3588 61.7463C31.0027 63.0067 28.6871 64.3301 26.4117 65.7161C26.3291 68.6108 26.2462 71.5052 26.1636 74.3999C23.8481 76.9019 20.9948 78.3906 17.6038 78.8659C17.6962 76.137 17.7789 73.4078 17.8519 70.6783C17.5111 70.6393 17.1803 70.6808 16.8594 70.8023C14.7492 72.0645 12.5989 73.2636 10.4085 74.3999C10.2631 74.3481 10.1391 74.2652 10.0364 74.1518C9.35478 71.8506 9.27209 69.535 9.78826 67.2047C10.0668 66.5227 10.439 65.9024 10.9048 65.3439C13.5284 64.0535 16.0508 62.606 18.4721 61.002C18.5548 58.2727 18.6376 55.5435 18.7203 52.8143C20.5433 50.4488 22.9003 48.9601 25.7914 48.3483Z" fill="#20E6CE"/>
<path fill-rule="evenodd" clip-rule="evenodd" d="M25.791 48.3483C25.9669 48.124 26.215 48.0414 26.5353 48.1002C26.5353 50.8294 26.5353 53.5586 26.5353 56.2878C26.4505 53.5904 26.2024 50.9438 25.791 48.3483Z" fill="#0FD3BD"/>
</svg>
