<svg width="105" height="105" viewBox="0 0 105 105" fill="none" xmlns="http://www.w3.org/2000/svg">
<g clip-path="url(#clip0_2_6840)">
<path opacity="0.995" fill-rule="evenodd" clip-rule="evenodd" d="M42.9648 -0.102539C44.4004 -0.102539 45.8359 -0.102539 47.2715 -0.102539C47.2715 4.27245 47.2715 8.64747 47.2715 13.0225C46.2061 12.9567 45.1807 13.0251 44.1953 13.2275C37.0371 13.8011 30.7481 16.3988 25.3281 21.0205C23.6875 22.251 22.252 23.6865 21.0215 25.3271C16.3977 30.7506 13.8001 37.0396 13.2285 44.1943C12.9551 46.2451 12.9551 48.2959 13.2285 50.3467C13.7927 57.5158 16.3903 63.8049 21.0215 69.2139C20.9946 69.3654 21.0289 69.5022 21.124 69.624C22.4412 71.0448 23.8425 72.3438 25.3281 73.5205C30.7219 78.1971 37.011 80.8631 44.1953 81.5186C44.2636 81.5186 44.3321 81.5186 44.4004 81.5186C45.3376 81.7115 46.2947 81.7798 47.2715 81.7236C47.2715 86.0986 47.2715 90.4737 47.2715 94.8486C29.1139 94.2676 15.3395 86.2696 5.94824 70.8545C2.66578 64.8707 0.649175 58.5133 -0.101562 51.7822C-0.101562 48.7743 -0.101562 45.7667 -0.101562 42.7588C1.76892 27.6989 8.94665 15.907 21.4316 7.38281C28.0325 3.18892 35.2102 0.693798 42.9648 -0.102539Z" fill="#21DCDC"/>
<path opacity="0.996" fill-rule="evenodd" clip-rule="evenodd" d="M47.2695 -0.102539C48.7734 -0.102539 50.2774 -0.102539 51.7812 -0.102539C70.3088 2.34099 83.4679 12.048 91.2588 29.0186C96.0689 41.3413 96.0346 53.646 91.1562 65.9326C89.6592 65.6845 88.1553 65.4451 86.6445 65.2148C82.4495 64.9255 78.553 65.8483 74.9551 67.9834C78.6383 62.6778 80.8256 56.7988 81.5176 50.3467C81.7782 48.3619 81.7782 46.3794 81.5176 44.3994C81.5176 44.3311 81.5176 44.2626 81.5176 44.1943C80.9237 37.4719 78.5653 31.4563 74.4424 26.1475C74.1612 25.8314 73.8536 25.5579 73.5195 25.3271C73.5464 25.1756 73.5121 25.0388 73.417 24.917C72.0998 23.4962 70.6985 22.1972 69.2129 21.0205C63.7986 16.388 57.5095 13.7903 50.3457 13.2275C49.3603 13.0251 48.3349 12.9567 47.2695 13.0225C47.2695 8.64747 47.2695 4.27245 47.2695 -0.102539Z" fill="#1888A1"/>
<path fill-rule="evenodd" clip-rule="evenodd" d="M44.1953 13.2275C45.1807 13.0251 46.2061 12.9567 47.2715 13.0225C47.2059 16.8662 47.2744 20.6944 47.4766 24.5068C46.4512 24.5068 45.4258 24.5068 44.4004 24.5068C44.4681 20.7112 44.3998 16.9516 44.1953 13.2275Z" fill="#595A5A"/>
<path fill-rule="evenodd" clip-rule="evenodd" d="M47.2702 13.0225C48.3356 12.9567 49.361 13.0251 50.3464 13.2275C50.3464 16.9873 50.3464 20.7471 50.3464 24.5068C49.3893 24.5068 48.4324 24.5068 47.4753 24.5068C47.2731 20.6944 47.2046 16.8662 47.2702 13.0225Z" fill="#2D2D2D"/>
<path fill-rule="evenodd" clip-rule="evenodd" d="M44.1934 13.2275C44.1934 17.0557 44.1934 20.8837 44.1934 24.7119C45.2188 24.7119 46.2441 24.7119 47.2695 24.7119C47.2695 27.4462 47.2695 30.1807 47.2695 32.915C46.2441 32.915 45.2188 32.915 44.1934 32.915C44.1934 38.7255 44.1934 44.5362 44.1934 50.3467C45.1788 50.5491 46.2042 50.6176 47.2695 50.5518C47.2695 57.046 47.2695 63.54 47.2695 70.0342C46.2441 70.0342 45.2188 70.0342 44.1934 70.0342C44.1934 73.8624 44.1934 77.6904 44.1934 81.5186C37.0091 80.8631 30.7199 78.1971 25.3262 73.5205C27.985 70.9642 30.6168 68.3667 33.2217 65.7275C33.3585 65.5908 33.3585 65.4542 33.2217 65.3174C31.8544 63.9501 30.4874 62.5831 29.1201 61.2158C26.4469 63.9233 23.7467 66.5893 21.0195 69.2139C16.3884 63.8049 13.7908 57.5158 13.2266 50.3467C16.9863 50.3467 20.7462 50.3467 24.5059 50.3467C24.5059 48.2959 24.5059 46.2451 24.5059 44.1943C20.7462 44.1943 16.9863 44.1943 13.2266 44.1943C13.7981 37.0396 16.3958 30.7506 21.0195 25.3271C23.5758 27.986 26.1733 30.6178 28.8125 33.2227C30.4484 32.0336 31.9522 30.6321 33.3242 29.0186C30.7222 26.2799 28.0562 23.6139 25.3262 21.0205C30.7462 16.3988 37.0351 13.8011 44.1934 13.2275Z" fill="#FEF4F4"/>
<path fill-rule="evenodd" clip-rule="evenodd" d="M44.1953 13.2275C44.3998 16.9516 44.4681 20.7113 44.4004 24.5068C45.4258 24.5068 46.4512 24.5068 47.4766 24.5068C48.4337 24.5068 49.3906 24.5068 50.3477 24.5068C49.3623 24.7092 48.3369 24.7777 47.2715 24.7119C46.2461 24.7119 45.2207 24.7119 44.1953 24.7119C44.1953 20.8837 44.1953 17.0557 44.1953 13.2275Z" fill="#908F8F"/>
<path fill-rule="evenodd" clip-rule="evenodd" d="M50.3477 13.2275C57.5114 13.7903 63.8006 16.388 69.2148 21.0205C66.5903 23.7476 63.9242 26.4479 61.2168 29.1211C62.6212 30.5597 64.0567 31.961 65.5234 33.3252C68.2621 30.7232 70.9281 28.0571 73.5215 25.3271C73.8556 25.5579 74.1632 25.8314 74.4443 26.1475C78.5672 31.4563 80.9256 37.4719 81.5195 44.1943C77.6913 44.1943 73.8633 44.1943 70.0352 44.1943C69.9681 46.2822 70.0364 48.333 70.2402 50.3467C73.9999 50.3467 77.7598 50.3467 81.5195 50.3467C80.8276 56.7988 78.6402 62.6778 74.957 67.9834C74.3469 68.2203 73.8 68.5621 73.3164 69.0088C70.7944 66.3842 68.2309 63.7865 65.626 61.2158C64.1562 62.6856 62.6866 64.1552 61.2168 65.625C63.7875 68.2299 66.3852 70.7934 69.0098 73.3154C68.5971 73.8702 68.187 74.4171 67.7793 74.9561C62.5937 78.7588 56.7832 80.9462 50.3477 81.5186C50.3477 77.6904 50.3477 73.8624 50.3477 70.0342C49.3906 70.0342 48.4337 70.0342 47.4766 70.0342C47.4083 70.0342 47.3398 70.0342 47.2715 70.0342C47.2715 63.54 47.2715 57.046 47.2715 50.5518C46.2061 50.6176 45.1807 50.5491 44.1953 50.3467C44.2636 50.3467 44.3321 50.3467 44.4004 50.3467C45.4258 50.3467 46.4512 50.3467 47.4766 50.3467C50.6895 50.3467 53.9023 50.3467 57.1152 50.3467C57.3191 48.333 57.3874 46.2822 57.3203 44.1943C54.9962 44.1943 52.6718 44.1943 50.3477 44.1943C50.3477 40.5029 50.3477 36.8115 50.3477 33.1201C49.3623 32.9177 48.3369 32.8492 47.2715 32.915C47.2715 30.1807 47.2715 27.4462 47.2715 24.7119C48.3369 24.7777 49.3623 24.7092 50.3477 24.5068C50.3477 20.7471 50.3477 16.9873 50.3477 13.2275Z" fill="#DBE5EA"/>
<path fill-rule="evenodd" clip-rule="evenodd" d="M25.3262 21.0205C28.0562 23.6139 30.7222 26.2799 33.3242 29.0186C31.9522 30.6321 30.4484 32.0336 28.8125 33.2227C26.1733 30.6178 23.5758 27.986 21.0195 25.3271C22.25 23.6865 23.6855 22.251 25.3262 21.0205Z" fill="#5C5C5C"/>
<path fill-rule="evenodd" clip-rule="evenodd" d="M69.2129 21.0205C70.6985 22.1972 72.0998 23.4962 73.417 24.917C73.5121 25.0388 73.5464 25.1756 73.5195 25.3271C70.9261 28.0571 68.2601 30.7232 65.5215 33.3252C64.0548 31.961 62.6192 30.5597 61.2148 29.1211C63.9223 26.4479 66.5883 23.7476 69.2129 21.0205Z" fill="#2E2E2E"/>
<path fill-rule="evenodd" clip-rule="evenodd" d="M47.2715 32.9151C48.3369 32.8492 49.3623 32.9177 50.3477 33.1201C49.3223 33.1201 48.2969 33.1201 47.2715 33.1201C46.3144 33.1201 45.3575 33.1201 44.4004 33.1201C44.4004 38.8623 44.4004 44.6045 44.4004 50.3467C44.3321 50.3467 44.2636 50.3467 44.1953 50.3467C44.1953 44.5362 44.1953 38.7256 44.1953 32.9151C45.2207 32.9151 46.2461 32.9151 47.2715 32.9151Z" fill="#8A8889"/>
<path fill-rule="evenodd" clip-rule="evenodd" d="M47.2695 33.1201C47.2031 38.8775 47.2714 44.6197 47.4746 50.3467C46.4492 50.3467 45.4238 50.3467 44.3984 50.3467C44.3984 44.6045 44.3984 38.8623 44.3984 33.1201C45.3555 33.1201 46.3124 33.1201 47.2695 33.1201Z" fill="#595959"/>
<path fill-rule="evenodd" clip-rule="evenodd" d="M47.2707 33.1201C48.2961 33.1201 49.3214 33.1201 50.3468 33.1201C50.3468 36.8115 50.3468 40.5029 50.3468 44.1943C52.566 44.3984 54.8218 44.4667 57.1144 44.3994C57.1144 46.3819 57.1144 48.3642 57.1144 50.3467C53.9015 50.3467 50.6887 50.3467 47.4757 50.3467C47.2725 44.6197 47.2042 38.8775 47.2707 33.1201Z" fill="#2D2D2D"/>
<path fill-rule="evenodd" clip-rule="evenodd" d="M81.5191 44.1943C81.5191 44.2626 81.5191 44.3311 81.5191 44.3994C77.7594 44.3994 73.9995 44.3994 70.2398 44.3994C70.2398 46.3819 70.2398 48.3642 70.2398 50.3467C70.0359 48.333 69.9676 46.2822 70.0347 44.1943C73.8629 44.1943 77.6909 44.1943 81.5191 44.1943Z" fill="#595B5D"/>
<path fill-rule="evenodd" clip-rule="evenodd" d="M13.2285 44.1943C16.9883 44.1943 20.7481 44.1943 24.5078 44.1943C24.5078 46.2451 24.5078 48.2959 24.5078 50.3467C20.7481 50.3467 16.9883 50.3467 13.2285 50.3467C12.9551 48.2959 12.9551 46.2451 13.2285 44.1943Z" fill="#5B5B5B"/>
<path fill-rule="evenodd" clip-rule="evenodd" d="M50.3477 44.1943C52.6718 44.1943 54.9962 44.1943 57.3203 44.1943C57.3874 46.2822 57.3191 48.333 57.1152 50.3467C57.1152 48.3642 57.1152 46.3819 57.1152 44.3994C54.8227 44.4667 52.5668 44.3984 50.3477 44.1943Z" fill="#525455"/>
<path fill-rule="evenodd" clip-rule="evenodd" d="M81.5176 44.3994C81.7782 46.3794 81.7782 48.3619 81.5176 50.3467C77.7579 50.3467 73.998 50.3467 70.2383 50.3467C70.2383 48.3642 70.2383 46.3819 70.2383 44.3994C73.998 44.3994 77.7579 44.3994 81.5176 44.3994Z" fill="#2D2D2D"/>
<path fill-rule="evenodd" clip-rule="evenodd" d="M25.3272 73.5205C23.8416 72.3438 22.4403 71.0448 21.1231 69.624C21.028 69.5022 20.9937 69.3654 21.0206 69.2139C23.7477 66.5893 26.448 63.9233 29.1212 61.2158C30.4884 62.5831 31.8555 63.9501 33.2227 65.3174C33.3595 65.4542 33.3595 65.5908 33.2227 65.7275C30.6178 68.3667 27.9861 70.9642 25.3272 73.5205Z" fill="#5B5B5B"/>
<path fill-rule="evenodd" clip-rule="evenodd" d="M73.3145 69.0088C71.6738 70.2393 70.2383 71.6748 69.0078 73.3154C66.3832 70.7934 63.7855 68.2299 61.2148 65.625C62.6846 64.1552 64.1542 62.6856 65.624 61.2158C68.2289 63.7865 70.7924 66.3842 73.3145 69.0088Z" fill="#2F2F2F"/>
<path opacity="0.995" fill-rule="evenodd" clip-rule="evenodd" d="M91.1564 65.9327C98.7718 68.7625 103.352 74.1631 104.897 82.1338C104.897 84.0478 104.897 85.962 104.897 87.876C102.982 97.3104 97.308 102.984 87.8752 104.897C85.9612 104.897 84.047 104.897 82.133 104.897C74.1622 103.353 68.7617 98.7726 65.9318 91.1573C65.7405 89.8528 65.5012 88.554 65.214 87.2608C64.7967 82.8877 65.6511 78.7861 67.7775 74.9561C68.1852 74.4172 68.5954 73.8702 69.008 73.3155C70.2385 71.6749 71.674 70.2393 73.3146 69.0088C73.7982 68.5622 74.3452 68.2203 74.9553 67.9834C78.5532 65.8484 82.4496 64.9255 86.6447 65.2149C88.1555 65.4452 89.6594 65.6845 91.1564 65.9327Z" fill="#02CBCB"/>
<path fill-rule="evenodd" clip-rule="evenodd" d="M47.2715 70.0342C47.3398 70.0342 47.4083 70.0342 47.4766 70.0342C47.4766 70.171 47.4083 70.2393 47.2715 70.2393C46.3144 70.2393 45.3575 70.2393 44.4004 70.2393C44.4004 73.999 44.4004 77.7589 44.4004 81.5186C44.3321 81.5186 44.2636 81.5186 44.1953 81.5186C44.1953 77.6904 44.1953 73.8624 44.1953 70.0342C45.2207 70.0342 46.2461 70.0342 47.2715 70.0342Z" fill="#858282"/>
<path fill-rule="evenodd" clip-rule="evenodd" d="M47.2695 70.2393C47.2695 73.999 47.2695 77.7589 47.2695 81.5186C47.9531 81.5186 48.6368 81.5186 49.3203 81.5186C48.6794 81.7193 47.9959 81.7878 47.2695 81.7236C46.2927 81.7798 45.3356 81.7115 44.3984 81.5186C44.3984 77.7589 44.3984 73.999 44.3984 70.2393C45.3555 70.2393 46.3124 70.2393 47.2695 70.2393Z" fill="#59595A"/>
<path fill-rule="evenodd" clip-rule="evenodd" d="M47.4746 70.0342C48.4317 70.0342 49.3886 70.0342 50.3457 70.0342C50.3457 73.8624 50.3457 77.6904 50.3457 81.5186C50.0038 81.5186 49.6622 81.5186 49.3203 81.5186C48.6368 81.5186 47.9531 81.5186 47.2695 81.5186C47.2695 77.7589 47.2695 73.999 47.2695 70.2393C47.4063 70.2393 47.4746 70.171 47.4746 70.0342Z" fill="#2E2E2E"/>
<path opacity="0.995" fill-rule="evenodd" clip-rule="evenodd" d="M67.7773 74.9561C65.6509 78.7861 64.7965 82.8877 65.2139 87.2607C65.501 88.554 65.7403 89.8527 65.9316 91.1572C59.9561 93.5964 53.7352 94.8269 47.2695 94.8486C47.2695 90.4737 47.2695 86.0986 47.2695 81.7236C47.9959 81.7878 48.6794 81.7193 49.3203 81.5186C49.6622 81.5186 50.0038 81.5186 50.3457 81.5186C56.7813 80.9462 62.5917 78.7588 67.7773 74.9561Z" fill="#1888A1"/>
<path fill-rule="evenodd" clip-rule="evenodd" d="M90.1309 78.0322C91.719 79.3117 93.223 80.713 94.6426 82.2363C90.6407 86.2725 86.6076 90.2715 82.543 94.2334C80.1503 91.9775 77.8262 89.6534 75.5703 87.2607C76.9345 85.794 78.3358 84.3585 79.7744 82.9541C80.629 83.8087 81.4833 84.663 82.3379 85.5176C82.4747 85.6544 82.6113 85.6544 82.748 85.5176C85.2504 83.0495 87.7113 80.5543 90.1309 78.0322Z" fill="#FEF4F4"/>
</g>
<defs>
<clipPath id="clip0_2_6840">
<rect width="105" height="105" fill="white"/>
</clipPath>
</defs>
</svg>
